<svg width="784" height="380" viewBox="0 0 784 380" fill="none" xmlns="http://www.w3.org/2000/svg">
<path d="M217.113 218.967C252.996 193.175 250.207 147.213 215.917 119.905C181.627 92.597 174.35 129.923 157.747 154.526C141.144 179.128 65.2468 188.951 52.9604 237.642C41.3882 283.502 97.2562 247.931 137.229 279.868C177.201 311.805 172.261 251.208 217.113 218.967Z" fill="#30ACEC"/>
<path d="M199.167 80.9391C247.998 63.2681 292.289 96.6161 297.71 148.138C303.131 199.66 261.053 181.848 225.759 181.579C190.464 181.311 132.022 248.508 75.343 227.988C21.9591 208.661 93.3894 178.089 86.966 117.961C80.5426 57.8325 138.128 103.028 199.167 80.9391Z" fill="#FF9A24"/>
<path d="M191.353 288.865C141.262 304.053 97.0218 268.893 92.753 217.571C88.4841 166.249 130.849 185.907 166.739 187.853C202.63 189.8 263.692 125.984 320.842 149.021C374.67 170.718 301.282 197.616 306.362 257.516C311.442 317.416 253.967 269.88 191.353 288.865Z" fill="#F2CE11"/>
<g filter="url(#filter0_d_207_385)">
<rect x="122.118" y="102.857" width="645.832" height="149.368" rx="11.7922" fill="white"/>
<path d="M201.257 159.197C201.257 156.652 203.298 154.611 205.843 154.611C208.388 154.611 210.429 156.652 210.429 159.197C210.429 161.742 208.388 163.783 205.843 163.783C203.298 163.783 201.257 161.742 201.257 159.197ZM210.429 198.177V186.712H212.974C214.533 186.712 215.634 185.176 215.152 183.686L210.337 169.217C210.031 168.304 209.445 167.51 208.664 166.946C207.882 166.383 206.944 166.079 205.981 166.076H205.706C204.741 166.075 203.801 166.378 203.019 166.942C202.237 167.506 201.653 168.302 201.349 169.217L199.377 175.133C201.853 176.509 203.55 179.1 203.55 182.127V200.47H208.136C209.397 200.47 210.429 199.438 210.429 198.177ZM193.232 176.394C195.135 176.394 196.671 174.858 196.671 172.955C196.671 171.052 195.135 169.515 193.232 169.515C191.329 169.515 189.793 171.052 189.793 172.955C189.793 174.858 191.329 176.394 193.232 176.394ZM177.182 163.783C179.727 163.783 181.767 161.742 181.767 159.197C181.767 156.652 179.727 154.611 177.182 154.611C174.636 154.611 172.596 156.652 172.596 159.197C172.596 161.742 174.636 163.783 177.182 163.783ZM181.767 198.177V184.419H182.914C184.175 184.419 185.207 183.388 185.207 182.127V170.662C185.207 168.14 183.143 166.076 180.621 166.076H173.742C171.22 166.076 169.156 168.14 169.156 170.662V182.127C169.156 183.388 170.188 184.419 171.449 184.419H172.596V198.177C172.596 199.438 173.627 200.47 174.889 200.47H179.474C180.736 200.47 181.767 199.438 181.767 198.177ZM187.5 182.127V189.005C187.5 190.266 188.532 191.298 189.793 191.298V198.177C189.793 199.438 190.824 200.47 192.086 200.47H194.379C195.64 200.47 196.671 199.438 196.671 198.177V191.298C197.933 191.298 198.964 190.266 198.964 189.005V182.127C198.964 180.246 197.405 178.687 195.525 178.687H190.939C189.059 178.687 187.5 180.246 187.5 182.127Z" fill="#5B3873"/>
<path d="M246.468 171.428L241.544 184.541H239.053L234.11 171.428H236.412L240.299 182.333L244.204 171.428H246.468ZM250.418 173.164V177.012H254.946V178.767H250.418V182.786H255.512V184.541H248.267V171.409H255.512V173.164H250.418ZM268.935 184.541H266.784L260.312 174.748V184.541H258.161V171.409H260.312L266.784 181.182V171.409H268.935V184.541ZM282.231 171.428V184.541H280.08V178.805H273.91V184.541H271.759V171.428H273.91V177.05H280.08V171.428H282.231ZM292.968 181.861H287.477L286.534 184.541H284.289L288.987 171.409H291.477L296.175 184.541H293.911L292.968 181.861ZM292.364 180.107L290.232 174.013L288.081 180.107H292.364ZM313.893 184.541H311.742L305.27 174.748V184.541H303.119V171.409H305.27L311.742 181.182V171.409H313.893V184.541ZM322.698 184.673C321.478 184.673 320.352 184.39 319.321 183.824C318.302 183.245 317.491 182.446 316.887 181.428C316.296 180.396 316 179.239 316 177.956C316 176.673 316.296 175.522 316.887 174.503C317.491 173.484 318.302 172.692 319.321 172.126C320.352 171.547 321.478 171.258 322.698 171.258C323.931 171.258 325.057 171.547 326.075 172.126C327.107 172.692 327.918 173.484 328.509 174.503C329.101 175.522 329.396 176.673 329.396 177.956C329.396 179.239 329.101 180.396 328.509 181.428C327.918 182.446 327.107 183.245 326.075 183.824C325.057 184.39 323.931 184.673 322.698 184.673ZM322.698 182.805C323.566 182.805 324.34 182.61 325.019 182.22C325.698 181.817 326.226 181.251 326.604 180.522C326.994 179.78 327.189 178.924 327.189 177.956C327.189 176.987 326.994 176.138 326.604 175.409C326.226 174.679 325.698 174.119 325.019 173.73C324.34 173.34 323.566 173.145 322.698 173.145C321.83 173.145 321.057 173.34 320.377 173.73C319.698 174.119 319.164 174.679 318.774 175.409C318.396 176.138 318.208 176.987 318.208 177.956C318.208 178.924 318.396 179.78 318.774 180.522C319.164 181.251 319.698 181.817 320.377 182.22C321.057 182.61 321.83 182.805 322.698 182.805ZM335.833 184.673C334.953 184.673 334.16 184.522 333.456 184.22C332.752 183.905 332.198 183.465 331.796 182.899C331.393 182.333 331.192 181.673 331.192 180.918H333.494C333.544 181.484 333.764 181.95 334.154 182.314C334.557 182.679 335.116 182.861 335.833 182.861C336.575 182.861 337.154 182.685 337.569 182.333C337.984 181.968 338.192 181.503 338.192 180.937C338.192 180.497 338.06 180.138 337.796 179.861C337.544 179.585 337.223 179.371 336.833 179.22C336.456 179.069 335.928 178.906 335.248 178.729C334.393 178.503 333.695 178.277 333.154 178.05C332.626 177.811 332.173 177.446 331.796 176.956C331.418 176.465 331.23 175.811 331.23 174.994C331.23 174.239 331.418 173.579 331.796 173.013C332.173 172.447 332.701 172.013 333.381 171.711C334.06 171.409 334.846 171.258 335.739 171.258C337.009 171.258 338.047 171.579 338.852 172.22C339.67 172.849 340.123 173.717 340.211 174.824H337.833C337.796 174.346 337.569 173.937 337.154 173.597C336.739 173.258 336.192 173.088 335.513 173.088C334.896 173.088 334.393 173.245 334.003 173.56C333.613 173.874 333.418 174.327 333.418 174.918C333.418 175.321 333.538 175.654 333.777 175.918C334.028 176.17 334.343 176.371 334.72 176.522C335.098 176.673 335.613 176.836 336.267 177.012C337.135 177.251 337.84 177.49 338.38 177.729C338.934 177.968 339.399 178.34 339.777 178.843C340.167 179.333 340.362 179.994 340.362 180.824C340.362 181.49 340.179 182.119 339.814 182.71C339.462 183.302 338.94 183.78 338.248 184.144C337.569 184.497 336.764 184.673 335.833 184.673ZM359.102 171.428L354.178 184.541H351.687L346.744 171.428H349.046L352.933 182.333L356.838 171.428H359.102ZM363.052 171.428V184.541H360.901V171.428H363.052ZM370.197 184.673C369.316 184.673 368.524 184.522 367.819 184.22C367.115 183.905 366.561 183.465 366.159 182.899C365.756 182.333 365.555 181.673 365.555 180.918H367.857C367.907 181.484 368.127 181.95 368.517 182.314C368.92 182.679 369.48 182.861 370.197 182.861C370.939 182.861 371.517 182.685 371.932 182.333C372.348 181.968 372.555 181.503 372.555 180.937C372.555 180.497 372.423 180.138 372.159 179.861C371.907 179.585 371.587 179.371 371.197 179.22C370.819 179.069 370.291 178.906 369.612 178.729C368.756 178.503 368.058 178.277 367.517 178.05C366.989 177.811 366.536 177.446 366.159 176.956C365.782 176.465 365.593 175.811 365.593 174.994C365.593 174.239 365.782 173.579 366.159 173.013C366.536 172.447 367.065 172.013 367.744 171.711C368.423 171.409 369.209 171.258 370.102 171.258C371.373 171.258 372.41 171.579 373.215 172.22C374.033 172.849 374.486 173.717 374.574 174.824H372.197C372.159 174.346 371.932 173.937 371.517 173.597C371.102 173.258 370.555 173.088 369.876 173.088C369.26 173.088 368.756 173.245 368.366 173.56C367.977 173.874 367.782 174.327 367.782 174.918C367.782 175.321 367.901 175.654 368.14 175.918C368.392 176.17 368.706 176.371 369.083 176.522C369.461 176.673 369.977 176.836 370.631 177.012C371.498 177.251 372.203 177.49 372.744 177.729C373.297 177.968 373.763 178.34 374.14 178.843C374.53 179.333 374.725 179.994 374.725 180.824C374.725 181.49 374.542 182.119 374.178 182.71C373.825 183.302 373.303 183.78 372.612 184.144C371.932 184.497 371.127 184.673 370.197 184.673ZM379.414 171.428V184.541H377.263V171.428H379.414ZM390.709 171.428V173.182H387.219V184.541H385.068V173.182H381.558V171.428H390.709ZM400.793 181.861H395.303L394.359 184.541H392.114L396.812 171.409H399.302L404.001 184.541H401.736L400.793 181.861ZM400.189 180.107L398.057 174.013L395.906 180.107H400.189ZM412.854 184.541L409.836 179.295H408.194V184.541H406.043V171.428H410.571C411.578 171.428 412.427 171.604 413.119 171.956C413.823 172.308 414.345 172.78 414.685 173.371C415.037 173.962 415.213 174.623 415.213 175.352C415.213 176.207 414.961 176.987 414.458 177.692C413.968 178.384 413.207 178.855 412.175 179.107L415.42 184.541H412.854ZM408.194 177.579H410.571C411.376 177.579 411.98 177.377 412.383 176.975C412.798 176.572 413.005 176.031 413.005 175.352C413.005 174.673 412.804 174.145 412.402 173.767C411.999 173.377 411.389 173.182 410.571 173.182H408.194V177.579ZM420.662 171.428L420.417 180.578H418.625L418.38 171.428H420.662ZM419.587 184.673C419.197 184.673 418.87 184.541 418.606 184.277C418.342 184.012 418.21 183.685 418.21 183.295C418.21 182.905 418.342 182.578 418.606 182.314C418.87 182.05 419.197 181.918 419.587 181.918C419.964 181.918 420.285 182.05 420.549 182.314C420.813 182.578 420.945 182.905 420.945 183.295C420.945 183.685 420.813 184.012 420.549 184.277C420.285 184.541 419.964 184.673 419.587 184.673Z" fill="#5B3873"/>
<path d="M452.625 176.886C451.757 176.886 450.923 176.54 450.309 175.926C449.695 175.312 449.35 174.479 449.35 173.61C449.35 172.741 449.695 171.908 450.309 171.294C450.923 170.679 451.757 170.334 452.625 170.334C453.494 170.334 454.327 170.679 454.942 171.294C455.556 171.908 455.901 172.741 455.901 173.61C455.901 174.04 455.816 174.466 455.652 174.863C455.487 175.261 455.246 175.622 454.942 175.926C454.637 176.23 454.276 176.472 453.879 176.636C453.481 176.801 453.056 176.886 452.625 176.886ZM452.625 164.438C450.193 164.438 447.86 165.404 446.14 167.125C444.42 168.845 443.454 171.177 443.454 173.61C443.454 180.489 452.625 190.643 452.625 190.643C452.625 190.643 461.797 180.489 461.797 173.61C461.797 171.177 460.831 168.845 459.111 167.125C457.391 165.404 455.058 164.438 452.625 164.438Z" fill="#5B3873"/>
<path d="M487.557 172.541L485.741 169.333H484.963V172.541H483.312V164.31H486.402C487.039 164.31 487.581 164.424 488.029 164.652C488.477 164.872 488.811 165.174 489.031 165.56C489.259 165.937 489.373 166.362 489.373 166.833C489.373 167.376 489.216 167.867 488.902 168.307C488.587 168.74 488.119 169.038 487.498 169.203L489.468 172.541H487.557ZM484.963 168.095H486.343C486.791 168.095 487.125 167.989 487.345 167.777C487.565 167.556 487.675 167.254 487.675 166.869C487.675 166.491 487.565 166.2 487.345 165.996C487.125 165.784 486.791 165.678 486.343 165.678H484.963V168.095ZM497.034 166.008V172.541H495.371V171.715C495.159 171.998 494.88 172.222 494.534 172.387C494.196 172.545 493.826 172.623 493.426 172.623C492.915 172.623 492.462 172.517 492.069 172.305C491.676 172.085 491.366 171.766 491.138 171.35C490.918 170.925 490.808 170.422 490.808 169.84V166.008H492.459V169.604C492.459 170.123 492.588 170.524 492.848 170.807C493.107 171.082 493.461 171.22 493.909 171.22C494.365 171.22 494.723 171.082 494.982 170.807C495.242 170.524 495.371 170.123 495.371 169.604V166.008H497.034ZM498.238 169.251C498.238 168.59 498.368 168.005 498.627 167.494C498.895 166.983 499.252 166.59 499.701 166.314C500.156 166.039 500.664 165.902 501.222 165.902C501.709 165.902 502.134 166 502.495 166.196C502.865 166.393 503.16 166.641 503.38 166.939V166.008H505.042V172.541H503.38V171.585C503.167 171.892 502.873 172.148 502.495 172.352C502.126 172.549 501.697 172.647 501.21 172.647C500.66 172.647 500.156 172.505 499.701 172.222C499.252 171.939 498.895 171.542 498.627 171.031C498.368 170.512 498.238 169.919 498.238 169.251ZM503.38 169.274C503.38 168.873 503.301 168.531 503.144 168.248C502.987 167.957 502.774 167.737 502.507 167.588C502.24 167.431 501.953 167.352 501.646 167.352C501.34 167.352 501.057 167.427 500.797 167.576C500.538 167.725 500.326 167.946 500.16 168.236C500.003 168.52 499.925 168.858 499.925 169.251C499.925 169.644 500.003 169.99 500.16 170.288C500.326 170.579 500.538 170.803 500.797 170.96C501.065 171.118 501.348 171.196 501.646 171.196C501.953 171.196 502.24 171.122 502.507 170.972C502.774 170.815 502.987 170.595 503.144 170.312C503.301 170.021 503.38 169.675 503.38 169.274ZM509.064 168.413C509.064 167.604 509.245 166.88 509.606 166.244C509.976 165.599 510.475 165.1 511.104 164.746C511.741 164.384 512.452 164.204 513.238 164.204C514.158 164.204 514.964 164.439 515.656 164.911C516.347 165.383 516.831 166.035 517.106 166.869H515.207C515.019 166.476 514.752 166.181 514.406 165.984C514.068 165.788 513.675 165.689 513.226 165.689C512.747 165.689 512.318 165.803 511.941 166.031C511.572 166.251 511.281 166.566 511.068 166.975C510.864 167.384 510.762 167.863 510.762 168.413C510.762 168.956 510.864 169.435 511.068 169.852C511.281 170.261 511.572 170.579 511.941 170.807C512.318 171.027 512.747 171.137 513.226 171.137C513.675 171.137 514.068 171.039 514.406 170.843C514.752 170.638 515.019 170.339 515.207 169.946H517.106C516.831 170.788 516.347 171.444 515.656 171.916C514.972 172.379 514.166 172.611 513.238 172.611C512.452 172.611 511.741 172.435 511.104 172.081C510.475 171.719 509.976 171.22 509.606 170.583C509.245 169.946 509.064 169.223 509.064 168.413ZM518.092 169.251C518.092 168.59 518.221 168.005 518.481 167.494C518.748 166.983 519.106 166.59 519.554 166.314C520.01 166.039 520.517 165.902 521.075 165.902C521.562 165.902 521.987 166 522.349 166.196C522.718 166.393 523.013 166.641 523.233 166.939V166.008H524.896V172.541H523.233V171.585C523.021 171.892 522.726 172.148 522.349 172.352C521.979 172.549 521.551 172.647 521.063 172.647C520.513 172.647 520.01 172.505 519.554 172.222C519.106 171.939 518.748 171.542 518.481 171.031C518.221 170.512 518.092 169.919 518.092 169.251ZM523.233 169.274C523.233 168.873 523.154 168.531 522.997 168.248C522.84 167.957 522.628 167.737 522.36 167.588C522.093 167.431 521.806 167.352 521.5 167.352C521.193 167.352 520.91 167.427 520.651 167.576C520.391 167.725 520.179 167.946 520.014 168.236C519.857 168.52 519.778 168.858 519.778 169.251C519.778 169.644 519.857 169.99 520.014 170.288C520.179 170.579 520.391 170.803 520.651 170.96C520.918 171.118 521.201 171.196 521.5 171.196C521.806 171.196 522.093 171.122 522.36 170.972C522.628 170.815 522.84 170.595 522.997 170.312C523.154 170.021 523.233 169.675 523.233 169.274ZM528.159 166.951C528.371 166.652 528.662 166.405 529.032 166.208C529.409 166.004 529.837 165.902 530.317 165.902C530.875 165.902 531.378 166.039 531.826 166.314C532.282 166.59 532.64 166.983 532.9 167.494C533.167 167.997 533.3 168.582 533.3 169.251C533.3 169.919 533.167 170.512 532.9 171.031C532.64 171.542 532.282 171.939 531.826 172.222C531.378 172.505 530.875 172.647 530.317 172.647C529.837 172.647 529.413 172.549 529.043 172.352C528.682 172.155 528.387 171.908 528.159 171.609V175.654H526.508V166.008H528.159V166.951ZM531.614 169.251C531.614 168.858 531.532 168.52 531.367 168.236C531.209 167.946 530.997 167.725 530.73 167.576C530.47 167.427 530.187 167.352 529.881 167.352C529.582 167.352 529.299 167.431 529.032 167.588C528.772 167.737 528.56 167.957 528.395 168.248C528.238 168.539 528.159 168.881 528.159 169.274C528.159 169.667 528.238 170.009 528.395 170.3C528.56 170.591 528.772 170.815 529.032 170.972C529.299 171.122 529.582 171.196 529.881 171.196C530.187 171.196 530.47 171.118 530.73 170.96C530.997 170.803 531.209 170.579 531.367 170.288C531.532 169.997 531.614 169.652 531.614 169.251ZM535.337 165.229C535.046 165.229 534.803 165.139 534.606 164.958C534.418 164.77 534.323 164.538 534.323 164.263C534.323 163.987 534.418 163.759 534.606 163.579C534.803 163.39 535.046 163.296 535.337 163.296C535.628 163.296 535.868 163.39 536.057 163.579C536.253 163.759 536.352 163.987 536.352 164.263C536.352 164.538 536.253 164.77 536.057 164.958C535.868 165.139 535.628 165.229 535.337 165.229ZM536.151 166.008V172.541H534.5V166.008H536.151ZM539.704 167.364V170.524C539.704 170.744 539.755 170.905 539.858 171.008C539.968 171.102 540.148 171.149 540.4 171.149H541.167V172.541H540.129C538.737 172.541 538.042 171.865 538.042 170.512V167.364H537.263V166.008H538.042V164.392H539.704V166.008H541.167V167.364H539.704ZM541.929 169.251C541.929 168.59 542.059 168.005 542.319 167.494C542.586 166.983 542.944 166.59 543.392 166.314C543.848 166.039 544.355 165.902 544.913 165.902C545.4 165.902 545.825 166 546.186 166.196C546.556 166.393 546.851 166.641 547.071 166.939V166.008H548.734V172.541H547.071V171.585C546.859 171.892 546.564 172.148 546.186 172.352C545.817 172.549 545.388 172.647 544.901 172.647C544.351 172.647 543.848 172.505 543.392 172.222C542.944 171.939 542.586 171.542 542.319 171.031C542.059 170.512 541.929 169.919 541.929 169.251ZM547.071 169.274C547.071 168.873 546.992 168.531 546.835 168.248C546.678 167.957 546.465 167.737 546.198 167.588C545.931 167.431 545.644 167.352 545.337 167.352C545.031 167.352 544.748 167.427 544.488 167.576C544.229 167.725 544.017 167.946 543.852 168.236C543.694 168.52 543.616 168.858 543.616 169.251C543.616 169.644 543.694 169.99 543.852 170.288C544.017 170.579 544.229 170.803 544.488 170.96C544.756 171.118 545.039 171.196 545.337 171.196C545.644 171.196 545.931 171.122 546.198 170.972C546.465 170.815 546.678 170.595 546.835 170.312C546.992 170.021 547.071 169.675 547.071 169.274ZM543.439 165.383C543.51 164.864 543.671 164.479 543.922 164.227C544.182 163.968 544.508 163.838 544.901 163.838C545.066 163.838 545.212 163.866 545.337 163.921C545.463 163.968 545.605 164.038 545.762 164.133C545.998 164.282 546.194 164.357 546.351 164.357C546.642 164.357 546.811 164.188 546.859 163.85H547.743C547.672 164.369 547.507 164.758 547.248 165.017C546.996 165.269 546.674 165.395 546.281 165.395C546.116 165.395 545.97 165.371 545.844 165.324C545.719 165.269 545.577 165.194 545.42 165.1C545.192 164.943 544.995 164.864 544.83 164.864C544.539 164.864 544.366 165.037 544.311 165.383H543.439ZM553.247 172.647C552.618 172.647 552.052 172.509 551.549 172.234C551.046 171.951 550.649 171.554 550.358 171.043C550.075 170.532 549.933 169.942 549.933 169.274C549.933 168.606 550.079 168.016 550.37 167.505C550.668 166.994 551.073 166.601 551.584 166.326C552.095 166.043 552.665 165.902 553.294 165.902C553.923 165.902 554.493 166.043 555.004 166.326C555.515 166.601 555.916 166.994 556.207 167.505C556.505 168.016 556.655 168.606 556.655 169.274C556.655 169.942 556.501 170.532 556.195 171.043C555.896 171.554 555.487 171.951 554.968 172.234C554.457 172.509 553.884 172.647 553.247 172.647ZM553.247 171.208C553.546 171.208 553.825 171.137 554.084 170.996C554.351 170.846 554.564 170.626 554.721 170.336C554.878 170.045 554.957 169.691 554.957 169.274C554.957 168.653 554.792 168.178 554.461 167.847C554.139 167.509 553.742 167.34 553.27 167.34C552.799 167.34 552.402 167.509 552.079 167.847C551.765 168.178 551.608 168.653 551.608 169.274C551.608 169.895 551.761 170.375 552.068 170.713C552.382 171.043 552.775 171.208 553.247 171.208ZM565.475 164.31V170.088C565.475 170.89 565.243 171.515 564.779 171.963C564.315 172.403 563.694 172.623 562.916 172.623C562.13 172.623 561.493 172.395 561.006 171.939C560.526 171.483 560.286 170.846 560.286 170.029H561.937C561.945 170.383 562.028 170.658 562.185 170.854C562.35 171.051 562.586 171.149 562.893 171.149C563.191 171.149 563.419 171.055 563.577 170.866C563.734 170.677 563.812 170.418 563.812 170.088V164.31H565.475ZM570.302 172.647C569.673 172.647 569.107 172.509 568.604 172.234C568.101 171.951 567.704 171.554 567.413 171.043C567.13 170.532 566.988 169.942 566.988 169.274C566.988 168.606 567.134 168.016 567.424 167.505C567.723 166.994 568.128 166.601 568.639 166.326C569.15 166.043 569.72 165.902 570.349 165.902C570.978 165.902 571.548 166.043 572.059 166.326C572.57 166.601 572.971 166.994 573.262 167.505C573.56 168.016 573.71 168.606 573.71 169.274C573.71 169.942 573.556 170.532 573.25 171.043C572.951 171.554 572.542 171.951 572.023 172.234C571.512 172.509 570.939 172.647 570.302 172.647ZM570.302 171.208C570.601 171.208 570.88 171.137 571.139 170.996C571.406 170.846 571.619 170.626 571.776 170.336C571.933 170.045 572.012 169.691 572.012 169.274C572.012 168.653 571.847 168.178 571.516 167.847C571.194 167.509 570.797 167.34 570.325 167.34C569.854 167.34 569.457 167.509 569.134 167.847C568.82 168.178 568.663 168.653 568.663 169.274C568.663 169.895 568.816 170.375 569.123 170.713C569.437 171.043 569.83 171.208 570.302 171.208ZM574.496 169.251C574.496 168.59 574.626 168.005 574.885 167.494C575.153 166.983 575.51 166.59 575.958 166.314C576.414 166.039 576.921 165.902 577.48 165.902C577.967 165.902 578.392 166 578.753 166.196C579.123 166.393 579.418 166.641 579.638 166.939V166.008H581.3V172.541H579.638V171.585C579.425 171.892 579.131 172.148 578.753 172.352C578.384 172.549 577.955 172.647 577.468 172.647C576.918 172.647 576.414 172.505 575.958 172.222C575.51 171.939 575.153 171.542 574.885 171.031C574.626 170.512 574.496 169.919 574.496 169.251ZM579.638 169.274C579.638 168.873 579.559 168.531 579.402 168.248C579.245 167.957 579.032 167.737 578.765 167.588C578.498 167.431 578.211 167.352 577.904 167.352C577.598 167.352 577.315 167.427 577.055 167.576C576.796 167.725 576.583 167.946 576.418 168.236C576.261 168.52 576.183 168.858 576.183 169.251C576.183 169.644 576.261 169.99 576.418 170.288C576.583 170.579 576.796 170.803 577.055 170.96C577.322 171.118 577.605 171.196 577.904 171.196C578.211 171.196 578.498 171.122 578.765 170.972C579.032 170.815 579.245 170.595 579.402 170.312C579.559 170.021 579.638 169.675 579.638 169.274ZM576.006 165.383C576.076 164.864 576.238 164.479 576.489 164.227C576.749 163.968 577.075 163.838 577.468 163.838C577.633 163.838 577.778 163.866 577.904 163.921C578.03 163.968 578.171 164.038 578.329 164.133C578.565 164.282 578.761 164.357 578.918 164.357C579.209 164.357 579.378 164.188 579.425 163.85H580.31C580.239 164.369 580.074 164.758 579.815 165.017C579.563 165.269 579.241 165.395 578.848 165.395C578.682 165.395 578.537 165.371 578.411 165.324C578.285 165.269 578.144 165.194 577.987 165.1C577.759 164.943 577.562 164.864 577.397 164.864C577.106 164.864 576.933 165.037 576.878 165.383H576.006ZM585.814 172.647C585.185 172.647 584.619 172.509 584.116 172.234C583.612 171.951 583.215 171.554 582.925 171.043C582.642 170.532 582.5 169.942 582.5 169.274C582.5 168.606 582.645 168.016 582.936 167.505C583.235 166.994 583.64 166.601 584.151 166.326C584.662 166.043 585.232 165.902 585.861 165.902C586.49 165.902 587.06 166.043 587.571 166.326C588.082 166.601 588.483 166.994 588.773 167.505C589.072 168.016 589.222 168.606 589.222 169.274C589.222 169.942 589.068 170.532 588.762 171.043C588.463 171.554 588.054 171.951 587.535 172.234C587.024 172.509 586.45 172.647 585.814 172.647ZM585.814 171.208C586.112 171.208 586.391 171.137 586.651 170.996C586.918 170.846 587.13 170.626 587.288 170.336C587.445 170.045 587.523 169.691 587.523 169.274C587.523 168.653 587.358 168.178 587.028 167.847C586.706 167.509 586.309 167.34 585.837 167.34C585.366 167.34 584.969 167.509 584.646 167.847C584.332 168.178 584.174 168.653 584.174 169.274C584.174 169.895 584.328 170.375 584.634 170.713C584.949 171.043 585.342 171.208 585.814 171.208ZM597.912 168.319C598.376 168.406 598.757 168.637 599.056 169.015C599.355 169.392 599.504 169.825 599.504 170.312C599.504 170.752 599.394 171.141 599.174 171.479C598.962 171.81 598.651 172.069 598.242 172.258C597.834 172.446 597.35 172.541 596.792 172.541H593.242V164.31H596.639C597.197 164.31 597.676 164.4 598.077 164.581C598.486 164.762 598.793 165.013 598.997 165.336C599.209 165.658 599.315 166.023 599.315 166.432C599.315 166.912 599.186 167.313 598.926 167.635C598.675 167.957 598.337 168.185 597.912 168.319ZM594.893 167.706H596.403C596.796 167.706 597.099 167.619 597.311 167.446C597.523 167.266 597.629 167.01 597.629 166.68C597.629 166.35 597.523 166.094 597.311 165.913C597.099 165.733 596.796 165.642 596.403 165.642H594.893V167.706ZM596.556 171.196C596.957 171.196 597.268 171.102 597.488 170.913C597.716 170.725 597.83 170.457 597.83 170.111C597.83 169.758 597.712 169.483 597.476 169.286C597.24 169.082 596.922 168.979 596.521 168.979H594.893V171.196H596.556ZM600.395 169.251C600.395 168.59 600.525 168.005 600.784 167.494C601.052 166.983 601.409 166.59 601.858 166.314C602.314 166.039 602.821 165.902 603.379 165.902C603.866 165.902 604.291 166 604.652 166.196C605.022 166.393 605.317 166.641 605.537 166.939V166.008H607.199V172.541H605.537V171.585C605.324 171.892 605.03 172.148 604.652 172.352C604.283 172.549 603.854 172.647 603.367 172.647C602.817 172.647 602.314 172.505 601.858 172.222C601.409 171.939 601.052 171.542 600.784 171.031C600.525 170.512 600.395 169.919 600.395 169.251ZM605.537 169.274C605.537 168.873 605.458 168.531 605.301 168.248C605.144 167.957 604.931 167.737 604.664 167.588C604.397 167.431 604.11 167.352 603.803 167.352C603.497 167.352 603.214 167.427 602.954 167.576C602.695 167.725 602.483 167.946 602.317 168.236C602.16 168.52 602.082 168.858 602.082 169.251C602.082 169.644 602.16 169.99 602.317 170.288C602.483 170.579 602.695 170.803 602.954 170.96C603.222 171.118 603.505 171.196 603.803 171.196C604.11 171.196 604.397 171.122 604.664 170.972C604.931 170.815 605.144 170.595 605.301 170.312C605.458 170.021 605.537 169.675 605.537 169.274ZM610.734 167.364V170.524C610.734 170.744 610.785 170.905 610.887 171.008C610.997 171.102 611.178 171.149 611.43 171.149H612.196V172.541H611.159C609.767 172.541 609.071 171.865 609.071 170.512V167.364H608.293V166.008H609.071V164.392H610.734V166.008H612.196V167.364H610.734ZM614.221 165.229C613.93 165.229 613.686 165.139 613.49 164.958C613.301 164.77 613.207 164.538 613.207 164.263C613.207 163.987 613.301 163.759 613.49 163.579C613.686 163.39 613.93 163.296 614.221 163.296C614.512 163.296 614.752 163.39 614.94 163.579C615.137 163.759 615.235 163.987 615.235 164.263C615.235 164.538 615.137 164.77 614.94 164.958C614.752 165.139 614.512 165.229 614.221 165.229ZM615.035 166.008V172.541H613.384V166.008H615.035ZM619.166 172.647C618.631 172.647 618.151 172.552 617.727 172.364C617.302 172.167 616.964 171.904 616.713 171.574C616.469 171.244 616.335 170.878 616.312 170.477H617.975C618.006 170.729 618.128 170.937 618.34 171.102C618.56 171.267 618.832 171.35 619.154 171.35C619.468 171.35 619.712 171.287 619.885 171.161C620.066 171.035 620.156 170.874 620.156 170.677C620.156 170.465 620.046 170.308 619.826 170.206C619.614 170.096 619.272 169.978 618.8 169.852C618.313 169.734 617.912 169.612 617.597 169.486C617.291 169.361 617.023 169.168 616.795 168.909C616.575 168.649 616.465 168.299 616.465 167.859C616.465 167.498 616.567 167.167 616.772 166.869C616.984 166.57 617.283 166.334 617.668 166.161C618.061 165.988 618.521 165.902 619.048 165.902C619.826 165.902 620.447 166.098 620.911 166.491C621.375 166.876 621.63 167.399 621.677 168.06H620.097C620.074 167.8 619.964 167.596 619.767 167.446C619.578 167.289 619.323 167.211 619.001 167.211C618.702 167.211 618.47 167.266 618.305 167.376C618.148 167.486 618.069 167.639 618.069 167.836C618.069 168.056 618.179 168.225 618.399 168.343C618.619 168.453 618.961 168.567 619.425 168.685C619.897 168.803 620.286 168.924 620.592 169.05C620.899 169.176 621.162 169.372 621.383 169.64C621.611 169.899 621.728 170.245 621.736 170.677C621.736 171.055 621.63 171.393 621.418 171.692C621.214 171.99 620.915 172.226 620.522 172.399C620.137 172.564 619.684 172.647 619.166 172.647ZM625.014 167.364V170.524C625.014 170.744 625.065 170.905 625.167 171.008C625.277 171.102 625.458 171.149 625.709 171.149H626.476V172.541H625.438C624.047 172.541 623.351 171.865 623.351 170.512V167.364H622.573V166.008H623.351V164.392H625.014V166.008H626.476V167.364H625.014ZM627.239 169.251C627.239 168.59 627.368 168.005 627.628 167.494C627.895 166.983 628.253 166.59 628.701 166.314C629.157 166.039 629.664 165.902 630.222 165.902C630.71 165.902 631.134 166 631.496 166.196C631.865 166.393 632.16 166.641 632.38 166.939V166.008H634.043V172.541H632.38V171.585C632.168 171.892 631.873 172.148 631.496 172.352C631.126 172.549 630.698 172.647 630.21 172.647C629.66 172.647 629.157 172.505 628.701 172.222C628.253 171.939 627.895 171.542 627.628 171.031C627.368 170.512 627.239 169.919 627.239 169.251ZM632.38 169.274C632.38 168.873 632.302 168.531 632.144 168.248C631.987 167.957 631.775 167.737 631.508 167.588C631.24 167.431 630.953 167.352 630.647 167.352C630.34 167.352 630.057 167.427 629.798 167.576C629.538 167.725 629.326 167.946 629.161 168.236C629.004 168.52 628.925 168.858 628.925 169.251C628.925 169.644 629.004 169.99 629.161 170.288C629.326 170.579 629.538 170.803 629.798 170.96C630.065 171.118 630.348 171.196 630.647 171.196C630.953 171.196 631.24 171.122 631.508 170.972C631.775 170.815 631.987 170.595 632.144 170.312C632.302 170.021 632.38 169.675 632.38 169.274ZM637.46 170.807L636.08 174.121H635.019L635.785 170.807H637.46ZM645.079 165.913C645.858 165.913 646.487 166.161 646.966 166.656C647.446 167.144 647.686 167.828 647.686 168.708V172.541H646.035V168.932C646.035 168.413 645.905 168.016 645.646 167.741C645.386 167.458 645.032 167.317 644.584 167.317C644.128 167.317 643.767 167.458 643.499 167.741C643.24 168.016 643.11 168.413 643.11 168.932V172.541H641.459V166.008H643.11V166.821C643.33 166.538 643.609 166.318 643.947 166.161C644.293 165.996 644.671 165.913 645.079 165.913ZM648.76 166.326C648.76 165.682 648.972 165.171 649.397 164.793C649.829 164.416 650.388 164.227 651.072 164.227C651.748 164.227 652.298 164.42 652.722 164.805C653.147 165.182 653.359 165.689 653.359 166.326C653.359 166.971 653.143 167.486 652.711 167.871C652.286 168.256 651.732 168.449 651.048 168.449C650.372 168.449 649.822 168.256 649.397 167.871C648.972 167.486 648.76 166.971 648.76 166.326ZM652.062 166.338C652.062 165.953 651.964 165.658 651.767 165.454C651.571 165.241 651.331 165.135 651.048 165.135C650.773 165.135 650.537 165.241 650.34 165.454C650.144 165.658 650.046 165.953 650.046 166.338C650.046 166.715 650.14 167.006 650.329 167.211C650.525 167.415 650.765 167.517 651.048 167.517C651.323 167.517 651.559 167.415 651.755 167.211C651.96 167.006 652.062 166.715 652.062 166.338ZM657.635 170.677C658.39 170.049 658.991 169.526 659.439 169.109C659.888 168.685 660.261 168.244 660.56 167.788C660.858 167.332 661.008 166.884 661.008 166.444C661.008 166.043 660.913 165.729 660.725 165.501C660.536 165.273 660.245 165.159 659.852 165.159C659.459 165.159 659.156 165.292 658.944 165.56C658.732 165.819 658.622 166.177 658.614 166.633H657.01C657.042 165.689 657.321 164.974 657.848 164.487C658.382 163.999 659.058 163.755 659.876 163.755C660.772 163.755 661.46 163.995 661.939 164.475C662.419 164.946 662.659 165.571 662.659 166.35C662.659 166.963 662.494 167.549 662.163 168.107C661.833 168.665 661.456 169.152 661.031 169.569C660.607 169.978 660.053 170.473 659.369 171.055H662.847V172.423H657.022V171.196L657.635 170.677ZM664.407 170.677C665.161 170.049 665.763 169.526 666.211 169.109C666.659 168.685 667.032 168.244 667.331 167.788C667.63 167.332 667.779 166.884 667.779 166.444C667.779 166.043 667.685 165.729 667.496 165.501C667.307 165.273 667.017 165.159 666.624 165.159C666.23 165.159 665.928 165.292 665.716 165.56C665.503 165.819 665.393 166.177 665.385 166.633H663.782C663.813 165.689 664.092 164.974 664.619 164.487C665.153 163.999 665.83 163.755 666.647 163.755C667.543 163.755 668.231 163.995 668.711 164.475C669.19 164.946 669.43 165.571 669.43 166.35C669.43 166.963 669.265 167.549 668.935 168.107C668.605 168.665 668.227 169.152 667.803 169.569C667.378 169.978 666.824 170.473 666.14 171.055H669.619V172.423H663.793V171.196L664.407 170.677ZM670.588 170.866V169.569L674.444 164.05H676.366V169.428H677.404V170.866H676.366V172.541H674.716V170.866H670.588ZM674.822 165.819L672.404 169.428H674.822V165.819ZM680.448 170.807L679.068 174.121H678.007L678.774 170.807H680.448ZM689.118 168.319C689.581 168.406 689.963 168.637 690.261 169.015C690.56 169.392 690.71 169.825 690.71 170.312C690.71 170.752 690.6 171.141 690.379 171.479C690.167 171.81 689.857 172.069 689.448 172.258C689.039 172.446 688.556 172.541 687.997 172.541H684.448V164.31H687.844C688.402 164.31 688.882 164.4 689.283 164.581C689.692 164.762 689.998 165.013 690.203 165.336C690.415 165.658 690.521 166.023 690.521 166.432C690.521 166.912 690.391 167.313 690.132 167.635C689.88 167.957 689.542 168.185 689.118 168.319ZM686.099 167.706H687.608C688.001 167.706 688.304 167.619 688.516 167.446C688.729 167.266 688.835 167.01 688.835 166.68C688.835 166.35 688.729 166.094 688.516 165.913C688.304 165.733 688.001 165.642 687.608 165.642H686.099V167.706ZM687.762 171.196C688.162 171.196 688.473 171.102 688.693 170.913C688.921 170.725 689.035 170.457 689.035 170.111C689.035 169.758 688.917 169.483 688.681 169.286C688.445 169.082 688.127 168.979 687.726 168.979H686.099V171.196H687.762ZM691.601 169.251C691.601 168.59 691.731 168.005 691.99 167.494C692.257 166.983 692.615 166.59 693.063 166.314C693.519 166.039 694.026 165.902 694.584 165.902C695.072 165.902 695.496 166 695.858 166.196C696.227 166.393 696.522 166.641 696.742 166.939V166.008H698.405V172.541H696.742V171.585C696.53 171.892 696.235 172.148 695.858 172.352C695.488 172.549 695.06 172.647 694.572 172.647C694.022 172.647 693.519 172.505 693.063 172.222C692.615 171.939 692.257 171.542 691.99 171.031C691.731 170.512 691.601 169.919 691.601 169.251ZM696.742 169.274C696.742 168.873 696.664 168.531 696.506 168.248C696.349 167.957 696.137 167.737 695.87 167.588C695.602 167.431 695.315 167.352 695.009 167.352C694.702 167.352 694.419 167.427 694.16 167.576C693.9 167.725 693.688 167.946 693.523 168.236C693.366 168.52 693.287 168.858 693.287 169.251C693.287 169.644 693.366 169.99 693.523 170.288C693.688 170.579 693.9 170.803 694.16 170.96C694.427 171.118 694.71 171.196 695.009 171.196C695.315 171.196 695.602 171.122 695.87 170.972C696.137 170.815 696.349 170.595 696.506 170.312C696.664 170.021 696.742 169.675 696.742 169.274ZM700.855 165.229C700.564 165.229 700.32 165.139 700.123 164.958C699.935 164.77 699.84 164.538 699.84 164.263C699.84 163.987 699.935 163.759 700.123 163.579C700.32 163.39 700.564 163.296 700.855 163.296C701.145 163.296 701.385 163.39 701.574 163.579C701.77 163.759 701.869 163.987 701.869 164.263C701.869 164.538 701.77 164.77 701.574 164.958C701.385 165.139 701.145 165.229 700.855 165.229ZM701.668 166.008V172.541H700.017V166.008H701.668ZM704.95 167.022C705.163 166.676 705.438 166.405 705.776 166.208C706.122 166.012 706.515 165.913 706.955 165.913V167.647H706.519C706 167.647 705.607 167.769 705.339 168.012C705.08 168.256 704.95 168.681 704.95 169.286V172.541H703.299V166.008H704.95V167.022ZM709.718 167.022C709.93 166.676 710.205 166.405 710.543 166.208C710.889 166.012 711.282 165.913 711.723 165.913V167.647H711.286C710.767 167.647 710.374 167.769 710.107 168.012C709.848 168.256 709.718 168.681 709.718 169.286V172.541H708.067V166.008H709.718V167.022ZM715.735 172.647C715.106 172.647 714.54 172.509 714.037 172.234C713.534 171.951 713.137 171.554 712.846 171.043C712.563 170.532 712.422 169.942 712.422 169.274C712.422 168.606 712.567 168.016 712.858 167.505C713.157 166.994 713.562 166.601 714.073 166.326C714.584 166.043 715.154 165.902 715.783 165.902C716.411 165.902 716.981 166.043 717.492 166.326C718.003 166.601 718.404 166.994 718.695 167.505C718.994 168.016 719.143 168.606 719.143 169.274C719.143 169.942 718.99 170.532 718.683 171.043C718.385 171.554 717.976 171.951 717.457 172.234C716.946 172.509 716.372 172.647 715.735 172.647ZM715.735 171.208C716.034 171.208 716.313 171.137 716.573 170.996C716.84 170.846 717.052 170.626 717.209 170.336C717.367 170.045 717.445 169.691 717.445 169.274C717.445 168.653 717.28 168.178 716.95 167.847C716.628 167.509 716.231 167.34 715.759 167.34C715.287 167.34 714.89 167.509 714.568 167.847C714.253 168.178 714.096 168.653 714.096 169.274C714.096 169.895 714.25 170.375 714.556 170.713C714.871 171.043 715.264 171.208 715.735 171.208ZM721.085 172.623C720.787 172.623 720.539 172.533 720.343 172.352C720.154 172.163 720.06 171.931 720.06 171.656C720.06 171.381 720.154 171.153 720.343 170.972C720.539 170.784 720.787 170.689 721.085 170.689C721.376 170.689 721.616 170.784 721.805 170.972C721.993 171.153 722.088 171.381 722.088 171.656C722.088 171.931 721.993 172.163 721.805 172.352C721.616 172.533 721.376 172.623 721.085 172.623ZM721.085 167.741C720.787 167.741 720.539 167.651 720.343 167.47C720.154 167.281 720.06 167.049 720.06 166.774C720.06 166.499 720.154 166.271 720.343 166.09C720.539 165.902 720.787 165.807 721.085 165.807C721.376 165.807 721.616 165.902 721.805 166.09C721.993 166.271 722.088 166.499 722.088 166.774C722.088 167.049 721.993 167.281 721.805 167.47C721.616 167.651 721.376 167.741 721.085 167.741ZM482.911 186.413C482.911 185.604 483.092 184.88 483.454 184.244C483.823 183.599 484.322 183.1 484.951 182.746C485.588 182.384 486.3 182.204 487.086 182.204C488.006 182.204 488.811 182.439 489.503 182.911C490.195 183.383 490.678 184.035 490.954 184.869H489.055C488.866 184.476 488.599 184.181 488.253 183.984C487.915 183.788 487.522 183.689 487.074 183.689C486.594 183.689 486.166 183.803 485.789 184.031C485.419 184.251 485.128 184.566 484.916 184.975C484.712 185.384 484.609 185.863 484.609 186.413C484.609 186.956 484.712 187.435 484.916 187.852C485.128 188.261 485.419 188.579 485.789 188.807C486.166 189.027 486.594 189.137 487.074 189.137C487.522 189.137 487.915 189.039 488.253 188.843C488.599 188.638 488.866 188.339 489.055 187.946H490.954C490.678 188.788 490.195 189.444 489.503 189.916C488.819 190.379 488.013 190.611 487.086 190.611C486.3 190.611 485.588 190.435 484.951 190.081C484.322 189.719 483.823 189.22 483.454 188.583C483.092 187.946 482.911 187.223 482.911 186.413ZM498.437 187.133C498.437 187.369 498.421 187.581 498.389 187.769H493.614C493.653 188.241 493.818 188.611 494.109 188.878C494.4 189.145 494.757 189.279 495.182 189.279C495.795 189.279 496.232 189.016 496.491 188.489H498.272C498.083 189.118 497.721 189.637 497.187 190.045C496.652 190.446 495.996 190.647 495.217 190.647C494.588 190.647 494.022 190.509 493.519 190.234C493.024 189.951 492.635 189.554 492.352 189.043C492.077 188.532 491.939 187.942 491.939 187.274C491.939 186.598 492.077 186.005 492.352 185.494C492.627 184.983 493.012 184.59 493.507 184.314C494.003 184.039 494.573 183.902 495.217 183.902C495.838 183.902 496.393 184.035 496.88 184.303C497.375 184.57 497.757 184.951 498.024 185.446C498.299 185.934 498.437 186.496 498.437 187.133ZM496.727 186.661C496.719 186.236 496.566 185.898 496.267 185.647C495.968 185.387 495.603 185.258 495.17 185.258C494.761 185.258 494.415 185.384 494.132 185.635C493.857 185.879 493.688 186.221 493.625 186.661H496.727ZM503.262 183.913C504.04 183.913 504.669 184.161 505.149 184.656C505.628 185.144 505.868 185.828 505.868 186.708V190.541H504.217V186.932C504.217 186.413 504.087 186.016 503.828 185.741C503.568 185.458 503.215 185.317 502.767 185.317C502.311 185.317 501.949 185.458 501.682 185.741C501.422 186.016 501.293 186.413 501.293 186.932V190.541H499.642V184.008H501.293V184.821C501.513 184.538 501.792 184.318 502.13 184.161C502.476 183.996 502.853 183.913 503.262 183.913ZM509.36 185.364V188.524C509.36 188.744 509.411 188.905 509.513 189.008C509.623 189.102 509.804 189.149 510.056 189.149H510.822V190.541H509.785C508.393 190.541 507.697 189.865 507.697 188.512V185.364H506.919V184.008H507.697V182.392H509.36V184.008H510.822V185.364H509.36ZM513.661 185.022C513.873 184.676 514.148 184.405 514.486 184.208C514.832 184.012 515.225 183.913 515.665 183.913V185.647H515.229C514.71 185.647 514.317 185.769 514.05 186.012C513.79 186.256 513.661 186.681 513.661 187.286V190.541H512.01V184.008H513.661V185.022ZM519.678 190.647C519.049 190.647 518.483 190.509 517.98 190.234C517.477 189.951 517.08 189.554 516.789 189.043C516.506 188.532 516.365 187.942 516.365 187.274C516.365 186.606 516.51 186.016 516.801 185.505C517.1 184.994 517.504 184.601 518.015 184.326C518.526 184.043 519.096 183.902 519.725 183.902C520.354 183.902 520.924 184.043 521.435 184.326C521.946 184.601 522.347 184.994 522.638 185.505C522.937 186.016 523.086 186.606 523.086 187.274C523.086 187.942 522.933 188.532 522.626 189.043C522.327 189.554 521.919 189.951 521.4 190.234C520.889 190.509 520.315 190.647 519.678 190.647ZM519.678 189.208C519.977 189.208 520.256 189.137 520.515 188.996C520.783 188.846 520.995 188.626 521.152 188.336C521.309 188.045 521.388 187.691 521.388 187.274C521.388 186.653 521.223 186.178 520.893 185.847C520.57 185.509 520.173 185.34 519.702 185.34C519.23 185.34 518.833 185.509 518.511 185.847C518.196 186.178 518.039 186.653 518.039 187.274C518.039 187.895 518.192 188.375 518.499 188.713C518.813 189.043 519.206 189.208 519.678 189.208ZM532.13 185.635V187.027H527.131V185.635H532.13ZM536.391 186.413C536.391 185.604 536.572 184.88 536.933 184.244C537.303 183.599 537.802 183.1 538.431 182.746C539.068 182.384 539.779 182.204 540.565 182.204C541.485 182.204 542.291 182.439 542.983 182.911C543.675 183.383 544.158 184.035 544.433 184.869H542.535C542.346 184.476 542.079 184.181 541.733 183.984C541.395 183.788 541.002 183.689 540.553 183.689C540.074 183.689 539.645 183.803 539.268 184.031C538.899 184.251 538.608 184.566 538.396 184.975C538.191 185.384 538.089 185.863 538.089 186.413C538.089 186.956 538.191 187.435 538.396 187.852C538.608 188.261 538.899 188.579 539.268 188.807C539.645 189.027 540.074 189.137 540.553 189.137C541.002 189.137 541.395 189.039 541.733 188.843C542.079 188.638 542.346 188.339 542.535 187.946H544.433C544.158 188.788 543.675 189.444 542.983 189.916C542.299 190.379 541.493 190.611 540.565 190.611C539.779 190.611 539.068 190.435 538.431 190.081C537.802 189.719 537.303 189.22 536.933 188.583C536.572 187.946 536.391 187.223 536.391 186.413ZM547.494 183.642V185.706H550.265V187.015H547.494V189.196H550.619V190.541H545.843V182.298H550.619V183.642H547.494ZM558.122 184.857C558.122 185.297 558.015 185.71 557.803 186.095C557.599 186.48 557.273 186.791 556.824 187.027C556.384 187.262 555.826 187.38 555.15 187.38H553.77V190.541H552.119V182.31H555.15C555.787 182.31 556.329 182.42 556.777 182.64C557.225 182.86 557.56 183.163 557.78 183.548C558.008 183.933 558.122 184.369 558.122 184.857ZM555.079 186.048C555.535 186.048 555.873 185.946 556.093 185.741C556.313 185.529 556.424 185.234 556.424 184.857C556.424 184.055 555.975 183.654 555.079 183.654H553.77V186.048H555.079ZM560.025 190.623C559.726 190.623 559.478 190.533 559.282 190.352C559.093 190.163 558.999 189.931 558.999 189.656C558.999 189.381 559.093 189.153 559.282 188.972C559.478 188.784 559.726 188.689 560.025 188.689C560.316 188.689 560.556 188.784 560.744 188.972C560.933 189.153 561.027 189.381 561.027 189.656C561.027 189.931 560.933 190.163 560.744 190.352C560.556 190.533 560.316 190.623 560.025 190.623ZM560.025 185.741C559.726 185.741 559.478 185.651 559.282 185.47C559.093 185.281 558.999 185.049 558.999 184.774C558.999 184.499 559.093 184.271 559.282 184.09C559.478 183.902 559.726 183.807 560.025 183.807C560.316 183.807 560.556 183.902 560.744 184.09C560.933 184.271 561.027 184.499 561.027 184.774C561.027 185.049 560.933 185.281 560.744 185.47C560.556 185.651 560.316 185.741 560.025 185.741ZM564.812 183.465V181.944H567.654V190.541H565.956V183.465H564.812ZM570.724 185.989C569.938 185.58 569.544 184.947 569.544 184.09C569.544 183.666 569.651 183.281 569.863 182.935C570.083 182.581 570.409 182.302 570.842 182.097C571.282 181.885 571.816 181.779 572.445 181.779C573.074 181.779 573.605 181.885 574.037 182.097C574.478 182.302 574.804 182.581 575.016 182.935C575.236 183.281 575.346 183.666 575.346 184.09C575.346 184.523 575.24 184.904 575.028 185.234C574.816 185.556 574.533 185.808 574.179 185.989C574.611 186.178 574.949 186.453 575.193 186.814C575.437 187.176 575.559 187.604 575.559 188.1C575.559 188.634 575.421 189.102 575.146 189.503C574.879 189.896 574.509 190.199 574.037 190.411C573.566 190.623 573.035 190.729 572.445 190.729C571.856 190.729 571.325 190.623 570.853 190.411C570.39 190.199 570.02 189.896 569.745 189.503C569.478 189.102 569.344 188.634 569.344 188.1C569.344 187.604 569.466 187.176 569.71 186.814C569.953 186.445 570.291 186.17 570.724 185.989ZM573.743 184.326C573.743 183.941 573.625 183.642 573.389 183.43C573.161 183.218 572.846 183.112 572.445 183.112C572.052 183.112 571.738 183.218 571.502 183.43C571.274 183.642 571.16 183.945 571.16 184.338C571.16 184.692 571.278 184.975 571.514 185.187C571.758 185.399 572.068 185.505 572.445 185.505C572.823 185.505 573.133 185.399 573.377 185.187C573.621 184.967 573.743 184.68 573.743 184.326ZM572.445 186.708C571.997 186.708 571.632 186.822 571.349 187.05C571.074 187.278 570.936 187.604 570.936 188.029C570.936 188.422 571.07 188.744 571.337 188.996C571.612 189.24 571.982 189.361 572.445 189.361C572.909 189.361 573.275 189.236 573.542 188.984C573.809 188.733 573.943 188.414 573.943 188.029C573.943 187.612 573.805 187.29 573.53 187.062C573.255 186.826 572.893 186.708 572.445 186.708ZM577.782 190.623C577.484 190.623 577.236 190.533 577.039 190.352C576.851 190.163 576.756 189.931 576.756 189.656C576.756 189.381 576.851 189.153 577.039 188.972C577.236 188.784 577.484 188.689 577.782 188.689C578.073 188.689 578.313 188.784 578.502 188.972C578.69 189.153 578.785 189.381 578.785 189.656C578.785 189.931 578.69 190.163 578.502 190.352C578.313 190.533 578.073 190.623 577.782 190.623ZM584.383 184.09C584.305 183.76 584.167 183.512 583.97 183.347C583.782 183.182 583.507 183.1 583.145 183.1C582.603 183.1 582.202 183.32 581.942 183.76C581.691 184.193 581.561 184.9 581.553 185.883C581.742 185.568 582.017 185.325 582.378 185.152C582.74 184.971 583.133 184.88 583.558 184.88C584.069 184.88 584.521 184.99 584.914 185.211C585.307 185.431 585.613 185.753 585.834 186.178C586.054 186.594 586.164 187.097 586.164 187.687C586.164 188.245 586.05 188.744 585.822 189.185C585.602 189.617 585.275 189.955 584.843 190.199C584.411 190.442 583.896 190.564 583.298 190.564C582.481 190.564 581.836 190.383 581.364 190.022C580.901 189.66 580.574 189.157 580.386 188.512C580.205 187.86 580.114 187.058 580.114 186.107C580.114 184.668 580.362 183.583 580.857 182.852C581.353 182.113 582.135 181.744 583.204 181.744C584.029 181.744 584.67 181.968 585.126 182.416C585.582 182.864 585.845 183.422 585.916 184.09H584.383ZM583.18 186.236C582.764 186.236 582.414 186.358 582.131 186.602C581.848 186.846 581.706 187.2 581.706 187.663C581.706 188.127 581.836 188.493 582.095 188.76C582.363 189.027 582.736 189.161 583.216 189.161C583.64 189.161 583.974 189.031 584.218 188.772C584.47 188.512 584.595 188.163 584.595 187.722C584.595 187.266 584.474 186.905 584.23 186.637C583.994 186.37 583.644 186.236 583.18 186.236ZM591.926 184.09C591.847 183.76 591.71 183.512 591.513 183.347C591.325 183.182 591.049 183.1 590.688 183.1C590.145 183.1 589.744 183.32 589.485 183.76C589.233 184.193 589.104 184.9 589.096 185.883C589.285 185.568 589.56 185.325 589.921 185.152C590.283 184.971 590.676 184.88 591.101 184.88C591.612 184.88 592.064 184.99 592.457 185.211C592.85 185.431 593.156 185.753 593.376 186.178C593.597 186.594 593.707 187.097 593.707 187.687C593.707 188.245 593.593 188.744 593.365 189.185C593.145 189.617 592.818 189.955 592.386 190.199C591.954 190.442 591.439 190.564 590.841 190.564C590.024 190.564 589.379 190.383 588.907 190.022C588.443 189.66 588.117 189.157 587.928 188.512C587.748 187.86 587.657 187.058 587.657 186.107C587.657 184.668 587.905 183.583 588.4 182.852C588.895 182.113 589.678 181.744 590.747 181.744C591.572 181.744 592.213 181.968 592.669 182.416C593.125 182.864 593.388 183.422 593.459 184.09H591.926ZM590.723 186.236C590.307 186.236 589.957 186.358 589.674 186.602C589.391 186.846 589.249 187.2 589.249 187.663C589.249 188.127 589.379 188.493 589.638 188.76C589.906 189.027 590.279 189.161 590.759 189.161C591.183 189.161 591.517 189.031 591.761 188.772C592.013 188.512 592.138 188.163 592.138 187.722C592.138 187.266 592.016 186.905 591.773 186.637C591.537 186.37 591.187 186.236 590.723 186.236ZM595.011 186.13C595.011 184.77 595.255 183.705 595.743 182.935C596.238 182.164 597.055 181.779 598.195 181.779C599.335 181.779 600.149 182.164 600.636 182.935C601.132 183.705 601.379 184.77 601.379 186.13C601.379 187.498 601.132 188.571 600.636 189.35C600.149 190.128 599.335 190.517 598.195 190.517C597.055 190.517 596.238 190.128 595.743 189.35C595.255 188.571 595.011 187.498 595.011 186.13ZM599.752 186.13C599.752 185.549 599.713 185.061 599.634 184.668C599.563 184.267 599.414 183.941 599.186 183.689C598.966 183.438 598.636 183.312 598.195 183.312C597.755 183.312 597.421 183.438 597.193 183.689C596.973 183.941 596.824 184.267 596.745 184.668C596.674 185.061 596.639 185.549 596.639 186.13C596.639 186.728 596.674 187.231 596.745 187.64C596.816 188.041 596.965 188.367 597.193 188.619C597.421 188.862 597.755 188.984 598.195 188.984C598.636 188.984 598.97 188.862 599.198 188.619C599.426 188.367 599.575 188.041 599.646 187.64C599.717 187.231 599.752 186.728 599.752 186.13ZM607.847 185.635V187.027H602.847V185.635H607.847ZM609.51 186.13C609.51 184.77 609.754 183.705 610.241 182.935C610.736 182.164 611.554 181.779 612.694 181.779C613.834 181.779 614.647 182.164 615.135 182.935C615.63 183.705 615.878 184.77 615.878 186.13C615.878 187.498 615.63 188.571 615.135 189.35C614.647 190.128 613.834 190.517 612.694 190.517C611.554 190.517 610.736 190.128 610.241 189.35C609.754 188.571 609.51 187.498 609.51 186.13ZM614.25 186.13C614.25 185.549 614.211 185.061 614.132 184.668C614.062 184.267 613.912 183.941 613.684 183.689C613.464 183.438 613.134 183.312 612.694 183.312C612.254 183.312 611.919 183.438 611.691 183.689C611.471 183.941 611.322 184.267 611.243 184.668C611.173 185.061 611.137 185.549 611.137 186.13C611.137 186.728 611.173 187.231 611.243 187.64C611.314 188.041 611.463 188.367 611.691 188.619C611.919 188.862 612.254 188.984 612.694 188.984C613.134 188.984 613.468 188.862 613.696 188.619C613.924 188.367 614.073 188.041 614.144 187.64C614.215 187.231 614.25 186.728 614.25 186.13ZM617.652 188.677C618.407 188.049 619.008 187.526 619.456 187.109C619.905 186.685 620.278 186.244 620.577 185.788C620.875 185.332 621.025 184.884 621.025 184.444C621.025 184.043 620.93 183.729 620.742 183.501C620.553 183.273 620.262 183.159 619.869 183.159C619.476 183.159 619.173 183.292 618.961 183.56C618.749 183.819 618.639 184.177 618.631 184.633H617.027C617.059 183.689 617.338 182.974 617.865 182.487C618.399 181.999 619.075 181.755 619.893 181.755C620.789 181.755 621.477 181.995 621.956 182.475C622.436 182.946 622.676 183.571 622.676 184.35C622.676 184.963 622.511 185.549 622.18 186.107C621.85 186.665 621.473 187.152 621.048 187.569C620.624 187.978 620.07 188.473 619.386 189.055H622.864V190.423H617.039V189.196L617.652 188.677ZM628.362 184.09C628.284 183.76 628.146 183.512 627.949 183.347C627.761 183.182 627.486 183.1 627.124 183.1C626.582 183.1 626.181 183.32 625.921 183.76C625.67 184.193 625.54 184.9 625.532 185.883C625.721 185.568 625.996 185.325 626.357 185.152C626.719 184.971 627.112 184.88 627.537 184.88C628.048 184.88 628.5 184.99 628.893 185.211C629.286 185.431 629.592 185.753 629.813 186.178C630.033 186.594 630.143 187.097 630.143 187.687C630.143 188.245 630.029 188.744 629.801 189.185C629.581 189.617 629.254 189.955 628.822 190.199C628.39 190.442 627.875 190.564 627.277 190.564C626.46 190.564 625.815 190.383 625.343 190.022C624.88 189.66 624.553 189.157 624.365 188.512C624.184 187.86 624.093 187.058 624.093 186.107C624.093 184.668 624.341 183.583 624.836 182.852C625.332 182.113 626.114 181.744 627.183 181.744C628.008 181.744 628.649 181.968 629.105 182.416C629.561 182.864 629.824 183.422 629.895 184.09H628.362ZM627.159 186.236C626.743 186.236 626.393 186.358 626.11 186.602C625.827 186.846 625.685 187.2 625.685 187.663C625.685 188.127 625.815 188.493 626.074 188.76C626.342 189.027 626.715 189.161 627.195 189.161C627.619 189.161 627.953 189.031 628.197 188.772C628.449 188.512 628.574 188.163 628.574 187.722C628.574 187.266 628.453 186.905 628.209 186.637C627.973 186.37 627.623 186.236 627.159 186.236ZM639.47 185.635V187.027H634.47V185.635H639.47ZM650.133 184.857C650.133 185.297 650.027 185.71 649.815 186.095C649.61 186.48 649.284 186.791 648.836 187.027C648.396 187.262 647.838 187.38 647.162 187.38H645.782V190.541H644.131V182.31H647.162C647.798 182.31 648.341 182.42 648.789 182.64C649.237 182.86 649.571 183.163 649.791 183.548C650.019 183.933 650.133 184.369 650.133 184.857ZM647.091 186.048C647.547 186.048 647.885 185.946 648.105 185.741C648.325 185.529 648.435 185.234 648.435 184.857C648.435 184.055 647.987 183.654 647.091 183.654H645.782V186.048H647.091ZM652.956 185.022C653.169 184.676 653.444 184.405 653.782 184.208C654.128 184.012 654.521 183.913 654.961 183.913V185.647H654.525C654.006 185.647 653.613 185.769 653.345 186.012C653.086 186.256 652.956 186.681 652.956 187.286V190.541H651.305V184.008H652.956V185.022ZM655.648 187.251C655.648 186.59 655.778 186.005 656.038 185.494C656.305 184.983 656.662 184.59 657.111 184.314C657.567 184.039 658.074 183.902 658.632 183.902C659.119 183.902 659.544 184 659.905 184.196C660.275 184.393 660.57 184.641 660.79 184.939V184.008H662.452V190.541H660.79V189.585C660.578 189.892 660.283 190.148 659.905 190.352C659.536 190.549 659.107 190.647 658.62 190.647C658.07 190.647 657.567 190.505 657.111 190.222C656.662 189.939 656.305 189.542 656.038 189.031C655.778 188.512 655.648 187.919 655.648 187.251ZM660.79 187.274C660.79 186.873 660.711 186.531 660.554 186.248C660.397 185.957 660.184 185.737 659.917 185.588C659.65 185.431 659.363 185.352 659.056 185.352C658.75 185.352 658.467 185.427 658.207 185.576C657.948 185.725 657.736 185.946 657.57 186.236C657.413 186.52 657.335 186.858 657.335 187.251C657.335 187.644 657.413 187.99 657.57 188.288C657.736 188.579 657.948 188.803 658.207 188.96C658.475 189.118 658.758 189.196 659.056 189.196C659.363 189.196 659.65 189.122 659.917 188.972C660.184 188.815 660.397 188.595 660.554 188.312C660.711 188.021 660.79 187.675 660.79 187.274ZM665.987 185.364V188.524C665.987 188.744 666.038 188.905 666.14 189.008C666.25 189.102 666.431 189.149 666.683 189.149H667.449V190.541H666.412C665.02 190.541 664.324 189.865 664.324 188.512V185.364H663.546V184.008H664.324V182.392H665.987V184.008H667.449V185.364H665.987ZM668.212 187.251C668.212 186.59 668.342 186.005 668.601 185.494C668.869 184.983 669.226 184.59 669.674 184.314C670.13 184.039 670.637 183.902 671.196 183.902C671.683 183.902 672.108 184 672.469 184.196C672.839 184.393 673.133 184.641 673.354 184.939V184.008H675.016V190.541H673.354V189.585C673.141 189.892 672.847 190.148 672.469 190.352C672.1 190.549 671.671 190.647 671.184 190.647C670.633 190.647 670.13 190.505 669.674 190.222C669.226 189.939 668.869 189.542 668.601 189.031C668.342 188.512 668.212 187.919 668.212 187.251ZM673.354 187.274C673.354 186.873 673.275 186.531 673.118 186.248C672.96 185.957 672.748 185.737 672.481 185.588C672.214 185.431 671.927 185.352 671.62 185.352C671.314 185.352 671.03 185.427 670.771 185.576C670.512 185.725 670.299 185.946 670.134 186.236C669.977 186.52 669.898 186.858 669.898 187.251C669.898 187.644 669.977 187.99 670.134 188.288C670.299 188.579 670.512 188.803 670.771 188.96C671.038 189.118 671.321 189.196 671.62 189.196C671.927 189.196 672.214 189.122 672.481 188.972C672.748 188.815 672.96 188.595 673.118 188.312C673.275 188.021 673.354 187.675 673.354 187.274ZM671.844 182.557L670.087 183.548V182.345L671.844 181.39L673.589 182.345V183.548L671.844 182.557ZM680.249 183.913C681.027 183.913 681.656 184.161 682.136 184.656C682.615 185.144 682.855 185.828 682.855 186.708V190.541H681.204V186.932C681.204 186.413 681.074 186.016 680.815 185.741C680.555 185.458 680.202 185.317 679.754 185.317C679.298 185.317 678.936 185.458 678.669 185.741C678.409 186.016 678.28 186.413 678.28 186.932V190.541H676.629V184.008H678.28V184.821C678.5 184.538 678.779 184.318 679.117 184.161C679.463 183.996 679.84 183.913 680.249 183.913ZM685.262 183.229C684.971 183.229 684.728 183.139 684.531 182.958C684.342 182.77 684.248 182.538 684.248 182.263C684.248 181.987 684.342 181.759 684.531 181.579C684.728 181.39 684.971 181.296 685.262 181.296C685.553 181.296 685.793 181.39 685.981 181.579C686.178 181.759 686.276 181.987 686.276 182.263C686.276 182.538 686.178 182.77 685.981 182.958C685.793 183.139 685.553 183.229 685.262 183.229ZM686.076 184.008V190.541H684.425V184.008H686.076ZM687.282 187.251C687.282 186.59 687.412 186.005 687.672 185.494C687.939 184.983 688.297 184.59 688.745 184.314C689.201 184.039 689.708 183.902 690.266 183.902C690.753 183.902 691.178 184 691.539 184.196C691.909 184.393 692.204 184.641 692.424 184.939V184.008H694.087V190.541H692.424V189.585C692.212 189.892 691.917 190.148 691.539 190.352C691.17 190.549 690.741 190.647 690.254 190.647C689.704 190.647 689.201 190.505 688.745 190.222C688.297 189.939 687.939 189.542 687.672 189.031C687.412 188.512 687.282 187.919 687.282 187.251ZM692.424 187.274C692.424 186.873 692.345 186.531 692.188 186.248C692.031 185.957 691.818 185.737 691.551 185.588C691.284 185.431 690.997 185.352 690.69 185.352C690.384 185.352 690.101 185.427 689.841 185.576C689.582 185.725 689.37 185.946 689.205 186.236C689.047 186.52 688.969 186.858 688.969 187.251C688.969 187.644 689.047 187.99 689.205 188.288C689.37 188.579 689.582 188.803 689.841 188.96C690.109 189.118 690.392 189.196 690.69 189.196C690.997 189.196 691.284 189.122 691.551 188.972C691.818 188.815 692.031 188.595 692.188 188.312C692.345 188.021 692.424 187.675 692.424 187.274ZM703.532 185.635V187.027H698.532V185.635H703.532ZM711.036 190.623C710.462 190.623 709.943 190.525 709.479 190.328C709.023 190.132 708.661 189.849 708.394 189.479C708.127 189.11 707.989 188.674 707.981 188.17H709.75C709.774 188.508 709.892 188.776 710.104 188.972C710.324 189.169 710.623 189.267 711 189.267C711.385 189.267 711.688 189.177 711.908 188.996C712.128 188.807 712.238 188.563 712.238 188.265C712.238 188.021 712.164 187.821 712.014 187.663C711.865 187.506 711.676 187.384 711.448 187.298C711.228 187.203 710.922 187.101 710.528 186.991C709.994 186.834 709.558 186.681 709.22 186.531C708.889 186.374 708.602 186.142 708.359 185.836C708.123 185.521 708.005 185.104 708.005 184.586C708.005 184.098 708.127 183.674 708.37 183.312C708.614 182.95 708.956 182.675 709.396 182.487C709.837 182.29 710.34 182.192 710.906 182.192C711.755 182.192 712.443 182.4 712.969 182.817C713.504 183.226 713.799 183.799 713.854 184.538H712.038C712.022 184.255 711.9 184.023 711.672 183.843C711.452 183.654 711.157 183.56 710.788 183.56C710.466 183.56 710.206 183.642 710.01 183.807C709.821 183.972 709.727 184.212 709.727 184.527C709.727 184.747 709.797 184.931 709.939 185.081C710.088 185.222 710.269 185.34 710.481 185.435C710.701 185.521 711.008 185.623 711.401 185.741C711.936 185.898 712.372 186.056 712.71 186.213C713.048 186.37 713.339 186.606 713.583 186.92C713.826 187.235 713.948 187.648 713.948 188.159C713.948 188.599 713.834 189.008 713.606 189.385C713.378 189.762 713.044 190.065 712.604 190.293C712.164 190.513 711.641 190.623 711.036 190.623ZM721.382 184.857C721.382 185.297 721.276 185.71 721.063 186.095C720.859 186.48 720.533 186.791 720.085 187.027C719.644 187.262 719.086 187.38 718.41 187.38H717.03V190.541H715.379V182.31H718.41C719.047 182.31 719.589 182.42 720.037 182.64C720.486 182.86 720.82 183.163 721.04 183.548C721.268 183.933 721.382 184.369 721.382 184.857ZM718.339 186.048C718.795 186.048 719.133 185.946 719.353 185.741C719.574 185.529 719.684 185.234 719.684 184.857C719.684 184.055 719.236 183.654 718.339 183.654H717.03V186.048H718.339Z" fill="#726E73"/>
</g>
<defs>
<filter id="filter0_d_207_385" x="122.118" y="102.857" width="661.555" height="165.091" filterUnits="userSpaceOnUse" color-interpolation-filters="sRGB">
<feFlood flood-opacity="0" result="BackgroundImageFix"/>
<feColorMatrix in="SourceAlpha" type="matrix" values="0 0 0 0 0 0 0 0 0 0 0 0 0 0 0 0 0 0 127 0" result="hardAlpha"/>
<feOffset dx="7.86148" dy="7.86148"/>
<feGaussianBlur stdDeviation="3.93074"/>
<feComposite in2="hardAlpha" operator="out"/>
<feColorMatrix type="matrix" values="0 0 0 0 0 0 0 0 0 0 0 0 0 0 0 0 0 0 0.2 0"/>
<feBlend mode="normal" in2="BackgroundImageFix" result="effect1_dropShadow_207_385"/>
<feBlend mode="normal" in="SourceGraphic" in2="effect1_dropShadow_207_385" result="shape"/>
</filter>
</defs>
</svg>
