<svg width="30" height="30" viewBox="0 0 30 30" fill="none" xmlns="http://www.w3.org/2000/svg">
<path d="M16.285 2.50123C17.1972 2.49773 18.1093 2.5069 19.0212 2.52873L19.2637 2.53748C19.5437 2.54748 19.82 2.55998 20.1537 2.57498C21.4837 2.63748 22.3912 2.84748 23.1875 3.15623C24.0125 3.47373 24.7075 3.90373 25.4025 4.59873C26.038 5.22324 26.5298 5.97867 26.8437 6.81248C27.1525 7.60873 27.3625 8.51748 27.425 9.84748C27.44 10.18 27.4525 10.4575 27.4625 10.7375L27.47 10.98C27.4922 11.8915 27.5018 12.8032 27.4987 13.715L27.5 14.6475V16.285C27.5031 17.1972 27.4935 18.1093 27.4712 19.0212L27.4637 19.2637C27.4537 19.5437 27.4412 19.82 27.4262 20.1537C27.3637 21.4837 27.1512 22.3912 26.8437 23.1875C26.5308 24.0222 26.0389 24.7782 25.4025 25.4025C24.7774 26.0379 24.0216 26.5297 23.1875 26.8437C22.3912 27.1525 21.4837 27.3625 20.1537 27.425C19.82 27.44 19.5437 27.4525 19.2637 27.4625L19.0212 27.47C18.1093 27.4922 17.1972 27.5018 16.285 27.4987L15.3525 27.5H13.7162C12.8041 27.5031 11.8919 27.4935 10.98 27.4712L10.7375 27.4637C10.4408 27.453 10.1441 27.4405 9.84749 27.4262C8.51749 27.3637 7.60999 27.1512 6.81249 26.8437C5.97834 26.5304 5.22279 26.0385 4.59874 25.4025C3.96255 24.7778 3.47027 24.0219 3.15624 23.1875C2.84749 22.3912 2.63749 21.4837 2.57499 20.1537C2.56107 19.8571 2.54857 19.5605 2.53749 19.2637L2.53124 19.0212C2.50819 18.1093 2.49778 17.1972 2.49999 16.285V13.715C2.4965 12.8032 2.50567 11.8915 2.52749 10.98L2.53624 10.7375C2.54624 10.4575 2.55874 10.18 2.57374 9.84748C2.63624 8.51623 2.84624 7.60998 3.15499 6.81248C3.4692 5.97826 3.96244 5.22304 4.59999 4.59998C5.22361 3.96342 5.97869 3.4707 6.81249 3.15623C7.60999 2.84748 8.51624 2.63748 9.84749 2.57498L10.7375 2.53748L10.98 2.53123C11.8915 2.5082 12.8032 2.49778 13.715 2.49998L16.285 2.50123ZM15 8.75123C14.1719 8.73952 13.3497 8.89251 12.5812 9.20132C11.8127 9.51012 11.1133 9.96858 10.5235 10.5501C9.93379 11.1315 9.46549 11.8244 9.14585 12.5884C8.82621 13.3525 8.6616 14.1724 8.6616 15.0006C8.6616 15.8288 8.82621 16.6487 9.14585 17.4128C9.46549 18.1768 9.93379 18.8697 10.5235 19.4512C11.1133 20.0326 11.8127 20.4911 12.5812 20.7999C13.3497 21.1087 14.1719 21.2617 15 21.25C16.6576 21.25 18.2473 20.5915 19.4194 19.4194C20.5915 18.2473 21.25 16.6576 21.25 15C21.25 13.3424 20.5915 11.7527 19.4194 10.5806C18.2473 9.40846 16.6576 8.75123 15 8.75123ZM15 11.2512C15.4981 11.2421 15.9931 11.3322 16.456 11.5165C16.9189 11.7008 17.3404 11.9754 17.696 12.3244C18.0515 12.6734 18.334 13.0898 18.5268 13.5492C18.7196 14.0085 18.819 14.5018 18.8191 15C18.8192 15.4982 18.72 15.9914 18.5273 16.4509C18.3346 16.9103 18.0523 17.3268 17.6969 17.6759C17.3414 18.025 16.92 18.2998 16.4571 18.4842C15.9943 18.6687 15.4994 18.759 15.0012 18.75C14.0067 18.75 13.0528 18.3549 12.3496 17.6516C11.6463 16.9484 11.2512 15.9945 11.2512 15C11.2512 14.0054 11.6463 13.0516 12.3496 12.3483C13.0528 11.6451 14.0067 11.25 15.0012 11.25L15 11.2512ZM21.5625 6.87623C21.1592 6.89237 20.7779 7.06392 20.4982 7.35495C20.2186 7.64597 20.0625 8.0339 20.0625 8.43748C20.0625 8.84106 20.2186 9.22899 20.4982 9.52002C20.7779 9.81104 21.1592 9.98259 21.5625 9.99873C21.9769 9.99873 22.3743 9.83411 22.6673 9.54109C22.9604 9.24806 23.125 8.85063 23.125 8.43623C23.125 8.02183 22.9604 7.6244 22.6673 7.33138C22.3743 7.03835 21.9769 6.87373 21.5625 6.87373V6.87623Z" fill="#D4C7D9"/>
</svg>
