<svg width="30" height="31" viewBox="0 0 30 31" fill="none" xmlns="http://www.w3.org/2000/svg">
<path d="M26.125 2.65088H3.875C3.51033 2.65088 3.16059 2.79574 2.90273 3.05361C2.64487 3.31147 2.5 3.66121 2.5 4.02588V26.2759C2.5 26.6406 2.64487 26.9903 2.90273 27.2482C3.16059 27.506 3.51033 27.6509 3.875 27.6509H15.85V17.9634H12.6V14.2134H15.85V11.4009C15.7827 10.7406 15.8606 10.0735 16.0784 9.44655C16.2962 8.81956 16.6485 8.24781 17.1106 7.77139C17.5727 7.29498 18.1335 6.92543 18.7535 6.68868C19.3736 6.45192 20.038 6.35369 20.7 6.40088C21.6729 6.39489 22.6454 6.44497 23.6125 6.55088V9.92588H21.625C20.05 9.92588 19.75 10.6759 19.75 11.7634V14.1759H23.5L23.0125 17.9259H19.75V27.6509H26.125C26.3056 27.6509 26.4844 27.6153 26.6512 27.5462C26.818 27.4771 26.9696 27.3758 27.0973 27.2482C27.225 27.1205 27.3262 26.9689 27.3953 26.8021C27.4644 26.6352 27.5 26.4564 27.5 26.2759V4.02588C27.5 3.84531 27.4644 3.66651 27.3953 3.49969C27.3262 3.33287 27.225 3.18129 27.0973 3.05361C26.9696 2.92593 26.818 2.82464 26.6512 2.75554C26.4844 2.68644 26.3056 2.65088 26.125 2.65088Z" fill="#D4C7D9"/>
</svg>
