<svg width="120" height="103" viewBox="0 0 120 103" fill="none" xmlns="http://www.w3.org/2000/svg">
<path fill-rule="evenodd" clip-rule="evenodd" d="M102.857 0C103.174 0 103.479 0.126394 103.703 0.351376C103.927 0.576358 104.053 0.881499 104.053 1.19967V4.3988C104.053 4.71697 103.927 5.02211 103.703 5.24709C103.479 5.47208 103.174 5.59847 102.857 5.59847C102.54 5.59847 102.236 5.47208 102.011 5.24709C101.787 5.02211 101.661 4.71697 101.661 4.3988V1.19967C101.661 0.881499 101.787 0.576358 102.011 0.351376C102.236 0.126394 102.54 0 102.857 0ZM92.4439 6.75015C92.6681 6.52549 92.9721 6.39931 93.289 6.39931C93.606 6.39931 93.91 6.52549 94.1342 6.75015L94.6828 7.2988C94.9006 7.52517 95.021 7.82826 95.0181 8.14281C95.0152 8.45737 94.8893 8.7582 94.6674 8.98053C94.4456 9.20285 94.1456 9.32888 93.832 9.33146C93.5184 9.33404 93.2163 9.21298 92.9908 8.99434L92.4439 8.44569C92.2199 8.22075 92.0941 7.91584 92.0941 7.59792C92.0941 7.28001 92.2199 6.97509 92.4439 6.75015ZM113.27 6.75015C113.494 6.97509 113.62 7.28001 113.62 7.59792C113.62 7.91584 113.494 8.22075 113.27 8.44569L112.723 8.99594C112.498 9.21437 112.196 9.33514 111.882 9.33226C111.568 9.32938 111.269 9.20307 111.047 8.98054C110.825 8.758 110.7 8.45705 110.697 8.1425C110.694 7.82794 110.815 7.52496 111.033 7.2988L111.58 6.75015C111.804 6.52549 112.108 6.39931 112.425 6.39931C112.742 6.39931 113.046 6.52549 113.27 6.75015ZM85.7143 17.1953C85.7143 16.8771 85.8403 16.572 86.0646 16.347C86.2889 16.122 86.5931 15.9956 86.9103 15.9956H90.0997C90.4169 15.9956 90.7211 16.122 90.9454 16.347C91.1697 16.572 91.2957 16.8771 91.2957 17.1953C91.2957 17.5135 91.1697 17.8186 90.9454 18.0436C90.7211 18.2686 90.4169 18.395 90.0997 18.395H86.9103C86.5931 18.395 86.2889 18.2686 86.0646 18.0436C85.8403 17.8186 85.7143 17.5135 85.7143 17.1953ZM114.419 17.1953C114.419 16.8771 114.545 16.572 114.769 16.347C114.993 16.122 115.297 15.9956 115.615 15.9956H118.804C119.121 15.9956 119.425 16.122 119.65 16.347C119.874 16.572 120 16.8771 120 17.1953C120 17.5135 119.874 17.8186 119.65 18.0436C119.425 18.2686 119.121 18.395 118.804 18.395H115.615C115.297 18.395 114.993 18.2686 114.769 18.0436C114.545 17.8186 114.419 17.5135 114.419 17.1953ZM94.6812 25.3963C94.9052 25.6212 95.031 25.9261 95.031 26.244C95.031 26.5619 94.9052 26.8669 94.6812 27.0918L94.1342 27.6404C93.9075 27.8524 93.6076 27.9677 93.2978 27.9622C92.9879 27.9567 92.6923 27.8308 92.4732 27.611C92.254 27.3912 92.1285 27.0947 92.1231 26.7839C92.1176 26.4731 92.2326 26.1723 92.4439 25.9449L92.9908 25.3963C93.2151 25.1716 93.5191 25.0454 93.836 25.0454C94.153 25.0454 94.457 25.1716 94.6812 25.3963ZM111.033 25.3963C111.257 25.1716 111.561 25.0454 111.878 25.0454C112.195 25.0454 112.499 25.1716 112.723 25.3963L113.27 25.9449C113.388 26.0547 113.482 26.1872 113.548 26.3343C113.613 26.4815 113.648 26.6404 113.651 26.8014C113.654 26.9625 113.624 27.1225 113.564 27.2719C113.504 27.4213 113.414 27.557 113.301 27.6709C113.187 27.7848 113.052 27.8746 112.903 27.935C112.754 27.9953 112.595 28.0249 112.434 28.0221C112.273 28.0192 112.115 27.984 111.968 27.9184C111.822 27.8528 111.69 27.7583 111.58 27.6404L111.033 27.0918C110.809 26.8669 110.683 26.5619 110.683 26.244C110.683 25.9261 110.809 25.6212 111.033 25.3963ZM102.857 28.7921C103.174 28.7921 103.479 28.9185 103.703 29.1435C103.927 29.3685 104.053 29.6736 104.053 29.9918V33.1909C104.053 33.5091 103.927 33.8142 103.703 34.0392C103.479 34.2642 103.174 34.3906 102.857 34.3906C102.54 34.3906 102.236 34.2642 102.011 34.0392C101.787 33.8142 101.661 33.5091 101.661 33.1909V29.9918C101.661 29.6736 101.787 29.3685 102.011 29.1435C102.236 28.9185 102.54 28.7921 102.857 28.7921Z" fill="#5B3873"/>
<path d="M94.8837 15.6918C94.8837 19.7578 98.089 21.9253 100.433 23.8655C101.262 24.5485 102.06 25.1932 102.857 25.1932C103.654 25.1932 104.452 24.5485 105.281 23.8655C107.625 21.9253 110.831 19.7578 110.831 15.6918C110.831 11.6241 106.445 8.74006 102.857 12.6494C99.2691 8.74006 94.8837 11.6257 94.8837 15.6918Z" fill="#5B3873"/>
<path d="M73.8916 17.1953C77.3852 19.1935 88.6699 26.3562 95.1724 38.4997C85.0793 44.7516 77.5352 54.4039 73.8916 65.7275C70.248 54.4039 62.7039 44.7516 52.6108 38.4997C59.1133 26.3918 70.4039 19.1994 73.8916 17.1953ZM28.9655 57.1833V35.8967C40.4504 36.5197 51.2614 41.531 59.1771 49.901C67.0928 58.271 71.5121 69.364 71.5271 80.9009V102.188C60.0422 101.565 49.2312 96.5532 41.3155 88.1832C33.3998 79.8132 28.9805 68.7201 28.9655 57.1833ZM118.818 57.1833C118.803 68.7201 114.383 79.8132 106.468 88.1832C98.552 96.5532 87.7411 101.565 76.2562 102.188V80.9009C76.2711 69.364 80.6905 58.271 88.6062 49.901C96.5219 41.531 107.333 36.5197 118.818 35.8967V57.1833Z" fill="#BF73BA"/>
<path d="M15.0006 55.1435C16.5927 55.1435 18.1195 55.7795 19.2453 56.9116C20.371 58.0436 21.0035 59.579 21.0035 61.1799C21.0035 62.7809 20.371 64.3163 19.2453 65.4483C18.1195 66.5803 16.5927 67.2163 15.0006 67.2163C13.4086 67.2163 11.8818 66.5803 10.756 65.4483C9.63027 64.3163 8.99784 62.7809 8.99784 61.1799C8.99784 59.579 9.63027 58.0436 10.756 56.9116C11.8818 55.7795 13.4086 55.1435 15.0006 55.1435ZM8.24749 98.9677V91.4222H6.57796C5.5556 91.4222 4.83339 90.413 5.15229 89.4321L8.06928 80.6227L5.38677 84.188C4.38318 85.5179 2.49792 85.7725 1.18481 84.7728C-0.128308 83.773 -0.390931 81.8772 0.603285 80.5473L6.12775 73.2187C8.22873 70.4269 11.5209 68.7858 15.0006 68.7858C18.4804 68.7858 21.7726 70.4269 23.8735 73.2187L29.398 80.5473C30.4016 81.8772 30.139 83.773 28.8165 84.7728C27.494 85.7725 25.6087 85.5179 24.6145 84.188L21.932 80.6227L24.849 89.4321C25.1773 90.413 24.4457 91.4222 23.4233 91.4222H21.7538V98.9677C21.7538 100.637 20.4126 101.986 18.7524 101.986C17.0922 101.986 15.751 100.637 15.751 98.9677V91.4222H14.2503V98.9677C14.2503 100.637 12.909 101.986 11.2489 101.986C9.58874 101.986 8.24749 100.637 8.24749 98.9677ZM45.0147 55.1435C46.6067 55.1435 48.1336 55.7795 49.2593 56.9116C50.3851 58.0436 51.0175 59.579 51.0175 61.1799C51.0175 62.7809 50.3851 64.3163 49.2593 65.4483C48.1336 66.5803 46.6067 67.2163 45.0147 67.2163C43.4226 67.2163 41.8958 66.5803 40.7701 65.4483C39.6443 64.3163 39.0119 62.7809 39.0119 61.1799C39.0119 59.579 39.6443 58.0436 40.7701 56.9116C41.8958 55.7795 43.4226 55.1435 45.0147 55.1435ZM44.2643 89.9131V98.9677C44.2643 100.637 42.9231 101.986 41.2629 101.986C39.6028 101.986 38.2615 100.637 38.2615 98.9677V82.0375L37.0516 83.9711C36.1699 85.3858 34.3128 85.8008 32.9153 84.9142C31.5178 84.0276 31.0957 82.1601 31.9773 80.7548L36.8265 73.0112C38.4773 70.3798 41.3567 68.7763 44.4425 68.7763H45.5962C48.6914 68.7763 51.5709 70.3703 53.2123 73.0112L58.0614 80.7642C58.9431 82.179 58.521 84.0371 57.1235 84.9237C55.7259 85.8103 53.8688 85.3858 52.9872 83.9805L51.7678 82.0375V98.9677C51.7678 100.637 50.4266 101.986 48.7664 101.986C47.1063 101.986 45.765 100.637 45.765 98.9677V89.9131H44.2643Z" fill="#5B3873"/>
</svg>
