<svg width="120" height="102" viewBox="0 0 120 102" fill="none" xmlns="http://www.w3.org/2000/svg">
<path fill-rule="evenodd" clip-rule="evenodd" d="M102.118 0.408867C102.43 0.408867 102.729 0.532703 102.949 0.753131C103.17 0.97356 103.294 1.27253 103.294 1.58426V4.71864C103.294 5.03037 103.17 5.32934 102.949 5.54977C102.729 5.7702 102.43 5.89403 102.118 5.89403C101.806 5.89403 101.508 5.7702 101.287 5.54977C101.067 5.32934 100.943 5.03037 100.943 4.71864V1.58426C100.943 1.27253 101.067 0.97356 101.287 0.753131C101.508 0.532703 101.806 0.408867 102.118 0.408867ZM91.8845 7.02241C92.1049 6.8023 92.4036 6.67866 92.7151 6.67866C93.0266 6.67866 93.3253 6.8023 93.5457 7.02241L94.0848 7.55995C94.2988 7.78174 94.4172 8.0787 94.4143 8.38688C94.4115 8.69507 94.2878 8.98981 94.0697 9.20764C93.8517 9.42547 93.5568 9.54894 93.2486 9.55147C92.9405 9.554 92.6436 9.43539 92.422 9.22118L91.8845 8.68363C91.6644 8.46324 91.5407 8.1645 91.5407 7.85302C91.5407 7.54154 91.6644 7.24279 91.8845 7.02241ZM112.352 7.02241C112.572 7.24279 112.696 7.54154 112.696 7.85302C112.696 8.1645 112.572 8.46324 112.352 8.68363L111.814 9.22274C111.593 9.43675 111.296 9.55508 110.988 9.55226C110.679 9.54944 110.385 9.42568 110.167 9.20765C109.949 8.98962 109.825 8.69476 109.823 8.38657C109.82 8.07839 109.939 7.78154 110.153 7.55995L110.691 7.02241C110.911 6.8023 111.21 6.67866 111.521 6.67866C111.833 6.67866 112.132 6.8023 112.352 7.02241ZM85.2709 17.2562C85.2709 16.9444 85.3948 16.6455 85.6152 16.425C85.8356 16.2046 86.1346 16.0808 86.4463 16.0808H89.5807C89.8924 16.0808 90.1914 16.2046 90.4118 16.425C90.6323 16.6455 90.7561 16.9444 90.7561 17.2562C90.7561 17.5679 90.6323 17.8669 90.4118 18.0873C90.1914 18.3077 89.8924 18.4316 89.5807 18.4316H86.4463C86.1346 18.4316 85.8356 18.3077 85.6152 18.0873C85.3948 17.8669 85.2709 17.5679 85.2709 17.2562ZM113.48 17.2562C113.48 16.9444 113.604 16.6455 113.825 16.425C114.045 16.2046 114.344 16.0808 114.656 16.0808H117.79C118.102 16.0808 118.401 16.2046 118.621 16.425C118.842 16.6455 118.966 16.9444 118.966 17.2562C118.966 17.5679 118.842 17.8669 118.621 18.0873C118.401 18.3077 118.102 18.4316 117.79 18.4316H114.656C114.344 18.4316 114.045 18.3077 113.825 18.0873C113.604 17.8669 113.48 17.5679 113.48 17.2562ZM94.0832 25.2911C94.3034 25.5115 94.427 25.8103 94.427 26.1218C94.427 26.4332 94.3034 26.732 94.0832 26.9524L93.5457 27.4899C93.3229 27.6975 93.0282 27.8106 92.7237 27.8052C92.4192 27.7998 92.1286 27.6765 91.9133 27.4611C91.6979 27.2458 91.5746 26.9552 91.5692 26.6507C91.5638 26.3462 91.6769 26.0515 91.8845 25.8287L92.422 25.2911C92.6424 25.071 92.9412 24.9474 93.2526 24.9474C93.5641 24.9474 93.8629 25.071 94.0832 25.2911ZM110.153 25.2911C110.374 25.071 110.672 24.9474 110.984 24.9474C111.295 24.9474 111.594 25.071 111.814 25.2911L112.352 25.8287C112.467 25.9363 112.56 26.0661 112.624 26.2102C112.689 26.3544 112.723 26.5101 112.726 26.6679C112.729 26.8257 112.7 26.9825 112.641 27.1288C112.581 27.2752 112.493 27.4081 112.382 27.5197C112.27 27.6314 112.137 27.7193 111.991 27.7785C111.845 27.8376 111.688 27.8666 111.53 27.8638C111.372 27.861 111.216 27.8265 111.072 27.7623C110.928 27.698 110.798 27.6054 110.691 27.4899L110.153 26.9524C109.933 26.732 109.809 26.4332 109.809 26.1218C109.809 25.8103 109.933 25.5115 110.153 25.2911ZM102.118 28.6183C102.43 28.6183 102.729 28.7421 102.949 28.9625C103.17 29.183 103.294 29.4819 103.294 29.7937V32.9281C103.294 33.2398 103.17 33.5388 102.949 33.7592C102.729 33.9796 102.43 34.1035 102.118 34.1035C101.806 34.1035 101.508 33.9796 101.287 33.7592C101.067 33.5388 100.943 33.2398 100.943 32.9281V29.7937C100.943 29.4819 101.067 29.183 101.287 28.9625C101.508 28.7421 101.806 28.6183 102.118 28.6183Z" fill="#F2E9EB"/>
<path d="M94.2823 15.783C94.2823 19.7668 97.4323 21.8903 99.7361 23.7913C100.551 24.4605 101.335 25.0921 102.118 25.0921C102.902 25.0921 103.685 24.4605 104.5 23.7913C106.804 21.8903 109.954 19.7668 109.954 15.783C109.954 11.7976 105.644 8.97199 102.118 12.8022C98.5921 8.97199 94.2823 11.7992 94.2823 15.783Z" fill="#F2E9EB"/>
<path d="M73.1707 17.9756C76.6302 19.9483 87.8049 27.0195 94.2439 39.0078C84.2493 45.1798 76.7788 54.7088 73.1707 65.8878C69.5627 54.7088 62.0922 45.1798 52.0976 39.0078C58.5366 27.0546 69.7171 19.9541 73.1707 17.9756ZM28.6829 57.4527V36.438C40.0558 37.0531 50.7613 42.0004 58.5997 50.2634C66.4382 58.5265 70.8145 69.4778 70.8293 80.8673V101.882C59.4564 101.267 48.7509 96.3196 40.9124 88.0565C33.074 79.7934 28.6977 68.8421 28.6829 57.4527ZM117.659 57.4527C117.644 68.8421 113.267 79.7934 105.429 88.0565C97.5905 96.3196 86.8851 101.267 75.5122 101.882V80.8673C75.527 69.4778 79.9032 58.5265 87.7417 50.2634C95.5802 42.0004 106.286 37.0531 117.659 36.438V57.4527Z" fill="#BF73BA"/>
<path d="M14.8543 55.439C16.4308 55.439 17.9428 56.0668 19.0575 57.1844C20.1723 58.302 20.7985 59.8178 20.7985 61.3983C20.7985 62.9788 20.1723 64.4945 19.0575 65.6121C17.9428 66.7297 16.4308 67.3575 14.8543 67.3575C13.2778 67.3575 11.7658 66.7297 10.6511 65.6121C9.53632 64.4945 8.91005 62.9788 8.91005 61.3983C8.91005 59.8178 9.53632 58.302 10.6511 57.1844C11.7658 56.0668 13.2778 55.439 14.8543 55.439ZM8.16702 98.7033V91.2542H6.51378C5.5014 91.2542 4.78623 90.2579 5.10202 89.2895L7.99055 80.5927L5.33422 84.1124C4.34042 85.4253 2.47355 85.6767 1.17325 84.6897C-0.127056 83.7027 -0.387117 81.8311 0.597399 80.5182L6.06796 73.2833C8.14845 70.5271 11.4085 68.9069 14.8543 68.9069C18.3001 68.9069 21.5601 70.5271 23.6406 73.2833L29.1112 80.5182C30.105 81.8311 29.8449 83.7027 28.5353 84.6897C27.2258 85.6767 25.3589 85.4253 24.3744 84.1124L21.718 80.5927L24.6066 89.2895C24.9317 90.2579 24.2072 91.2542 23.1948 91.2542H21.5416V98.7033C21.5416 100.351 20.2134 101.683 18.5695 101.683C16.9255 101.683 15.5973 100.351 15.5973 98.7033V91.2542H14.1113V98.7033C14.1113 100.351 12.7831 101.683 11.1391 101.683C9.49519 101.683 8.16702 100.351 8.16702 98.7033ZM44.5755 55.439C46.152 55.439 47.664 56.0668 48.7787 57.1844C49.8935 58.302 50.5198 59.8178 50.5198 61.3983C50.5198 62.9788 49.8935 64.4945 48.7787 65.6121C47.664 66.7297 46.152 67.3575 44.5755 67.3575C42.999 67.3575 41.4871 66.7297 40.3723 65.6121C39.2575 64.4945 38.6313 62.9788 38.6313 61.3983C38.6313 59.8178 39.2575 58.302 40.3723 57.1844C41.4871 56.0668 42.999 55.439 44.5755 55.439ZM43.8325 89.7644V98.7033C43.8325 100.351 42.5043 101.683 40.8604 101.683C39.2164 101.683 37.8882 100.351 37.8882 98.7033V81.9894L36.6901 83.8982C35.817 85.2949 33.9781 85.7046 32.5942 84.8294C31.2103 83.9541 30.7923 82.1104 31.6654 80.723L36.4672 73.0784C38.1019 70.4806 40.9532 68.8976 44.009 68.8976H45.1514C48.2164 68.8976 51.0677 70.4712 52.6931 73.0784L57.495 80.7324C58.368 82.1291 57.9501 83.9634 56.5662 84.8387C55.1823 85.7139 53.3433 85.2949 52.4702 83.9075L51.2628 81.9894V98.7033C51.2628 100.351 49.9346 101.683 48.2907 101.683C46.6467 101.683 45.3186 100.351 45.3186 98.7033V89.7644H43.8325Z" fill="#F2E9EB"/>
</svg>
