<svg width="281" height="72" viewBox="0 0 281 72" fill="none" xmlns="http://www.w3.org/2000/svg">
<path d="M93.4551 17H91.2573L86.2809 9.48053V17H84.0832V6.0269H86.2809L91.2573 13.5621V6.0269H93.4551V17ZM103.837 8.30316V17H101.624V15.9011C101.341 16.2779 100.97 16.5761 100.509 16.7959C100.059 17.0052 99.5672 17.1099 99.0335 17.1099C98.3532 17.1099 97.7514 16.9686 97.2282 16.686C96.7049 16.393 96.2915 15.9691 95.988 15.4145C95.695 14.8493 95.5484 14.1795 95.5484 13.4051V8.30316H97.7462V13.0911C97.7462 13.7819 97.9189 14.3156 98.2642 14.6924C98.6096 15.0586 99.0806 15.2418 99.6771 15.2418C100.284 15.2418 100.76 15.0586 101.106 14.6924C101.451 14.3156 101.624 13.7819 101.624 13.0911V8.30316H103.837ZM101.451 6.0426L97.8404 7.69092V6.12109L101.451 4.253V6.0426ZM105.44 12.6516C105.44 11.7515 105.624 10.9666 105.99 10.2968C106.356 9.61658 106.864 9.0933 107.513 8.72701C108.161 8.35025 108.905 8.16187 109.742 8.16187C110.82 8.16187 111.709 8.43397 112.41 8.97818C113.122 9.51192 113.598 10.2654 113.839 11.2387H111.469C111.343 10.862 111.128 10.5689 110.825 10.3596C110.532 10.1399 110.166 10.03 109.726 10.03C109.098 10.03 108.601 10.2602 108.235 10.7207C107.868 11.1707 107.685 11.8143 107.685 12.6516C107.685 13.4784 107.868 14.122 108.235 14.5825C108.601 15.0325 109.098 15.2575 109.726 15.2575C110.616 15.2575 111.196 14.8598 111.469 14.0644H113.839C113.598 15.0063 113.122 15.7546 112.41 16.3093C111.699 16.8639 110.809 17.1413 109.742 17.1413C108.905 17.1413 108.161 16.9581 107.513 16.5918C106.864 16.2151 106.356 15.6918 105.99 15.022C105.624 14.3418 105.44 13.5516 105.44 12.6516ZM117.647 5.38328V17H115.449V5.38328H117.647ZM127.903 12.4632C127.903 12.7772 127.882 13.0597 127.84 13.3109H121.482C121.535 13.9388 121.754 14.4307 122.142 14.7865C122.529 15.1424 123.005 15.3203 123.57 15.3203C124.386 15.3203 124.967 14.9697 125.313 14.2685H127.683C127.432 15.1057 126.95 15.7965 126.239 16.3407C125.527 16.8744 124.653 17.1413 123.617 17.1413C122.78 17.1413 122.026 16.9581 121.357 16.5918C120.697 16.2151 120.179 15.6866 119.803 15.0063C119.436 14.3261 119.253 13.5411 119.253 12.6516C119.253 11.7515 119.436 10.9614 119.803 10.2811C120.169 9.60088 120.682 9.0776 121.341 8.71131C122 8.34502 122.759 8.16187 123.617 8.16187C124.444 8.16187 125.182 8.33978 125.831 8.69561C126.49 9.05144 126.998 9.55902 127.353 10.2183C127.72 10.8672 127.903 11.6155 127.903 12.4632ZM125.627 11.8353C125.616 11.2701 125.412 10.8201 125.014 10.4852C124.617 10.1399 124.13 9.96717 123.554 9.96717C123.01 9.96717 122.55 10.1346 122.173 10.4695C121.807 10.7939 121.582 11.2492 121.498 11.8353H125.627ZM133.369 17.1413C132.532 17.1413 131.778 16.9581 131.108 16.5918C130.438 16.2151 129.91 15.6866 129.523 15.0063C129.146 14.3261 128.958 13.5411 128.958 12.6516C128.958 11.762 129.151 10.9771 129.538 10.2968C129.936 9.61658 130.475 9.0933 131.155 8.72701C131.836 8.35025 132.594 8.16187 133.432 8.16187C134.269 8.16187 135.028 8.35025 135.708 8.72701C136.388 9.0933 136.922 9.61658 137.309 10.2968C137.707 10.9771 137.906 11.762 137.906 12.6516C137.906 13.5411 137.702 14.3261 137.293 15.0063C136.896 15.6866 136.351 16.2151 135.661 16.5918C134.98 16.9581 134.216 17.1413 133.369 17.1413ZM133.369 15.2261C133.766 15.2261 134.138 15.1319 134.483 14.9435C134.839 14.7447 135.122 14.4516 135.331 14.0644C135.54 13.6772 135.645 13.2062 135.645 12.6516C135.645 11.8248 135.425 11.1916 134.986 10.7521C134.557 10.3021 134.028 10.0771 133.4 10.0771C132.772 10.0771 132.244 10.3021 131.815 10.7521C131.396 11.1916 131.187 11.8248 131.187 12.6516C131.187 13.4784 131.391 14.1167 131.799 14.5668C132.218 15.0063 132.741 15.2261 133.369 15.2261ZM142.693 12.6202C142.693 11.7411 142.866 10.9614 143.211 10.2811C143.567 9.60088 144.048 9.0776 144.655 8.71131C145.262 8.34502 145.937 8.16187 146.681 8.16187C147.246 8.16187 147.785 8.28746 148.297 8.53863C148.81 8.77934 149.218 9.10377 149.522 9.51192V5.38328H151.751V17H149.522V15.7127C149.25 16.1418 148.868 16.4872 148.376 16.7488C147.884 17.0105 147.314 17.1413 146.665 17.1413C145.932 17.1413 145.262 16.9529 144.655 16.5761C144.048 16.1994 143.567 15.6709 143.211 14.9906C142.866 14.2999 142.693 13.5097 142.693 12.6202ZM149.538 12.6516C149.538 12.1178 149.433 11.6626 149.224 11.2858C149.014 10.8986 148.732 10.6056 148.376 10.4067C148.02 10.1974 147.638 10.0928 147.23 10.0928C146.822 10.0928 146.445 10.1922 146.1 10.391C145.754 10.5899 145.472 10.8829 145.252 11.2701C145.043 11.6469 144.938 12.0969 144.938 12.6202C144.938 13.1435 145.043 13.6039 145.252 14.0016C145.472 14.3889 145.754 14.6871 146.1 14.8964C146.456 15.1057 146.832 15.2104 147.23 15.2104C147.638 15.2104 148.02 15.111 148.376 14.9121C148.732 14.7028 149.014 14.4098 149.224 14.033C149.433 13.6458 149.538 13.1853 149.538 12.6516ZM161.982 12.4632C161.982 12.7772 161.961 13.0597 161.919 13.3109H155.562C155.614 13.9388 155.834 14.4307 156.221 14.7865C156.608 15.1424 157.084 15.3203 157.649 15.3203C158.466 15.3203 159.047 14.9697 159.392 14.2685H161.762C161.511 15.1057 161.03 15.7965 160.318 16.3407C159.607 16.8744 158.733 17.1413 157.697 17.1413C156.859 17.1413 156.106 16.9581 155.436 16.5918C154.777 16.2151 154.259 15.6866 153.882 15.0063C153.516 14.3261 153.332 13.5411 153.332 12.6516C153.332 11.7515 153.516 10.9614 153.882 10.2811C154.248 9.60088 154.761 9.0776 155.42 8.71131C156.08 8.34502 156.838 8.16187 157.697 8.16187C158.523 8.16187 159.261 8.33978 159.91 8.69561C160.569 9.05144 161.077 9.55902 161.433 10.2183C161.799 10.8672 161.982 11.6155 161.982 12.4632ZM159.706 11.8353C159.695 11.2701 159.491 10.8201 159.094 10.4852C158.696 10.1399 158.209 9.96717 157.634 9.96717C157.09 9.96717 156.629 10.1346 156.252 10.4695C155.886 10.7939 155.661 11.2492 155.577 11.8353H159.706ZM90.802 38.9121H86.4379L85.7158 41H83.4082L87.3484 30.0269H89.9072L93.8475 41H91.5242L90.802 38.9121ZM90.2055 37.1539L88.62 32.57L87.0345 37.1539H90.2055ZM97.8791 34.1085V38.3156C97.8791 38.6086 97.9472 38.8232 98.0832 38.9592C98.2297 39.0848 98.4704 39.1476 98.8053 39.1476H99.8257V41H98.4443C96.5919 41 95.6657 40.1 95.6657 38.2999V34.1085H94.6296V32.3032H95.6657V30.1525H97.8791V32.3032H99.8257V34.1085H97.8791ZM109.491 36.4632C109.491 36.7772 109.47 37.0597 109.428 37.3109H103.07C103.123 37.9388 103.343 38.4307 103.73 38.7865C104.117 39.1424 104.593 39.3203 105.158 39.3203C105.975 39.3203 106.556 38.9697 106.901 38.2685H109.271C109.02 39.1057 108.539 39.7965 107.827 40.3407C107.115 40.8744 106.242 41.1413 105.205 41.1413C104.368 41.1413 103.615 40.9581 102.945 40.5918C102.286 40.2151 101.768 39.6866 101.391 39.0063C101.024 38.3261 100.841 37.5411 100.841 36.6516C100.841 35.7515 101.024 34.9614 101.391 34.2811C101.757 33.6009 102.27 33.0776 102.929 32.7113C103.589 32.345 104.347 32.1619 105.205 32.1619C106.032 32.1619 106.77 32.3398 107.419 32.6956C108.078 33.0514 108.586 33.559 108.942 34.2183C109.308 34.8672 109.491 35.6155 109.491 36.4632ZM107.215 35.8353C107.204 35.2701 107 34.8201 106.603 34.4852C106.205 34.1399 105.718 33.9672 105.143 33.9672C104.598 33.9672 104.138 34.1346 103.761 34.4695C103.395 34.7939 103.17 35.2492 103.086 35.8353H107.215ZM115.915 32.1776C116.951 32.1776 117.788 32.5072 118.426 33.1666C119.065 33.8154 119.384 34.7259 119.384 35.8981V41H117.186V36.1963C117.186 35.5056 117.014 34.9771 116.668 34.6108C116.323 34.234 115.852 34.0457 115.255 34.0457C114.648 34.0457 114.167 34.234 113.811 34.6108C113.466 34.9771 113.293 35.5056 113.293 36.1963V41H111.095V32.3032H113.293V33.3863C113.586 33.0096 113.958 32.7165 114.408 32.5072C114.868 32.2875 115.37 32.1776 115.915 32.1776ZM120.909 36.6202C120.909 35.7411 121.081 34.9614 121.427 34.2811C121.783 33.6009 122.264 33.0776 122.871 32.7113C123.478 32.345 124.153 32.1619 124.896 32.1619C125.461 32.1619 126 32.2875 126.513 32.5386C127.026 32.7793 127.434 33.1038 127.738 33.5119V29.3833H129.967V41H127.738V39.7127C127.465 40.1418 127.083 40.4872 126.592 40.7488C126.1 41.0105 125.529 41.1413 124.88 41.1413C124.148 41.1413 123.478 40.9529 122.871 40.5761C122.264 40.1994 121.783 39.6709 121.427 38.9906C121.081 38.2999 120.909 37.5097 120.909 36.6202ZM127.753 36.6516C127.753 36.1178 127.649 35.6626 127.439 35.2858C127.23 34.8986 126.947 34.6056 126.592 34.4067C126.236 34.1974 125.854 34.0928 125.446 34.0928C125.037 34.0928 124.661 34.1922 124.315 34.391C123.97 34.5899 123.687 34.8829 123.468 35.2701C123.258 35.6469 123.154 36.0969 123.154 36.6202C123.154 37.1435 123.258 37.6039 123.468 38.0016C123.687 38.3889 123.97 38.6871 124.315 38.8964C124.671 39.1057 125.048 39.2104 125.446 39.2104C125.854 39.2104 126.236 39.111 126.592 38.9121C126.947 38.7028 127.23 38.4098 127.439 38.033C127.649 37.6458 127.753 37.1853 127.753 36.6516ZM133.228 31.2671C132.841 31.2671 132.516 31.1467 132.254 30.906C132.003 30.6548 131.878 30.3461 131.878 29.9798C131.878 29.6135 132.003 29.31 132.254 29.0693C132.516 28.8181 132.841 28.6926 133.228 28.6926C133.615 28.6926 133.934 28.8181 134.185 29.0693C134.447 29.31 134.578 29.6135 134.578 29.9798C134.578 30.3461 134.447 30.6548 134.185 30.906C133.934 31.1467 133.615 31.2671 133.228 31.2671ZM134.311 32.3032V41H132.113V32.3032H134.311ZM147.283 32.1776C148.35 32.1776 149.208 32.5072 149.857 33.1666C150.517 33.8154 150.846 34.7259 150.846 35.8981V41H148.648V36.1963C148.648 35.5161 148.476 34.998 148.13 34.6422C147.785 34.2759 147.314 34.0928 146.718 34.0928C146.121 34.0928 145.645 34.2759 145.289 34.6422C144.944 34.998 144.771 35.5161 144.771 36.1963V41H142.573V36.1963C142.573 35.5161 142.401 34.998 142.055 34.6422C141.71 34.2759 141.239 34.0928 140.642 34.0928C140.035 34.0928 139.554 34.2759 139.198 34.6422C138.853 34.998 138.68 35.5161 138.68 36.1963V41H136.482V32.3032H138.68V33.3549C138.963 32.9886 139.324 32.7008 139.763 32.4915C140.213 32.2822 140.705 32.1776 141.239 32.1776C141.919 32.1776 142.526 32.3241 143.06 32.6171C143.594 32.8997 144.007 33.3078 144.3 33.8416C144.583 33.3392 144.991 32.9363 145.525 32.6328C146.069 32.3293 146.655 32.1776 147.283 32.1776ZM161.016 36.4632C161.016 36.7772 160.995 37.0597 160.954 37.3109H154.596C154.648 37.9388 154.868 38.4307 155.255 38.7865C155.642 39.1424 156.119 39.3203 156.684 39.3203C157.5 39.3203 158.081 38.9697 158.426 38.2685H160.797C160.545 39.1057 160.064 39.7965 159.352 40.3407C158.641 40.8744 157.767 41.1413 156.731 41.1413C155.894 41.1413 155.14 40.9581 154.47 40.5918C153.811 40.2151 153.293 39.6866 152.916 39.0063C152.55 38.3261 152.367 37.5411 152.367 36.6516C152.367 35.7515 152.55 34.9614 152.916 34.2811C153.282 33.6009 153.795 33.0776 154.455 32.7113C155.114 32.345 155.873 32.1619 156.731 32.1619C157.558 32.1619 158.295 32.3398 158.944 32.6956C159.604 33.0514 160.111 33.559 160.467 34.2183C160.833 34.8672 161.016 35.6155 161.016 36.4632ZM158.74 35.8353C158.73 35.2701 158.526 34.8201 158.128 34.4852C157.73 34.1399 157.244 33.9672 156.668 33.9672C156.124 33.9672 155.663 34.1346 155.287 34.4695C154.92 34.7939 154.695 35.2492 154.611 35.8353H158.74ZM167.44 32.1776C168.476 32.1776 169.313 32.5072 169.952 33.1666C170.59 33.8154 170.909 34.7259 170.909 35.8981V41H168.711V36.1963C168.711 35.5056 168.539 34.9771 168.193 34.6108C167.848 34.234 167.377 34.0457 166.781 34.0457C166.174 34.0457 165.692 34.234 165.336 34.6108C164.991 34.9771 164.818 35.5056 164.818 36.1963V41H162.621V32.3032H164.818V33.3863C165.111 33.0096 165.483 32.7165 165.933 32.5072C166.393 32.2875 166.896 32.1776 167.44 32.1776ZM175.558 34.1085V38.3156C175.558 38.6086 175.626 38.8232 175.762 38.9592C175.909 39.0848 176.149 39.1476 176.484 39.1476H177.505V41H176.123C174.271 41 173.345 40.1 173.345 38.2999V34.1085H172.308V32.3032H173.345V30.1525H175.558V32.3032H177.505V34.1085H175.558ZM182.947 41.1413C182.11 41.1413 181.356 40.9581 180.687 40.5918C180.017 40.2151 179.488 39.6866 179.101 39.0063C178.724 38.3261 178.536 37.5411 178.536 36.6516C178.536 35.762 178.73 34.9771 179.117 34.2968C179.514 33.6166 180.053 33.0933 180.734 32.727C181.414 32.3502 182.173 32.1619 183.01 32.1619C183.847 32.1619 184.606 32.3502 185.286 32.727C185.966 33.0933 186.5 33.6166 186.887 34.2968C187.285 34.9771 187.484 35.762 187.484 36.6516C187.484 37.5411 187.28 38.3261 186.872 39.0063C186.474 39.6866 185.93 40.2151 185.239 40.5918C184.559 40.9581 183.795 41.1413 182.947 41.1413ZM182.947 39.2261C183.345 39.2261 183.716 39.1319 184.062 38.9435C184.418 38.7447 184.7 38.4516 184.909 38.0644C185.119 37.6772 185.223 37.2062 185.223 36.6516C185.223 35.8248 185.004 35.1916 184.564 34.7521C184.135 34.3021 183.606 34.0771 182.979 34.0771C182.351 34.0771 181.822 34.3021 181.393 34.7521C180.974 35.1916 180.765 35.8248 180.765 36.6516C180.765 37.4784 180.969 38.1167 181.377 38.5668C181.796 39.0063 182.319 39.2261 182.947 39.2261ZM196.62 41.1099C195.856 41.1099 195.165 40.9791 194.548 40.7174C193.941 40.4558 193.459 40.079 193.104 39.5872C192.748 39.0953 192.565 38.5144 192.554 37.8446H194.909C194.94 38.2947 195.097 38.6505 195.38 38.9121C195.673 39.1738 196.071 39.3046 196.573 39.3046C197.086 39.3046 197.489 39.1842 197.782 38.9435C198.075 38.6924 198.221 38.3679 198.221 37.9702C198.221 37.6458 198.122 37.3789 197.923 37.1696C197.724 36.9603 197.473 36.7981 197.169 36.683C196.876 36.5574 196.468 36.4213 195.945 36.2748C195.233 36.0655 194.652 35.8614 194.202 35.6626C193.763 35.4533 193.381 35.1445 193.056 34.7364C192.742 34.3178 192.585 33.7631 192.585 33.0724C192.585 32.4235 192.748 31.8584 193.072 31.377C193.397 30.8955 193.852 30.5292 194.438 30.2781C195.024 30.0164 195.694 29.8856 196.447 29.8856C197.578 29.8856 198.493 30.163 199.194 30.7176C199.906 31.2618 200.299 32.0258 200.372 33.0096H197.954C197.933 32.6328 197.771 32.3241 197.468 32.0834C197.175 31.8322 196.782 31.7066 196.29 31.7066C195.861 31.7066 195.516 31.8165 195.254 32.0363C195.003 32.2561 194.877 32.5753 194.877 32.9939C194.877 33.2869 194.972 33.5329 195.16 33.7317C195.359 33.9201 195.6 34.0771 195.882 34.2026C196.175 34.3178 196.583 34.4538 197.107 34.6108C197.818 34.8201 198.399 35.0294 198.849 35.2387C199.299 35.448 199.686 35.762 200.011 36.1806C200.335 36.5992 200.497 37.1487 200.497 37.8289C200.497 38.415 200.346 38.9592 200.042 39.4616C199.739 39.9639 199.294 40.3668 198.708 40.6703C198.122 40.9634 197.426 41.1099 196.62 41.1099ZM206.265 41.1413C205.427 41.1413 204.674 40.9581 204.004 40.5918C203.334 40.2151 202.806 39.6866 202.418 39.0063C202.042 38.3261 201.853 37.5411 201.853 36.6516C201.853 35.762 202.047 34.9771 202.434 34.2968C202.832 33.6166 203.371 33.0933 204.051 32.727C204.731 32.3502 205.49 32.1619 206.327 32.1619C207.165 32.1619 207.923 32.3502 208.604 32.727C209.284 33.0933 209.818 33.6166 210.205 34.2968C210.603 34.9771 210.801 35.762 210.801 36.6516C210.801 37.5411 210.597 38.3261 210.189 39.0063C209.791 39.6866 209.247 40.2151 208.557 40.5918C207.876 40.9581 207.112 41.1413 206.265 41.1413ZM206.265 39.2261C206.662 39.2261 207.034 39.1319 207.379 38.9435C207.735 38.7447 208.018 38.4516 208.227 38.0644C208.436 37.6772 208.541 37.2062 208.541 36.6516C208.541 35.8248 208.321 35.1916 207.881 34.7521C207.452 34.3021 206.924 34.0771 206.296 34.0771C205.668 34.0771 205.14 34.3021 204.71 34.7521C204.292 35.1916 204.083 35.8248 204.083 36.6516C204.083 37.4784 204.287 38.1167 204.695 38.5668C205.113 39.0063 205.637 39.2261 206.265 39.2261ZM211.848 36.6516C211.848 35.7515 212.032 34.9666 212.398 34.2968C212.764 33.6166 213.272 33.0933 213.921 32.727C214.569 32.3502 215.312 32.1619 216.15 32.1619C217.228 32.1619 218.117 32.434 218.818 32.9782C219.53 33.5119 220.006 34.2654 220.247 35.2387H217.877C217.751 34.862 217.536 34.5689 217.233 34.3596C216.94 34.1399 216.574 34.03 216.134 34.03C215.506 34.03 215.009 34.2602 214.643 34.7207C214.276 35.1707 214.093 35.8143 214.093 36.6516C214.093 37.4784 214.276 38.122 214.643 38.5825C215.009 39.0325 215.506 39.2575 216.134 39.2575C217.024 39.2575 217.604 38.8598 217.877 38.0644H220.247C220.006 39.0063 219.53 39.7546 218.818 40.3093C218.107 40.8639 217.217 41.1413 216.15 41.1413C215.312 41.1413 214.569 40.9581 213.921 40.5918C213.272 40.2151 212.764 39.6918 212.398 39.022C212.032 38.3418 211.848 37.5516 211.848 36.6516ZM222.972 31.2671C222.584 31.2671 222.26 31.1467 221.998 30.906C221.747 30.6548 221.622 30.3461 221.622 29.9798C221.622 29.6135 221.747 29.31 221.998 29.0693C222.26 28.8181 222.584 28.6926 222.972 28.6926C223.359 28.6926 223.678 28.8181 223.929 29.0693C224.191 29.31 224.322 29.6135 224.322 29.9798C224.322 30.3461 224.191 30.6548 223.929 30.906C223.678 31.1467 223.359 31.2671 222.972 31.2671ZM224.055 32.3032V41H221.857V32.3032H224.055ZM225.661 36.6202C225.661 35.7411 225.834 34.9614 226.179 34.2811C226.535 33.6009 227.011 33.0776 227.608 32.7113C228.215 32.345 228.89 32.1619 229.633 32.1619C230.282 32.1619 230.847 32.2927 231.328 32.5543C231.82 32.816 232.212 33.1456 232.505 33.5433V32.3032H234.719V41H232.505V39.7284C232.223 40.1366 231.83 40.4767 231.328 40.7488C230.836 41.0105 230.266 41.1413 229.617 41.1413C228.884 41.1413 228.215 40.9529 227.608 40.5761C227.011 40.1994 226.535 39.6709 226.179 38.9906C225.834 38.2999 225.661 37.5097 225.661 36.6202ZM232.505 36.6516C232.505 36.1178 232.401 35.6626 232.192 35.2858C231.982 34.8986 231.7 34.6056 231.344 34.4067C230.988 34.1974 230.606 34.0928 230.198 34.0928C229.79 34.0928 229.413 34.1922 229.068 34.391C228.722 34.5899 228.44 34.8829 228.22 35.2701C228.011 35.6469 227.906 36.0969 227.906 36.6202C227.906 37.1435 228.011 37.6039 228.22 38.0016C228.44 38.3889 228.722 38.6871 229.068 38.8964C229.423 39.1057 229.8 39.2104 230.198 39.2104C230.606 39.2104 230.988 39.111 231.344 38.9121C231.7 38.7028 231.982 38.4098 232.192 38.033C232.401 37.6458 232.505 37.1853 232.505 36.6516ZM239.063 29.3833V41H236.865V29.3833H239.063Z" fill="#3E3E3E"/>
<path d="M85.339 57.8259H83.3925L85.0408 54.0897H86.2966L85.339 57.8259ZM88.1647 57.8259H86.2181L87.8665 54.0897H89.1223L88.1647 57.8259ZM97.3777 62.7708H92.8095L92.0245 65H90.1565L94.0653 54.074H96.1375L100.046 65H98.1626L97.3777 62.7708ZM96.8753 61.3109L95.1014 56.2404L93.3118 61.3109H96.8753ZM106.11 56.209C106.79 56.209 107.397 56.3502 107.931 56.6328C108.475 56.9154 108.899 57.334 109.203 57.8887C109.506 58.4434 109.658 59.1131 109.658 59.8981V65H107.884V60.1649C107.884 59.3905 107.69 58.7992 107.303 58.391C106.916 57.9724 106.387 57.7631 105.718 57.7631C105.048 57.7631 104.514 57.9724 104.116 58.391C103.729 58.7992 103.536 59.3905 103.536 60.1649V65H101.746V56.3503H103.536V57.3392C103.829 56.9834 104.2 56.7061 104.65 56.5072C105.111 56.3084 105.597 56.209 106.11 56.209ZM115.426 56.209C116.095 56.209 116.687 56.345 117.2 56.6171C117.723 56.8788 118.131 57.2084 118.424 57.6061V56.3503H120.229V65.1413C120.229 65.9367 120.062 66.6431 119.727 67.2606C119.392 67.8885 118.905 68.3804 118.267 68.7362C117.639 69.092 116.886 69.2699 116.006 69.2699C114.834 69.2699 113.861 68.9926 113.087 68.4379C112.312 67.8937 111.873 67.1507 111.768 66.2088H113.542C113.678 66.6588 113.966 67.0198 114.405 67.2919C114.855 67.5745 115.389 67.7158 116.006 67.7158C116.729 67.7158 117.309 67.496 117.749 67.0565C118.199 66.6169 118.424 65.9785 118.424 65.1413V63.697C118.121 64.1052 117.707 64.4506 117.184 64.7331C116.671 65.0052 116.085 65.1413 115.426 65.1413C114.672 65.1413 113.981 64.9529 113.353 64.5761C112.736 64.1889 112.244 63.6552 111.878 62.9749C111.522 62.2842 111.344 61.5045 111.344 60.6359C111.344 59.7672 111.522 58.998 111.878 58.3282C112.244 57.6584 112.736 57.1404 113.353 56.7741C113.981 56.3973 114.672 56.209 115.426 56.209ZM118.424 60.6673C118.424 60.0707 118.298 59.5527 118.047 59.1131C117.807 58.6736 117.487 58.3387 117.09 58.1085C116.692 57.8782 116.263 57.7631 115.802 57.7631C115.342 57.7631 114.913 57.8782 114.515 58.1085C114.117 58.3282 113.793 58.6579 113.542 59.0974C113.301 59.5265 113.181 60.0393 113.181 60.6359C113.181 61.2324 113.301 61.7557 113.542 62.2057C113.793 62.6557 114.117 63.0011 114.515 63.2418C114.923 63.472 115.352 63.5872 115.802 63.5872C116.263 63.5872 116.692 63.472 117.09 63.2418C117.487 63.0116 117.807 62.6767 118.047 62.2371C118.298 61.7871 118.424 61.2638 118.424 60.6673ZM130.508 60.4632C130.508 60.7876 130.487 61.0807 130.445 61.3423H123.836C123.888 62.033 124.144 62.5877 124.605 63.0063C125.065 63.4249 125.631 63.6342 126.3 63.6342C127.263 63.6342 127.943 63.2313 128.341 62.4255H130.272C130.01 63.2209 129.534 63.875 128.844 64.3878C128.163 64.8901 127.316 65.1413 126.3 65.1413C125.474 65.1413 124.731 64.9581 124.071 64.5918C123.422 64.2151 122.91 63.6918 122.533 63.022C122.167 62.3418 121.983 61.5568 121.983 60.6673C121.983 59.7777 122.161 58.998 122.517 58.3282C122.883 57.648 123.391 57.1247 124.04 56.7584C124.699 56.3921 125.453 56.209 126.3 56.209C127.117 56.209 127.844 56.3869 128.482 56.7427C129.121 57.0985 129.618 57.6009 129.974 58.2497C130.33 58.8881 130.508 59.626 130.508 60.4632ZM128.639 59.8981C128.629 59.2387 128.393 58.7102 127.933 58.3125C127.473 57.9148 126.902 57.716 126.222 57.716C125.604 57.716 125.076 57.9148 124.636 58.3125C124.197 58.6998 123.935 59.2283 123.851 59.8981H128.639ZM134.058 53.3833V65H132.269V53.3833H134.058ZM135.811 60.6359C135.811 59.7672 135.989 58.998 136.345 58.3282C136.711 57.6584 137.203 57.1404 137.821 56.7741C138.449 56.3973 139.139 56.209 139.893 56.209C140.573 56.209 141.164 56.345 141.667 56.6171C142.18 56.8788 142.588 57.2084 142.891 57.6061V56.3503H144.697V65H142.891V63.7127C142.588 64.1209 142.174 64.461 141.651 64.7331C141.128 65.0052 140.531 65.1413 139.861 65.1413C139.118 65.1413 138.438 64.9529 137.821 64.5761C137.203 64.1889 136.711 63.6552 136.345 62.9749C135.989 62.2842 135.811 61.5045 135.811 60.6359ZM142.891 60.6673C142.891 60.0707 142.766 59.5527 142.514 59.1131C142.274 58.6736 141.955 58.3387 141.557 58.1085C141.159 57.8782 140.73 57.7631 140.27 57.7631C139.809 57.7631 139.38 57.8782 138.982 58.1085C138.585 58.3282 138.26 58.6579 138.009 59.0974C137.768 59.5265 137.648 60.0393 137.648 60.6359C137.648 61.2324 137.768 61.7557 138.009 62.2057C138.26 62.6557 138.585 63.0011 138.982 63.2418C139.391 63.472 139.82 63.5872 140.27 63.5872C140.73 63.5872 141.159 63.472 141.557 63.2418C141.955 63.0116 142.274 62.6767 142.514 62.2371C142.766 61.7871 142.891 61.2638 142.891 60.6673ZM162.616 54.0897V65H160.827V57.5276L157.498 65H156.258L152.915 57.5276V65H151.125V54.0897H153.056L156.886 62.6453L160.701 54.0897H162.616ZM164.372 60.6359C164.372 59.7672 164.55 58.998 164.906 58.3282C165.272 57.6584 165.764 57.1404 166.381 56.7741C167.009 56.3973 167.7 56.209 168.453 56.209C169.134 56.209 169.725 56.345 170.227 56.6171C170.74 56.8788 171.148 57.2084 171.452 57.6061V56.3503H173.257V65H171.452V63.7127C171.148 64.1209 170.735 64.461 170.212 64.7331C169.688 65.0052 169.092 65.1413 168.422 65.1413C167.679 65.1413 166.999 64.9529 166.381 64.5761C165.764 64.1889 165.272 63.6552 164.906 62.9749C164.55 62.2842 164.372 61.5045 164.372 60.6359ZM171.452 60.6673C171.452 60.0707 171.326 59.5527 171.075 59.1131C170.834 58.6736 170.515 58.3387 170.117 58.1085C169.72 57.8782 169.291 57.7631 168.83 57.7631C168.37 57.7631 167.941 57.8782 167.543 58.1085C167.145 58.3282 166.821 58.6579 166.57 59.0974C166.329 59.5265 166.208 60.0393 166.208 60.6359C166.208 61.2324 166.329 61.7557 166.57 62.2057C166.821 62.6557 167.145 63.0011 167.543 63.2418C167.951 63.472 168.38 63.5872 168.83 63.5872C169.291 63.5872 169.72 63.472 170.117 63.2418C170.515 63.0116 170.834 62.6767 171.075 62.2371C171.326 61.7871 171.452 61.2638 171.452 60.6673ZM177.397 57.6061C177.659 57.1666 178.004 56.8264 178.433 56.5857C178.873 56.3346 179.391 56.209 179.987 56.209V58.0614H179.532C178.831 58.0614 178.297 58.2393 177.931 58.5951C177.575 58.9509 177.397 59.5684 177.397 60.4475V65H175.608V56.3503H177.397V57.6061ZM183.72 57.8102V62.5982C183.72 62.9226 183.794 63.1581 183.94 63.3046C184.097 63.4406 184.359 63.5087 184.725 63.5087H185.824V65H184.411C183.605 65 182.988 64.8116 182.559 64.4349C182.129 64.0581 181.915 63.4459 181.915 62.5982V57.8102H180.895V56.3503H181.915V54.1996H183.72V56.3503H185.824V57.8102H183.72ZM188.384 55.2043C188.059 55.2043 187.787 55.0944 187.567 54.8746C187.348 54.6548 187.238 54.3827 187.238 54.0583C187.238 53.7339 187.348 53.4618 187.567 53.242C187.787 53.0222 188.059 52.9123 188.384 52.9123C188.698 52.9123 188.965 53.0222 189.184 53.242C189.404 53.4618 189.514 53.7339 189.514 54.0583C189.514 54.3827 189.404 54.6548 189.184 54.8746C188.965 55.0944 188.698 55.2043 188.384 55.2043ZM189.263 56.3503V65H187.473V56.3503H189.263ZM195.977 56.209C196.657 56.209 197.264 56.3502 197.798 56.6328C198.342 56.9154 198.766 57.334 199.069 57.8887C199.373 58.4434 199.524 59.1131 199.524 59.8981V65H197.75V60.1649C197.75 59.3905 197.557 58.7992 197.17 58.391C196.782 57.9724 196.254 57.7631 195.584 57.7631C194.914 57.7631 194.381 57.9724 193.983 58.391C193.596 58.7992 193.402 59.3905 193.402 60.1649V65H191.612V56.3503H193.402V57.3392C193.695 56.9834 194.067 56.7061 194.517 56.5072C194.977 56.3084 195.464 56.209 195.977 56.209ZM211.725 59.3957C212.311 59.5004 212.808 59.8091 213.216 60.3219C213.624 60.8347 213.828 61.4156 213.828 62.0644C213.828 62.6191 213.682 63.1214 213.389 63.5715C213.106 64.011 212.693 64.3616 212.149 64.6232C211.604 64.8744 210.971 65 210.249 65H205.885V54.0897H210.045C210.788 54.0897 211.426 54.2153 211.96 54.4665C212.494 54.7176 212.897 55.0578 213.169 55.4868C213.441 55.9055 213.577 56.3764 213.577 56.8997C213.577 57.5276 213.41 58.0509 213.075 58.4695C212.74 58.8881 212.29 59.1969 211.725 59.3957ZM207.675 58.6736H209.888C210.474 58.6736 210.929 58.5428 211.254 58.2811C211.589 58.009 211.756 57.6218 211.756 57.1195C211.756 56.6276 211.589 56.2456 211.254 55.9735C210.929 55.6909 210.474 55.5496 209.888 55.5496H207.675V58.6736ZM210.092 63.5401C210.699 63.5401 211.175 63.3935 211.521 63.1005C211.866 62.8075 212.039 62.3993 212.039 61.876C212.039 61.3423 211.856 60.9184 211.489 60.6045C211.123 60.2905 210.636 60.1335 210.029 60.1335H207.675V63.5401H210.092ZM215.177 60.6359C215.177 59.7672 215.354 58.998 215.71 58.3282C216.077 57.6584 216.568 57.1404 217.186 56.7741C217.814 56.3973 218.505 56.209 219.258 56.209C219.938 56.209 220.53 56.345 221.032 56.6171C221.545 56.8788 221.953 57.2084 222.256 57.6061V56.3503H224.062V65H222.256V63.7127C221.953 64.1209 221.54 64.461 221.016 64.7331C220.493 65.0052 219.896 65.1413 219.227 65.1413C218.484 65.1413 217.803 64.9529 217.186 64.5761C216.568 64.1889 216.077 63.6552 215.71 62.9749C215.354 62.2842 215.177 61.5045 215.177 60.6359ZM222.256 60.6673C222.256 60.0707 222.131 59.5527 221.88 59.1131C221.639 58.6736 221.32 58.3387 220.922 58.1085C220.524 57.8782 220.095 57.7631 219.635 57.7631C219.174 57.7631 218.745 57.8782 218.348 58.1085C217.95 58.3282 217.625 58.6579 217.374 59.0974C217.134 59.5265 217.013 60.0393 217.013 60.6359C217.013 61.2324 217.134 61.7557 217.374 62.2057C217.625 62.6557 217.95 63.0011 218.348 63.2418C218.756 63.472 219.185 63.5872 219.635 63.5872C220.095 63.5872 220.524 63.472 220.922 63.2418C221.32 63.0116 221.639 62.6767 221.88 62.2371C222.131 61.7871 222.256 61.2638 222.256 60.6673ZM229.552 65.1413C228.872 65.1413 228.26 65.0209 227.715 64.7802C227.182 64.5291 226.758 64.1942 226.444 63.7755C226.13 63.3464 225.962 62.8703 225.941 62.347H227.794C227.825 62.7133 227.998 63.022 228.312 63.2732C228.636 63.5139 229.039 63.6342 229.521 63.6342C230.023 63.6342 230.41 63.5401 230.682 63.3517C230.965 63.1528 231.106 62.9017 231.106 62.5982C231.106 62.2737 230.949 62.033 230.635 61.876C230.332 61.7191 229.845 61.5464 229.175 61.358C228.526 61.1801 227.998 61.0074 227.59 60.84C227.182 60.6725 226.826 60.4161 226.522 60.0707C226.229 59.7254 226.083 59.2701 226.083 58.705C226.083 58.2445 226.219 57.8259 226.491 57.4491C226.763 57.0619 227.15 56.7584 227.653 56.5386C228.165 56.3189 228.751 56.209 229.411 56.209C230.394 56.209 231.185 56.4601 231.781 56.9625C232.388 57.4544 232.713 58.1294 232.754 58.9876H230.965C230.933 58.6003 230.776 58.2916 230.494 58.0614C230.211 57.8311 229.829 57.716 229.348 57.716C228.877 57.716 228.516 57.805 228.265 57.9829C228.014 58.1608 227.888 58.3963 227.888 58.6893C227.888 58.9195 227.972 59.1131 228.139 59.2701C228.307 59.4271 228.511 59.5527 228.751 59.6469C228.992 59.7306 229.348 59.8405 229.819 59.9766C230.447 60.144 230.96 60.3167 231.357 60.4946C231.765 60.662 232.116 60.9132 232.409 61.2481C232.702 61.583 232.854 62.0278 232.864 62.5825C232.864 63.0743 232.728 63.5139 232.456 63.9011C232.184 64.2883 231.797 64.5918 231.295 64.8116C230.803 65.0314 230.222 65.1413 229.552 65.1413ZM237.938 65.1413C237.257 65.1413 236.645 65.0209 236.101 64.7802C235.567 64.5291 235.143 64.1942 234.829 63.7755C234.515 63.3464 234.348 62.8703 234.327 62.347H236.179C236.211 62.7133 236.384 63.022 236.698 63.2732C237.022 63.5139 237.425 63.6342 237.906 63.6342C238.409 63.6342 238.796 63.5401 239.068 63.3517C239.351 63.1528 239.492 62.9017 239.492 62.5982C239.492 62.2737 239.335 62.033 239.021 61.876C238.717 61.7191 238.231 61.5464 237.561 61.358C236.912 61.1801 236.384 61.0074 235.975 60.84C235.567 60.6725 235.211 60.4161 234.908 60.0707C234.615 59.7254 234.468 59.2701 234.468 58.705C234.468 58.2445 234.604 57.8259 234.877 57.4491C235.149 57.0619 235.536 56.7584 236.038 56.5386C236.551 56.3189 237.137 56.209 237.796 56.209C238.78 56.209 239.57 56.4601 240.167 56.9625C240.774 57.4544 241.098 58.1294 241.14 58.9876H239.351C239.319 58.6003 239.162 58.2916 238.88 58.0614C238.597 57.8311 238.215 57.716 237.734 57.716C237.263 57.716 236.902 57.805 236.65 57.9829C236.399 58.1608 236.274 58.3963 236.274 58.6893C236.274 58.9195 236.357 59.1131 236.525 59.2701C236.692 59.4271 236.896 59.5527 237.137 59.6469C237.378 59.7306 237.734 59.8405 238.205 59.9766C238.832 60.144 239.345 60.3167 239.743 60.4946C240.151 60.662 240.502 60.9132 240.795 61.2481C241.088 61.583 241.24 62.0278 241.25 62.5825C241.25 63.0743 241.114 63.5139 240.842 63.9011C240.57 64.2883 240.183 64.5918 239.68 64.8116C239.188 65.0314 238.607 65.1413 237.938 65.1413ZM251.111 60.4632C251.111 60.7876 251.09 61.0807 251.049 61.3423H244.44C244.492 62.033 244.748 62.5877 245.209 63.0063C245.669 63.4249 246.234 63.6342 246.904 63.6342C247.867 63.6342 248.547 63.2313 248.945 62.4255H250.876C250.614 63.2209 250.138 63.875 249.447 64.3878C248.767 64.8901 247.919 65.1413 246.904 65.1413C246.077 65.1413 245.334 64.9581 244.675 64.5918C244.026 64.2151 243.513 63.6918 243.137 63.022C242.77 62.3418 242.587 61.5568 242.587 60.6673C242.587 59.7777 242.765 58.998 243.121 58.3282C243.487 57.648 243.995 57.1247 244.644 56.7584C245.303 56.3921 246.057 56.209 246.904 56.209C247.721 56.209 248.448 56.3869 249.086 56.7427C249.725 57.0985 250.222 57.6009 250.578 58.2497C250.933 58.8881 251.111 59.626 251.111 60.4632ZM249.243 59.8981C249.233 59.2387 248.997 58.7102 248.537 58.3125C248.076 57.9148 247.506 57.716 246.826 57.716C246.208 57.716 245.68 57.9148 245.24 58.3125C244.801 58.6998 244.539 59.2283 244.455 59.8981H249.243ZM254.96 57.8102V62.5982C254.96 62.9226 255.034 63.1581 255.18 63.3046C255.337 63.4406 255.599 63.5087 255.965 63.5087H257.064V65H255.651C254.845 65 254.228 64.8116 253.799 64.4349C253.37 64.0581 253.155 63.4459 253.155 62.5982V57.8102H252.135V56.3503H253.155V54.1996H254.96V56.3503H257.064V57.8102H254.96ZM260.801 57.8102V62.5982C260.801 62.9226 260.875 63.1581 261.021 63.3046C261.178 63.4406 261.44 63.5087 261.806 63.5087H262.905V65H261.492C260.686 65 260.069 64.8116 259.64 64.4349C259.21 64.0581 258.996 63.4459 258.996 62.5982V57.8102H257.976V56.3503H258.996V54.1996H260.801V56.3503H262.905V57.8102H260.801ZM268.306 65.1413C267.49 65.1413 266.752 64.9581 266.093 64.5918C265.433 64.2151 264.915 63.6918 264.539 63.022C264.162 62.3418 263.973 61.5568 263.973 60.6673C263.973 59.7882 264.167 59.0085 264.554 58.3282C264.941 57.648 265.47 57.1247 266.14 56.7584C266.81 56.3921 267.558 56.209 268.385 56.209C269.211 56.209 269.96 56.3921 270.629 56.7584C271.299 57.1247 271.828 57.648 272.215 58.3282C272.602 59.0085 272.796 59.7882 272.796 60.6673C272.796 61.5464 272.597 62.3261 272.199 63.0063C271.802 63.6866 271.257 64.2151 270.567 64.5918C269.886 64.9581 269.133 65.1413 268.306 65.1413ZM268.306 63.5872C268.767 63.5872 269.196 63.4773 269.593 63.2575C270.002 63.0377 270.331 62.7081 270.582 62.2685C270.834 61.8289 270.959 61.2952 270.959 60.6673C270.959 60.0393 270.839 59.5108 270.598 59.0818C270.357 58.6422 270.038 58.3125 269.64 58.0928C269.243 57.873 268.814 57.7631 268.353 57.7631C267.893 57.7631 267.464 57.873 267.066 58.0928C266.679 58.3125 266.37 58.6422 266.14 59.0818C265.91 59.5108 265.794 60.0393 265.794 60.6673C265.794 61.5987 266.03 62.3208 266.501 62.8336C266.982 63.336 267.584 63.5872 268.306 63.5872ZM274.848 54.0897H276.794L275.146 57.8259H273.89L274.848 54.0897ZM277.673 54.0897H279.62L277.971 57.8259H276.716L277.673 54.0897Z" fill="#7D3A7F"/>
<line x1="70.9534" y1="68" x2="70.9534" y2="5.2069" stroke="#7D3A7F" stroke-width="2.0931"/>
<path fill-rule="evenodd" clip-rule="evenodd" d="M52.5009 10C52.6628 10 52.8181 10.0643 52.9325 10.1788C53.047 10.2933 53.1114 10.4486 53.1114 10.6105V12.2384C53.1114 12.4003 53.047 12.5556 52.9325 12.6701C52.8181 12.7846 52.6628 12.8489 52.5009 12.8489C52.339 12.8489 52.1837 12.7846 52.0692 12.6701C51.9547 12.5556 51.8904 12.4003 51.8904 12.2384V10.6105C51.8904 10.4486 51.9547 10.2933 52.0692 10.1788C52.1837 10.0643 52.339 10 52.5009 10ZM47.1857 13.4349C47.3001 13.3206 47.4553 13.2564 47.6171 13.2564C47.7789 13.2564 47.934 13.3206 48.0485 13.4349L48.3285 13.7141C48.4396 13.8293 48.5011 13.9836 48.4996 14.1436C48.4982 14.3037 48.4339 14.4568 48.3206 14.5699C48.2074 14.683 48.0543 14.7472 47.8942 14.7485C47.7341 14.7498 47.5799 14.6882 47.4649 14.5769L47.1857 14.2977C47.0714 14.1833 47.0071 14.0281 47.0071 13.8663C47.0071 13.7046 47.0714 13.5494 47.1857 13.4349ZM57.8161 13.4349C57.9304 13.5494 57.9946 13.7046 57.9946 13.8663C57.9946 14.0281 57.9304 14.1833 57.8161 14.2977L57.5369 14.5778C57.4217 14.6889 57.2675 14.7504 57.1074 14.7489C56.9473 14.7474 56.7943 14.6832 56.6811 14.5699C56.568 14.4567 56.5039 14.3035 56.5025 14.1435C56.5012 13.9834 56.5628 13.8292 56.6741 13.7141L56.9533 13.4349C57.0677 13.3206 57.2229 13.2564 57.3847 13.2564C57.5465 13.2564 57.7016 13.3206 57.8161 13.4349ZM43.7507 18.7501C43.7507 18.5882 43.8151 18.433 43.9295 18.3185C44.044 18.204 44.1993 18.1397 44.3612 18.1397H45.9891C46.151 18.1397 46.3063 18.204 46.4208 18.3185C46.5353 18.433 46.5996 18.5882 46.5996 18.7501C46.5996 18.9121 46.5353 19.0673 46.4208 19.1818C46.3063 19.2963 46.151 19.3606 45.9891 19.3606H44.3612C44.1993 19.3606 44.044 19.2963 43.9295 19.1818C43.8151 19.0673 43.7507 18.9121 43.7507 18.7501ZM58.4021 18.7501C58.4021 18.5882 58.4665 18.433 58.5809 18.3185C58.6954 18.204 58.8507 18.1397 59.0126 18.1397H60.6405C60.8025 18.1397 60.9577 18.204 61.0722 18.3185C61.1867 18.433 61.251 18.5882 61.251 18.7501C61.251 18.9121 61.1867 19.0673 61.0722 19.1818C60.9577 19.2963 60.8025 19.3606 60.6405 19.3606H59.0126C58.8507 19.3606 58.6954 19.2963 58.5809 19.1818C58.4665 19.0673 58.4021 18.9121 58.4021 18.7501ZM48.3277 22.9234C48.442 23.0378 48.5062 23.193 48.5062 23.3548C48.5062 23.5165 48.442 23.6717 48.3277 23.7862L48.0485 24.0654C47.9328 24.1732 47.7797 24.2319 47.6215 24.2291C47.4634 24.2263 47.3125 24.1622 47.2006 24.0504C47.0888 23.9385 47.0247 23.7876 47.0219 23.6295C47.0191 23.4713 47.0778 23.3183 47.1857 23.2025L47.4649 22.9234C47.5793 22.809 47.7345 22.7448 47.8963 22.7448C48.058 22.7448 48.2132 22.809 48.3277 22.9234ZM56.6741 22.9234C56.7886 22.809 56.9437 22.7448 57.1055 22.7448C57.2673 22.7448 57.4224 22.809 57.5369 22.9234L57.8161 23.2025C57.8761 23.2584 57.9242 23.3258 57.9575 23.4007C57.9909 23.4756 58.0088 23.5564 58.0103 23.6384C58.0117 23.7204 57.9967 23.8018 57.966 23.8778C57.9352 23.9538 57.8895 24.0229 57.8316 24.0808C57.7736 24.1388 57.7046 24.1845 57.6285 24.2152C57.5525 24.2459 57.4711 24.261 57.3891 24.2596C57.3072 24.2581 57.2263 24.2402 57.1514 24.2068C57.0766 24.1734 57.0092 24.1253 56.9533 24.0654L56.6741 23.7862C56.5598 23.6717 56.4956 23.5165 56.4956 23.3548C56.4956 23.193 56.5598 23.0378 56.6741 22.9234ZM52.5009 24.6514C52.6628 24.6514 52.8181 24.7157 52.9325 24.8302C53.047 24.9447 53.1114 25.1 53.1114 25.2619V26.8898C53.1114 27.0517 53.047 27.207 52.9325 27.3215C52.8181 27.436 52.6628 27.5003 52.5009 27.5003C52.339 27.5003 52.1837 27.436 52.0692 27.3215C51.9547 27.207 51.8904 27.0517 51.8904 26.8898V25.2619C51.8904 25.1 51.9547 24.9447 52.0692 24.8302C52.1837 24.7157 52.339 24.6514 52.5009 24.6514Z" fill="#5B3873"/>
<path d="M48.431 17.985C48.431 20.0541 50.0671 21.1571 51.2636 22.1444C51.6869 22.492 52.0939 22.82 52.5009 22.82C52.9078 22.82 53.3148 22.492 53.7381 22.1444C54.9346 21.1571 56.5707 20.0541 56.5707 17.985C56.5707 15.9151 54.3323 14.4475 52.5009 16.4369C50.6694 14.4475 48.431 15.9159 48.431 17.985Z" fill="#5B3873"/>
<path d="M37.7161 18.7502C39.4994 19.767 45.2594 23.4119 48.5784 29.5913C43.4266 32.7727 39.5759 37.6845 37.7161 43.4467C35.8564 37.6845 32.0057 32.7727 26.8539 29.5913C30.1729 23.43 35.9359 19.77 37.7161 18.7502ZM14.7847 39.0988V28.2667C20.6469 28.5837 26.1651 31.1338 30.2055 35.393C34.2459 39.6523 36.5016 45.2972 36.5092 51.1679V62C30.647 61.683 25.1289 59.1329 21.0885 54.8737C17.0481 50.6144 14.7924 44.9695 14.7847 39.0988ZM60.6476 39.0988C60.6399 44.9695 58.3842 50.6144 54.3438 54.8737C50.3034 59.1329 44.7853 61.683 38.9231 62V51.1679C38.9307 45.2972 41.1864 39.6523 45.2268 35.393C49.2672 31.1338 54.7854 28.5837 60.6476 28.2667V39.0988Z" fill="#BF73BA"/>
<path d="M7.65671 38.0608C8.46933 38.0608 9.24866 38.3844 9.82327 38.9605C10.3979 39.5366 10.7207 40.3179 10.7207 41.1325C10.7207 41.9472 10.3979 42.7285 9.82327 43.3046C9.24866 43.8806 8.46933 44.2043 7.65671 44.2043C6.84409 44.2043 6.06475 43.8806 5.49014 43.3046C4.91553 42.7285 4.59272 41.9472 4.59272 41.1325C4.59272 40.3179 4.91553 39.5366 5.49014 38.9605C6.06475 38.3844 6.84409 38.0608 7.65671 38.0608ZM4.20972 60.3616V56.5219H3.35755C2.83572 56.5219 2.46708 56.0083 2.62986 55.5092L4.11876 51.0264L2.74954 52.8406C2.23728 53.5174 1.275 53.647 0.604755 53.1382C-0.0654914 52.6294 -0.199541 51.6647 0.307932 50.988L3.12776 47.2587C4.20015 45.8381 5.88055 45.0029 7.65671 45.0029C9.43286 45.0029 11.1133 45.8381 12.1857 47.2587L15.0055 50.988C15.5177 51.6647 15.3837 52.6294 14.7087 53.1382C14.0336 53.647 13.0713 53.5174 12.5639 52.8406L11.1947 51.0264L12.6836 55.5092C12.8511 56.0083 12.4777 56.5219 11.9559 56.5219H11.1037V60.3616C11.1037 61.2111 10.4191 61.8974 9.5717 61.8974C8.72431 61.8974 8.03971 61.2111 8.03971 60.3616V56.5219H7.27371V60.3616C7.27371 61.2111 6.5891 61.8974 5.74172 61.8974C4.89433 61.8974 4.20972 61.2111 4.20972 60.3616ZM22.9766 38.0608C23.7893 38.0608 24.5686 38.3844 25.1432 38.9605C25.7178 39.5366 26.0406 40.3179 26.0406 41.1325C26.0406 41.9472 25.7178 42.7285 25.1432 43.3046C24.5686 43.8806 23.7893 44.2043 22.9766 44.2043C22.164 44.2043 21.3847 43.8806 20.8101 43.3046C20.2355 42.7285 19.9126 41.9472 19.9126 41.1325C19.9126 40.3179 20.2355 39.5366 20.8101 38.9605C21.3847 38.3844 22.164 38.0608 22.9766 38.0608ZM22.5936 55.754V60.3616C22.5936 61.2111 21.909 61.8974 21.0616 61.8974C20.2143 61.8974 19.5296 61.2111 19.5296 60.3616V51.7463L18.9121 52.7302C18.462 53.4502 17.5141 53.6614 16.8008 53.2102C16.0875 52.759 15.872 51.8087 16.322 51.0936L18.7972 47.1531C19.6398 45.8141 21.1095 44.9981 22.6846 44.9981H23.2735C24.8533 44.9981 26.3231 45.8093 27.1609 47.1531L29.636 51.0984C30.086 51.8183 29.8706 52.7638 29.1573 53.215C28.4439 53.6662 27.496 53.4502 27.046 52.735L26.4236 51.7463V60.3616C26.4236 61.2111 25.739 61.8974 24.8916 61.8974C24.0442 61.8974 23.3596 61.2111 23.3596 60.3616V55.754H22.5936Z" fill="#5B3873"/>
</svg>
