<svg width="322" height="88" viewBox="0 0 322 88" fill="none" xmlns="http://www.w3.org/2000/svg">
<path fill-rule="evenodd" clip-rule="evenodd" d="M88.5025 0.490631C88.7727 0.490631 89.0318 0.597335 89.2228 0.787268C89.4138 0.977202 89.5212 1.23481 89.5212 1.50341V4.20417C89.5212 4.47277 89.4138 4.73038 89.2228 4.92031C89.0318 5.11024 88.7727 5.21695 88.5025 5.21695C88.2323 5.21695 87.9732 5.11024 87.7822 4.92031C87.5911 4.73038 87.4838 4.47277 87.4838 4.20417V1.50341C87.4838 1.23481 87.5911 0.977202 87.7822 0.787268C87.9732 0.597335 88.2323 0.490631 88.5025 0.490631ZM79.6332 6.18922C79.8242 5.99956 80.0832 5.89303 80.3531 5.89303C80.6231 5.89303 80.882 5.99956 81.073 6.18922L81.5402 6.6524C81.7257 6.8435 81.8282 7.09938 81.8258 7.36493C81.8233 7.63047 81.7161 7.88444 81.5271 8.07213C81.3382 8.25982 81.0826 8.36622 80.8155 8.3684C80.5484 8.37058 80.2912 8.26838 80.0991 8.0838L79.6332 7.62062C79.4425 7.43072 79.3353 7.17331 79.3353 6.90492C79.3353 6.63653 79.4425 6.37912 79.6332 6.18922ZM97.3717 6.18922C97.5625 6.37912 97.6697 6.63653 97.6697 6.90492C97.6697 7.17331 97.5625 7.43072 97.3717 7.62062L96.9059 8.08515C96.7137 8.26955 96.4563 8.37151 96.1892 8.36908C95.9221 8.36665 95.6667 8.26001 95.4779 8.07215C95.2891 7.88428 95.1821 7.63021 95.1799 7.36466C95.1777 7.09911 95.2805 6.84332 95.4661 6.6524L95.932 6.18922C96.123 5.99956 96.3819 5.89303 96.6519 5.89303C96.9218 5.89303 97.1807 5.99956 97.3717 6.18922ZM73.9015 15.0072C73.9015 14.7386 74.0088 14.481 74.1999 14.291C74.3909 14.1011 74.65 13.9944 74.9202 13.9944H77.6366C77.9068 13.9944 78.1659 14.1011 78.357 14.291C78.548 14.481 78.6553 14.7386 78.6553 15.0072C78.6553 15.2758 78.548 15.5334 78.357 15.7233C78.1659 15.9133 77.9068 16.02 77.6366 16.02H74.9202C74.65 16.02 74.3909 15.9133 74.1999 15.7233C74.0088 15.5334 73.9015 15.2758 73.9015 15.0072ZM98.3497 15.0072C98.3497 14.7386 98.457 14.481 98.648 14.291C98.8391 14.1011 99.0982 13.9944 99.3683 13.9944H102.085C102.355 13.9944 102.614 14.1011 102.805 14.291C102.996 14.481 103.103 14.7386 103.103 15.0072C103.103 15.2758 102.996 15.5334 102.805 15.7233C102.614 15.9133 102.355 16.02 102.085 16.02H99.3683C99.0982 16.02 98.8391 15.9133 98.648 15.7233C98.457 15.5334 98.3497 15.2758 98.3497 15.0072ZM81.5388 21.9306C81.7296 22.1205 81.8368 22.3779 81.8368 22.6463C81.8368 22.9146 81.7296 23.1721 81.5388 23.362L81.073 23.8251C80.8799 24.004 80.6244 24.1014 80.3605 24.0968C80.0966 24.0922 79.8448 23.9859 79.6582 23.8003C79.4716 23.6148 79.3647 23.3644 79.36 23.102C79.3553 22.8397 79.4533 22.5857 79.6332 22.3937L80.0991 21.9306C80.2901 21.7409 80.549 21.6344 80.819 21.6344C81.0889 21.6344 81.3478 21.7409 81.5388 21.9306ZM95.4661 21.9306C95.6572 21.7409 95.9161 21.6344 96.186 21.6344C96.456 21.6344 96.7149 21.7409 96.9059 21.9306L97.3717 22.3937C97.4718 22.4865 97.5521 22.5983 97.6078 22.7225C97.6635 22.8467 97.6934 22.9808 97.6958 23.1168C97.6982 23.2528 97.6731 23.3879 97.6218 23.514C97.5706 23.6401 97.4943 23.7547 97.3976 23.8508C97.3009 23.947 97.1856 24.0228 97.0588 24.0738C96.932 24.1247 96.7961 24.1497 96.6593 24.1473C96.5225 24.1449 96.3877 24.1152 96.2627 24.0598C96.1377 24.0044 96.0253 23.9246 95.932 23.8251L95.4661 23.362C95.2754 23.1721 95.1682 22.9146 95.1682 22.6463C95.1682 22.3779 95.2754 22.1205 95.4661 21.9306ZM88.5025 24.7974C88.7727 24.7974 89.0318 24.9041 89.2228 25.094C89.4138 25.284 89.5212 25.5416 89.5212 25.8102V28.5109C89.5212 28.7795 89.4138 29.0372 89.2228 29.2271C89.0318 29.417 88.7727 29.5237 88.5025 29.5237C88.2323 29.5237 87.9732 29.417 87.7822 29.2271C87.5911 29.0372 87.4838 28.7795 87.4838 28.5109V25.8102C87.4838 25.5416 87.5911 25.284 87.7822 25.094C87.9732 24.9041 88.2323 24.7974 88.5025 24.7974Z" fill="#F2E9EB"/>
<path d="M81.7113 13.7378C81.7113 17.1705 84.4414 19.0002 86.438 20.6383C87.1443 21.2149 87.8234 21.7591 88.5025 21.7591C89.1816 21.7591 89.8607 21.2149 90.567 20.6383C92.5636 19.0002 95.2937 17.1705 95.2937 13.7378C95.2937 10.3038 91.5585 7.86909 88.5025 11.1694C85.4465 7.86909 81.7113 10.3052 81.7113 13.7378Z" fill="#F2E9EB"/>
<path d="M63.4146 15.6271C66.4129 17.3268 76.0976 23.4198 81.6781 33.7496C73.016 39.0677 66.5416 47.2785 63.4146 56.9108C60.2877 47.2785 53.8132 39.0677 45.1512 33.7496C50.7317 23.4501 60.4215 17.3319 63.4146 15.6271ZM24.8586 49.6427V31.5353C34.715 32.0653 43.9931 36.3281 50.7865 43.448C57.5798 50.568 61.3725 60.0042 61.3854 69.818V87.9254C51.5289 87.3954 42.2508 83.1326 35.4575 76.0126C28.6641 68.8927 24.8714 59.4565 24.8586 49.6427ZM101.971 49.6427C101.958 59.4565 98.1652 68.8927 91.3718 76.0126C84.5785 83.1326 75.3004 87.3954 65.4439 87.9254V69.818C65.4567 60.0042 69.2495 50.568 76.0428 43.448C82.8362 36.3281 92.1143 32.0653 101.971 31.5353V49.6427Z" fill="#BF73BA"/>
<path d="M12.8737 47.9076C14.24 47.9076 15.5504 48.4486 16.5165 49.4116C17.4826 50.3745 18.0254 51.6806 18.0254 53.0425C18.0254 54.4043 17.4826 55.7104 16.5165 56.6733C15.5504 57.6363 14.24 58.1773 12.8737 58.1773C11.5074 58.1773 10.1971 57.6363 9.23094 56.6733C8.26481 55.7104 7.72205 54.4043 7.72205 53.0425C7.72205 51.6806 8.26481 50.3745 9.23094 49.4116C10.1971 48.4486 11.5074 47.9076 12.8737 47.9076ZM7.07809 85.1865V78.7679H5.64528C4.76788 78.7679 4.14807 77.9095 4.42175 77.0751L6.92515 69.5814L4.62299 72.6142C3.76169 73.7454 2.14374 73.9621 1.01681 73.1116C-0.110115 72.2612 -0.335501 70.6485 0.517746 69.5172L5.2589 63.2832C7.06199 60.9084 9.88736 59.5123 12.8737 59.5123C15.8601 59.5123 18.6855 60.9084 20.4885 63.2832L25.2297 69.5172C26.091 70.6485 25.8656 72.2612 24.7306 73.1116C23.5957 73.9621 21.9777 73.7454 21.1245 72.6142L18.8223 69.5814L21.3257 77.0751C21.6074 77.9095 20.9796 78.7679 20.1022 78.7679H18.6694V85.1865C18.6694 86.6066 17.5183 87.7539 16.0935 87.7539C14.6688 87.7539 13.5177 86.6066 13.5177 85.1865V78.7679H12.2298V85.1865C12.2298 86.6066 11.0787 87.7539 9.65392 87.7539C8.22916 87.7539 7.07809 86.6066 7.07809 85.1865ZM38.6321 47.9076C39.9984 47.9076 41.3088 48.4486 42.2749 49.4116C43.241 50.3745 43.7838 51.6806 43.7838 53.0425C43.7838 54.4043 43.241 55.7104 42.2749 56.6733C41.3088 57.6363 39.9984 58.1773 38.6321 58.1773C37.2658 58.1773 35.9555 57.6363 34.9893 56.6733C34.0232 55.7104 33.4804 54.4043 33.4804 53.0425C33.4804 51.6806 34.0232 50.3745 34.9893 49.4116C35.9555 48.4486 37.2658 47.9076 38.6321 47.9076ZM37.9882 77.4842V85.1865C37.9882 86.6066 36.8371 87.7539 35.4123 87.7539C33.9876 87.7539 32.8365 86.6066 32.8365 85.1865V70.7849L31.7981 72.4296C31.0414 73.6331 29.4476 73.9861 28.2483 73.232C27.0489 72.4778 26.6867 70.8892 27.4433 69.6937L31.6049 63.1067C33.0216 60.8683 35.4928 59.5043 38.1411 59.5043H39.1312C41.7875 59.5043 44.2587 60.8602 45.6674 63.1067L49.829 69.7018C50.5856 70.9052 50.2234 72.4858 49.024 73.24C47.8246 73.9942 46.2308 73.6331 45.4742 72.4377L44.4277 70.7849V85.1865C44.4277 86.6066 43.2767 87.7539 41.8519 87.7539C40.4272 87.7539 39.2761 86.6066 39.2761 85.1865V77.4842H37.9882Z" fill="#F2E9EB"/>
<line x1="112.953" y1="87.9254" x2="112.953" y2="25.1323" stroke="#D4C7D9" stroke-width="2.0931"/>
<path d="M134.455 32.9254H132.257L127.281 25.4059V32.9254H125.083V21.9523H127.281L132.257 29.4875V21.9523H134.455V32.9254ZM144.837 24.2285V32.9254H142.624V31.8265C142.341 32.2033 141.97 32.5015 141.509 32.7213C141.059 32.9306 140.567 33.0353 140.033 33.0353C139.353 33.0353 138.751 32.894 138.228 32.6114C137.705 32.3184 137.291 31.8945 136.988 31.3399C136.695 30.7747 136.548 30.1049 136.548 29.3305V24.2285H138.746V29.0165C138.746 29.7072 138.919 30.241 139.264 30.6177C139.61 30.984 140.081 31.1672 140.677 31.1672C141.284 31.1672 141.76 30.984 142.106 30.6177C142.451 30.241 142.624 29.7072 142.624 29.0165V24.2285H144.837ZM142.451 21.968L138.84 23.6163V22.0465L142.451 20.1784V21.968ZM146.44 28.577C146.44 27.6769 146.624 26.892 146.99 26.2222C147.356 25.542 147.864 25.0187 148.513 24.6524C149.161 24.2756 149.905 24.0873 150.742 24.0873C151.82 24.0873 152.709 24.3594 153.41 24.9036C154.122 25.4373 154.598 26.1908 154.839 27.1641H152.469C152.343 26.7874 152.128 26.4943 151.825 26.285C151.532 26.0652 151.166 25.9553 150.726 25.9553C150.098 25.9553 149.601 26.1856 149.235 26.6461C148.868 27.0961 148.685 27.7397 148.685 28.577C148.685 29.4037 148.868 30.0474 149.235 30.5078C149.601 30.9579 150.098 31.1829 150.726 31.1829C151.616 31.1829 152.196 30.7852 152.469 29.9898H154.839C154.598 30.9317 154.122 31.68 153.41 32.2347C152.699 32.7893 151.809 33.0667 150.742 33.0667C149.905 33.0667 149.161 32.8835 148.513 32.5172C147.864 32.1405 147.356 31.6172 146.99 30.9474C146.624 30.2671 146.44 29.477 146.44 28.577ZM158.647 21.3087V32.9254H156.449V21.3087H158.647ZM168.903 28.3886C168.903 28.7025 168.882 28.9851 168.84 29.2363H162.482C162.535 29.8642 162.754 30.3561 163.142 30.7119C163.529 31.0678 164.005 31.2457 164.57 31.2457C165.386 31.2457 165.967 30.8951 166.313 30.1939H168.683C168.432 31.0311 167.95 31.7219 167.239 32.2661C166.527 32.7998 165.653 33.0667 164.617 33.0667C163.78 33.0667 163.026 32.8835 162.357 32.5172C161.697 32.1405 161.179 31.612 160.803 30.9317C160.436 30.2514 160.253 29.4665 160.253 28.577C160.253 27.6769 160.436 26.8868 160.803 26.2065C161.169 25.5263 161.682 25.003 162.341 24.6367C163 24.2704 163.759 24.0873 164.617 24.0873C165.444 24.0873 166.182 24.2652 166.831 24.621C167.49 24.9768 167.998 25.4844 168.353 26.1437C168.72 26.7926 168.903 27.5409 168.903 28.3886ZM166.627 27.7607C166.616 27.1955 166.412 26.7455 166.014 26.4106C165.617 26.0652 165.13 25.8926 164.554 25.8926C164.01 25.8926 163.55 26.06 163.173 26.3949C162.807 26.7193 162.582 27.1746 162.498 27.7607H166.627ZM174.369 33.0667C173.532 33.0667 172.778 32.8835 172.108 32.5172C171.438 32.1405 170.91 31.612 170.523 30.9317C170.146 30.2514 169.958 29.4665 169.958 28.577C169.958 27.6874 170.151 26.9025 170.538 26.2222C170.936 25.542 171.475 25.0187 172.155 24.6524C172.836 24.2756 173.594 24.0873 174.432 24.0873C175.269 24.0873 176.028 24.2756 176.708 24.6524C177.388 25.0187 177.922 25.542 178.309 26.2222C178.707 26.9025 178.906 27.6874 178.906 28.577C178.906 29.4665 178.702 30.2514 178.293 30.9317C177.896 31.612 177.351 32.1405 176.661 32.5172C175.98 32.8835 175.216 33.0667 174.369 33.0667ZM174.369 31.1515C174.766 31.1515 175.138 31.0573 175.483 30.8689C175.839 30.6701 176.122 30.377 176.331 29.9898C176.54 29.6026 176.645 29.1316 176.645 28.577C176.645 27.7502 176.425 27.117 175.986 26.6775C175.557 26.2275 175.028 26.0024 174.4 26.0024C173.772 26.0024 173.244 26.2275 172.815 26.6775C172.396 27.117 172.187 27.7502 172.187 28.577C172.187 29.4037 172.391 30.0421 172.799 30.4922C173.218 30.9317 173.741 31.1515 174.369 31.1515ZM183.693 28.5456C183.693 27.6665 183.866 26.8868 184.211 26.2065C184.567 25.5263 185.048 25.003 185.655 24.6367C186.262 24.2704 186.937 24.0873 187.681 24.0873C188.246 24.0873 188.785 24.2128 189.297 24.464C189.81 24.7047 190.218 25.0292 190.522 25.4373V21.3087H192.751V32.9254H190.522V31.6381C190.25 32.0672 189.868 32.4126 189.376 32.6742C188.884 32.9359 188.314 33.0667 187.665 33.0667C186.932 33.0667 186.262 32.8783 185.655 32.5015C185.048 32.1248 184.567 31.5963 184.211 30.916C183.866 30.2253 183.693 29.4351 183.693 28.5456ZM190.538 28.577C190.538 28.0432 190.433 27.588 190.224 27.2112C190.014 26.824 189.732 26.531 189.376 26.3321C189.02 26.1228 188.638 26.0181 188.23 26.0181C187.822 26.0181 187.445 26.1176 187.1 26.3164C186.754 26.5153 186.472 26.8083 186.252 27.1955C186.043 27.5723 185.938 28.0223 185.938 28.5456C185.938 29.0688 186.043 29.5293 186.252 29.927C186.472 30.3142 186.754 30.6125 187.1 30.8218C187.456 31.0311 187.832 31.1358 188.23 31.1358C188.638 31.1358 189.02 31.0364 189.376 30.8375C189.732 30.6282 190.014 30.3352 190.224 29.9584C190.433 29.5712 190.538 29.1107 190.538 28.577ZM202.982 28.3886C202.982 28.7025 202.961 28.9851 202.919 29.2363H196.562C196.614 29.8642 196.834 30.3561 197.221 30.7119C197.608 31.0678 198.084 31.2457 198.649 31.2457C199.466 31.2457 200.047 30.8951 200.392 30.1939H202.762C202.511 31.0311 202.03 31.7219 201.318 32.2661C200.607 32.7998 199.733 33.0667 198.697 33.0667C197.859 33.0667 197.106 32.8835 196.436 32.5172C195.777 32.1405 195.259 31.612 194.882 30.9317C194.516 30.2514 194.332 29.4665 194.332 28.577C194.332 27.6769 194.516 26.8868 194.882 26.2065C195.248 25.5263 195.761 25.003 196.42 24.6367C197.08 24.2704 197.838 24.0873 198.697 24.0873C199.523 24.0873 200.261 24.2652 200.91 24.621C201.569 24.9768 202.077 25.4844 202.433 26.1437C202.799 26.7926 202.982 27.5409 202.982 28.3886ZM200.706 27.7607C200.695 27.1955 200.491 26.7455 200.094 26.4106C199.696 26.0652 199.209 25.8926 198.634 25.8926C198.09 25.8926 197.629 26.06 197.252 26.3949C196.886 26.7193 196.661 27.1746 196.577 27.7607H200.706ZM131.802 54.8375H127.438L126.716 56.9254H124.408L128.348 45.9523H130.907L134.848 56.9254H132.524L131.802 54.8375ZM131.206 53.0793L129.62 48.4954L128.034 53.0793H131.206ZM138.879 50.0338V54.241C138.879 54.534 138.947 54.7486 139.083 54.8846C139.23 55.0102 139.47 55.073 139.805 55.073H140.826V56.9254H139.444C137.592 56.9254 136.666 56.0254 136.666 54.2253V50.0338H135.63V48.2285H136.666V46.0779H138.879V48.2285H140.826V50.0338H138.879ZM150.491 52.3886C150.491 52.7025 150.47 52.9851 150.428 53.2363H144.07C144.123 53.8642 144.343 54.3561 144.73 54.7119C145.117 55.0678 145.593 55.2457 146.158 55.2457C146.975 55.2457 147.556 54.8951 147.901 54.1939H150.271C150.02 55.0311 149.539 55.7219 148.827 56.2661C148.115 56.7998 147.242 57.0667 146.205 57.0667C145.368 57.0667 144.615 56.8835 143.945 56.5172C143.286 56.1405 142.768 55.612 142.391 54.9317C142.024 54.2514 141.841 53.4665 141.841 52.577C141.841 51.6769 142.024 50.8868 142.391 50.2065C142.757 49.5263 143.27 49.003 143.929 48.6367C144.589 48.2704 145.347 48.0873 146.205 48.0873C147.032 48.0873 147.77 48.2652 148.419 48.621C149.078 48.9768 149.586 49.4844 149.942 50.1437C150.308 50.7926 150.491 51.5409 150.491 52.3886ZM148.215 51.7607C148.204 51.1955 148 50.7455 147.603 50.4106C147.205 50.0652 146.718 49.8926 146.143 49.8926C145.598 49.8926 145.138 50.06 144.761 50.3949C144.395 50.7193 144.17 51.1746 144.086 51.7607H148.215ZM156.915 48.103C157.951 48.103 158.788 48.4326 159.426 49.0919C160.065 49.7408 160.384 50.6513 160.384 51.8234V56.9254H158.186V52.1217C158.186 51.431 158.014 50.9025 157.668 50.5362C157.323 50.1594 156.852 49.971 156.255 49.971C155.648 49.971 155.167 50.1594 154.811 50.5362C154.466 50.9025 154.293 51.431 154.293 52.1217V56.9254H152.095V48.2285H154.293V49.3117C154.586 48.935 154.958 48.6419 155.408 48.4326C155.868 48.2128 156.37 48.103 156.915 48.103ZM161.909 52.5456C161.909 51.6665 162.081 50.8868 162.427 50.2065C162.783 49.5263 163.264 49.003 163.871 48.6367C164.478 48.2704 165.153 48.0873 165.896 48.0873C166.461 48.0873 167 48.2128 167.513 48.464C168.026 48.7047 168.434 49.0292 168.738 49.4373V45.3087H170.967V56.9254H168.738V55.6381C168.465 56.0672 168.083 56.4126 167.592 56.6742C167.1 56.9359 166.529 57.0667 165.88 57.0667C165.148 57.0667 164.478 56.8783 163.871 56.5015C163.264 56.1248 162.783 55.5963 162.427 54.916C162.081 54.2253 161.909 53.4351 161.909 52.5456ZM168.753 52.577C168.753 52.0432 168.649 51.588 168.439 51.2112C168.23 50.824 167.947 50.531 167.592 50.3321C167.236 50.1228 166.854 50.0181 166.446 50.0181C166.037 50.0181 165.661 50.1176 165.315 50.3164C164.97 50.5153 164.687 50.8083 164.468 51.1955C164.258 51.5723 164.154 52.0223 164.154 52.5456C164.154 53.0688 164.258 53.5293 164.468 53.927C164.687 54.3142 164.97 54.6125 165.315 54.8218C165.671 55.0311 166.048 55.1358 166.446 55.1358C166.854 55.1358 167.236 55.0364 167.592 54.8375C167.947 54.6282 168.23 54.3352 168.439 53.9584C168.649 53.5712 168.753 53.1107 168.753 52.577ZM174.228 47.1925C173.841 47.1925 173.516 47.0721 173.254 46.8314C173.003 46.5802 172.878 46.2715 172.878 45.9052C172.878 45.5389 173.003 45.2354 173.254 44.9947C173.516 44.7435 173.841 44.6179 174.228 44.6179C174.615 44.6179 174.934 44.7435 175.185 44.9947C175.447 45.2354 175.578 45.5389 175.578 45.9052C175.578 46.2715 175.447 46.5802 175.185 46.8314C174.934 47.0721 174.615 47.1925 174.228 47.1925ZM175.311 48.2285V56.9254H173.113V48.2285H175.311ZM188.283 48.103C189.35 48.103 190.208 48.4326 190.857 49.0919C191.517 49.7408 191.846 50.6513 191.846 51.8234V56.9254H189.648V52.1217C189.648 51.4415 189.476 50.9234 189.13 50.5676C188.785 50.2013 188.314 50.0181 187.718 50.0181C187.121 50.0181 186.645 50.2013 186.289 50.5676C185.944 50.9234 185.771 51.4415 185.771 52.1217V56.9254H183.573V52.1217C183.573 51.4415 183.401 50.9234 183.055 50.5676C182.71 50.2013 182.239 50.0181 181.642 50.0181C181.035 50.0181 180.554 50.2013 180.198 50.5676C179.853 50.9234 179.68 51.4415 179.68 52.1217V56.9254H177.482V48.2285H179.68V49.2803C179.963 48.914 180.324 48.6262 180.763 48.4169C181.213 48.2076 181.705 48.103 182.239 48.103C182.919 48.103 183.526 48.2495 184.06 48.5425C184.594 48.8251 185.007 49.2332 185.3 49.767C185.583 49.2646 185.991 48.8617 186.525 48.5582C187.069 48.2547 187.655 48.103 188.283 48.103ZM202.016 52.3886C202.016 52.7025 201.995 52.9851 201.954 53.2363H195.596C195.648 53.8642 195.868 54.3561 196.255 54.7119C196.642 55.0678 197.119 55.2457 197.684 55.2457C198.5 55.2457 199.081 54.8951 199.426 54.1939H201.797C201.545 55.0311 201.064 55.7219 200.352 56.2661C199.641 56.7998 198.767 57.0667 197.731 57.0667C196.894 57.0667 196.14 56.8835 195.47 56.5172C194.811 56.1405 194.293 55.612 193.916 54.9317C193.55 54.2514 193.367 53.4665 193.367 52.577C193.367 51.6769 193.55 50.8868 193.916 50.2065C194.282 49.5263 194.795 49.003 195.455 48.6367C196.114 48.2704 196.873 48.0873 197.731 48.0873C198.558 48.0873 199.295 48.2652 199.944 48.621C200.604 48.9768 201.111 49.4844 201.467 50.1437C201.833 50.7926 202.016 51.5409 202.016 52.3886ZM199.74 51.7607C199.73 51.1955 199.526 50.7455 199.128 50.4106C198.73 50.0652 198.244 49.8926 197.668 49.8926C197.124 49.8926 196.663 50.06 196.287 50.3949C195.92 50.7193 195.695 51.1746 195.611 51.7607H199.74ZM208.44 48.103C209.476 48.103 210.313 48.4326 210.952 49.0919C211.59 49.7408 211.909 50.6513 211.909 51.8234V56.9254H209.711V52.1217C209.711 51.431 209.539 50.9025 209.193 50.5362C208.848 50.1594 208.377 49.971 207.781 49.971C207.174 49.971 206.692 50.1594 206.336 50.5362C205.991 50.9025 205.818 51.431 205.818 52.1217V56.9254H203.621V48.2285H205.818V49.3117C206.111 48.935 206.483 48.6419 206.933 48.4326C207.393 48.2128 207.896 48.103 208.44 48.103ZM216.558 50.0338V54.241C216.558 54.534 216.626 54.7486 216.762 54.8846C216.909 55.0102 217.149 55.073 217.484 55.073H218.505V56.9254H217.123C215.271 56.9254 214.345 56.0254 214.345 54.2253V50.0338H213.308V48.2285H214.345V46.0779H216.558V48.2285H218.505V50.0338H216.558ZM223.947 57.0667C223.11 57.0667 222.356 56.8835 221.687 56.5172C221.017 56.1405 220.488 55.612 220.101 54.9317C219.724 54.2514 219.536 53.4665 219.536 52.577C219.536 51.6874 219.73 50.9025 220.117 50.2222C220.514 49.542 221.053 49.0187 221.734 48.6524C222.414 48.2756 223.173 48.0873 224.01 48.0873C224.847 48.0873 225.606 48.2756 226.286 48.6524C226.966 49.0187 227.5 49.542 227.887 50.2222C228.285 50.9025 228.484 51.6874 228.484 52.577C228.484 53.4665 228.28 54.2514 227.872 54.9317C227.474 55.612 226.93 56.1405 226.239 56.5172C225.559 56.8835 224.795 57.0667 223.947 57.0667ZM223.947 55.1515C224.345 55.1515 224.716 55.0573 225.062 54.8689C225.418 54.6701 225.7 54.377 225.909 53.9898C226.119 53.6026 226.223 53.1316 226.223 52.577C226.223 51.7502 226.004 51.117 225.564 50.6775C225.135 50.2275 224.606 50.0024 223.979 50.0024C223.351 50.0024 222.822 50.2275 222.393 50.6775C221.974 51.117 221.765 51.7502 221.765 52.577C221.765 53.4037 221.969 54.0421 222.377 54.4922C222.796 54.9317 223.319 55.1515 223.947 55.1515ZM237.62 57.0353C236.856 57.0353 236.165 56.9045 235.548 56.6428C234.941 56.3812 234.459 56.0044 234.104 55.5125C233.748 55.0207 233.565 54.4398 233.554 53.77H235.909C235.94 54.22 236.097 54.5759 236.38 54.8375C236.673 55.0992 237.071 55.23 237.573 55.23C238.086 55.23 238.489 55.1096 238.782 54.8689C239.075 54.6177 239.221 54.2933 239.221 53.8956C239.221 53.5712 239.122 53.3043 238.923 53.095C238.724 52.8857 238.473 52.7235 238.169 52.6084C237.876 52.4828 237.468 52.3467 236.945 52.2002C236.233 51.9909 235.652 51.7868 235.202 51.588C234.763 51.3787 234.381 51.0699 234.056 50.6618C233.742 50.2432 233.585 49.6885 233.585 48.9978C233.585 48.3489 233.748 47.7838 234.072 47.3023C234.397 46.8209 234.852 46.4546 235.438 46.2035C236.024 45.9418 236.694 45.811 237.447 45.811C238.578 45.811 239.493 46.0883 240.194 46.643C240.906 47.1872 241.299 47.9512 241.372 48.935H238.954C238.933 48.5582 238.771 48.2495 238.468 48.0088C238.175 47.7576 237.782 47.632 237.29 47.632C236.861 47.632 236.516 47.7419 236.254 47.9617C236.003 48.1814 235.877 48.5006 235.877 48.9193C235.877 49.2123 235.972 49.4582 236.16 49.6571C236.359 49.8455 236.6 50.0024 236.882 50.128C237.175 50.2432 237.583 50.3792 238.107 50.5362C238.818 50.7455 239.399 50.9548 239.849 51.1641C240.299 51.3734 240.686 51.6874 241.011 52.106C241.335 52.5246 241.497 53.0741 241.497 53.7543C241.497 54.3404 241.346 54.8846 241.042 55.387C240.739 55.8893 240.294 56.2922 239.708 56.5957C239.122 56.8888 238.426 57.0353 237.62 57.0353ZM247.265 57.0667C246.427 57.0667 245.674 56.8835 245.004 56.5172C244.334 56.1405 243.806 55.612 243.418 54.9317C243.042 54.2514 242.853 53.4665 242.853 52.577C242.853 51.6874 243.047 50.9025 243.434 50.2222C243.832 49.542 244.371 49.0187 245.051 48.6524C245.731 48.2756 246.49 48.0873 247.327 48.0873C248.165 48.0873 248.923 48.2756 249.604 48.6524C250.284 49.0187 250.818 49.542 251.205 50.2222C251.603 50.9025 251.801 51.6874 251.801 52.577C251.801 53.4665 251.597 54.2514 251.189 54.9317C250.791 55.612 250.247 56.1405 249.557 56.5172C248.876 56.8835 248.112 57.0667 247.265 57.0667ZM247.265 55.1515C247.662 55.1515 248.034 55.0573 248.379 54.8689C248.735 54.6701 249.018 54.377 249.227 53.9898C249.436 53.6026 249.541 53.1316 249.541 52.577C249.541 51.7502 249.321 51.117 248.881 50.6775C248.452 50.2275 247.924 50.0024 247.296 50.0024C246.668 50.0024 246.14 50.2275 245.71 50.6775C245.292 51.117 245.083 51.7502 245.083 52.577C245.083 53.4037 245.287 54.0421 245.695 54.4922C246.113 54.9317 246.637 55.1515 247.265 55.1515ZM252.848 52.577C252.848 51.6769 253.032 50.892 253.398 50.2222C253.764 49.542 254.272 49.0187 254.921 48.6524C255.569 48.2756 256.312 48.0873 257.15 48.0873C258.228 48.0873 259.117 48.3594 259.818 48.9036C260.53 49.4373 261.006 50.1908 261.247 51.1641H258.877C258.751 50.7874 258.536 50.4943 258.233 50.285C257.94 50.0652 257.574 49.9553 257.134 49.9553C256.506 49.9553 256.009 50.1856 255.643 50.6461C255.276 51.0961 255.093 51.7397 255.093 52.577C255.093 53.4037 255.276 54.0474 255.643 54.5078C256.009 54.9579 256.506 55.1829 257.134 55.1829C258.024 55.1829 258.604 54.7852 258.877 53.9898H261.247C261.006 54.9317 260.53 55.68 259.818 56.2347C259.107 56.7893 258.217 57.0667 257.15 57.0667C256.312 57.0667 255.569 56.8835 254.921 56.5172C254.272 56.1405 253.764 55.6172 253.398 54.9474C253.032 54.2671 252.848 53.477 252.848 52.577ZM263.972 47.1925C263.584 47.1925 263.26 47.0721 262.998 46.8314C262.747 46.5802 262.622 46.2715 262.622 45.9052C262.622 45.5389 262.747 45.2354 262.998 44.9947C263.26 44.7435 263.584 44.6179 263.972 44.6179C264.359 44.6179 264.678 44.7435 264.929 44.9947C265.191 45.2354 265.322 45.5389 265.322 45.9052C265.322 46.2715 265.191 46.5802 264.929 46.8314C264.678 47.0721 264.359 47.1925 263.972 47.1925ZM265.055 48.2285V56.9254H262.857V48.2285H265.055ZM266.661 52.5456C266.661 51.6665 266.834 50.8868 267.179 50.2065C267.535 49.5263 268.011 49.003 268.608 48.6367C269.215 48.2704 269.89 48.0873 270.633 48.0873C271.282 48.0873 271.847 48.2181 272.328 48.4797C272.82 48.7413 273.212 49.071 273.505 49.4687V48.2285H275.719V56.9254H273.505V55.6538C273.223 56.062 272.83 56.4021 272.328 56.6742C271.836 56.9359 271.266 57.0667 270.617 57.0667C269.884 57.0667 269.215 56.8783 268.608 56.5015C268.011 56.1248 267.535 55.5963 267.179 54.916C266.834 54.2253 266.661 53.4351 266.661 52.5456ZM273.505 52.577C273.505 52.0432 273.401 51.588 273.192 51.2112C272.982 50.824 272.7 50.531 272.344 50.3321C271.988 50.1228 271.606 50.0181 271.198 50.0181C270.79 50.0181 270.413 50.1176 270.068 50.3164C269.722 50.5153 269.44 50.8083 269.22 51.1955C269.011 51.5723 268.906 52.0223 268.906 52.5456C268.906 53.0688 269.011 53.5293 269.22 53.927C269.44 54.3142 269.722 54.6125 270.068 54.8218C270.423 55.0311 270.8 55.1358 271.198 55.1358C271.606 55.1358 271.988 55.0364 272.344 54.8375C272.7 54.6282 272.982 54.3352 273.192 53.9584C273.401 53.5712 273.505 53.1107 273.505 52.577ZM280.063 45.3087V56.9254H277.865V45.3087H280.063Z" fill="#F2E9EB"/>
<path d="M126.339 73.7513H124.392L126.041 70.0151H127.297L126.339 73.7513ZM129.165 73.7513H127.218L128.866 70.0151H130.122L129.165 73.7513ZM138.378 78.6962H133.809L133.025 80.9254H131.156L135.065 69.9994H137.137L141.046 80.9254H139.163L138.378 78.6962ZM137.875 77.2363L136.101 72.1657L134.312 77.2363H137.875ZM147.11 72.1344C147.79 72.1344 148.397 72.2756 148.931 72.5582C149.475 72.8408 149.899 73.2594 150.203 73.8141C150.506 74.3687 150.658 75.0385 150.658 75.8234V80.9254H148.884V76.0903C148.884 75.3159 148.69 74.7246 148.303 74.3164C147.916 73.8978 147.387 73.6885 146.718 73.6885C146.048 73.6885 145.514 73.8978 145.116 74.3164C144.729 74.7246 144.536 75.3159 144.536 76.0903V80.9254H142.746V72.2756H144.536V73.2646C144.829 72.9088 145.2 72.6315 145.65 72.4326C146.111 72.2338 146.597 72.1344 147.11 72.1344ZM156.426 72.1344C157.095 72.1344 157.687 72.2704 158.2 72.5425C158.723 72.8041 159.131 73.1338 159.424 73.5315V72.2756H161.229V81.0667C161.229 81.862 161.062 82.5685 160.727 83.1859C160.392 83.8139 159.905 84.3057 159.267 84.6616C158.639 85.0174 157.886 85.1953 157.006 85.1953C155.834 85.1953 154.861 84.918 154.087 84.3633C153.312 83.8191 152.873 83.076 152.768 82.1342H154.542C154.678 82.5842 154.966 82.9452 155.405 83.2173C155.855 83.4999 156.389 83.6412 157.006 83.6412C157.729 83.6412 158.309 83.4214 158.749 82.9819C159.199 82.5423 159.424 81.9039 159.424 81.0667V79.6224C159.121 80.0306 158.707 80.3759 158.184 80.6585C157.671 80.9306 157.085 81.0667 156.426 81.0667C155.672 81.0667 154.981 80.8783 154.353 80.5015C153.736 80.1143 153.244 79.5806 152.878 78.9003C152.522 78.2096 152.344 77.4299 152.344 76.5613C152.344 75.6926 152.522 74.9234 152.878 74.2536C153.244 73.5838 153.736 73.0658 154.353 72.6995C154.981 72.3227 155.672 72.1344 156.426 72.1344ZM159.424 76.5927C159.424 75.9961 159.298 75.4781 159.047 75.0385C158.807 74.599 158.487 74.2641 158.09 74.0338C157.692 73.8036 157.263 73.6885 156.802 73.6885C156.342 73.6885 155.913 73.8036 155.515 74.0338C155.117 74.2536 154.793 74.5833 154.542 75.0228C154.301 75.4519 154.181 75.9647 154.181 76.5613C154.181 77.1578 154.301 77.6811 154.542 78.1311C154.793 78.5811 155.117 78.9265 155.515 79.1672C155.923 79.3974 156.352 79.5125 156.802 79.5125C157.263 79.5125 157.692 79.3974 158.09 79.1672C158.487 78.9369 158.807 78.602 159.047 78.1625C159.298 77.7125 159.424 77.1892 159.424 76.5927ZM171.508 76.3886C171.508 76.713 171.487 77.006 171.445 77.2677H164.836C164.888 77.9584 165.144 78.5131 165.605 78.9317C166.065 79.3503 166.631 79.5596 167.3 79.5596C168.263 79.5596 168.943 79.1567 169.341 78.3509H171.272C171.01 79.1462 170.534 79.8003 169.844 80.3132C169.163 80.8155 168.316 81.0667 167.3 81.0667C166.474 81.0667 165.731 80.8835 165.071 80.5172C164.422 80.1405 163.91 79.6172 163.533 78.9474C163.167 78.2671 162.983 77.4822 162.983 76.5927C162.983 75.7031 163.161 74.9234 163.517 74.2536C163.883 73.5734 164.391 73.0501 165.04 72.6838C165.699 72.3175 166.453 72.1344 167.3 72.1344C168.117 72.1344 168.844 72.3123 169.482 72.6681C170.121 73.0239 170.618 73.5263 170.974 74.1751C171.33 74.8135 171.508 75.5513 171.508 76.3886ZM169.639 75.8234C169.629 75.1641 169.393 74.6356 168.933 74.2379C168.473 73.8402 167.902 73.6414 167.222 73.6414C166.604 73.6414 166.076 73.8402 165.636 74.2379C165.197 74.6251 164.935 75.1537 164.851 75.8234H169.639ZM175.058 69.3087V80.9254H173.269V69.3087H175.058ZM176.811 76.5613C176.811 75.6926 176.989 74.9234 177.345 74.2536C177.711 73.5838 178.203 73.0658 178.821 72.6995C179.449 72.3227 180.139 72.1344 180.893 72.1344C181.573 72.1344 182.164 72.2704 182.667 72.5425C183.18 72.8041 183.588 73.1338 183.891 73.5315V72.2756H185.697V80.9254H183.891V79.6381C183.588 80.0463 183.174 80.3864 182.651 80.6585C182.128 80.9306 181.531 81.0667 180.861 81.0667C180.118 81.0667 179.438 80.8783 178.821 80.5015C178.203 80.1143 177.711 79.5806 177.345 78.9003C176.989 78.2096 176.811 77.4299 176.811 76.5613ZM183.891 76.5927C183.891 75.9961 183.766 75.4781 183.514 75.0385C183.274 74.599 182.955 74.2641 182.557 74.0338C182.159 73.8036 181.73 73.6885 181.27 73.6885C180.809 73.6885 180.38 73.8036 179.982 74.0338C179.585 74.2536 179.26 74.5833 179.009 75.0228C178.768 75.4519 178.648 75.9647 178.648 76.5613C178.648 77.1578 178.768 77.6811 179.009 78.1311C179.26 78.5811 179.585 78.9265 179.982 79.1672C180.391 79.3974 180.82 79.5125 181.27 79.5125C181.73 79.5125 182.159 79.3974 182.557 79.1672C182.955 78.9369 183.274 78.602 183.514 78.1625C183.766 77.7125 183.891 77.1892 183.891 76.5927ZM203.616 70.0151V80.9254H201.827V73.453L198.498 80.9254H197.258L193.915 73.453V80.9254H192.125V70.0151H194.056L197.886 78.5706L201.701 70.0151H203.616ZM205.372 76.5613C205.372 75.6926 205.55 74.9234 205.906 74.2536C206.272 73.5838 206.764 73.0658 207.381 72.6995C208.009 72.3227 208.7 72.1344 209.453 72.1344C210.134 72.1344 210.725 72.2704 211.227 72.5425C211.74 72.8041 212.148 73.1338 212.452 73.5315V72.2756H214.257V80.9254H212.452V79.6381C212.148 80.0463 211.735 80.3864 211.212 80.6585C210.688 80.9306 210.092 81.0667 209.422 81.0667C208.679 81.0667 207.999 80.8783 207.381 80.5015C206.764 80.1143 206.272 79.5806 205.906 78.9003C205.55 78.2096 205.372 77.4299 205.372 76.5613ZM212.452 76.5927C212.452 75.9961 212.326 75.4781 212.075 75.0385C211.834 74.599 211.515 74.2641 211.117 74.0338C210.72 73.8036 210.291 73.6885 209.83 73.6885C209.37 73.6885 208.941 73.8036 208.543 74.0338C208.145 74.2536 207.821 74.5833 207.57 75.0228C207.329 75.4519 207.208 75.9647 207.208 76.5613C207.208 77.1578 207.329 77.6811 207.57 78.1311C207.821 78.5811 208.145 78.9265 208.543 79.1672C208.951 79.3974 209.38 79.5125 209.83 79.5125C210.291 79.5125 210.72 79.3974 211.117 79.1672C211.515 78.9369 211.834 78.602 212.075 78.1625C212.326 77.7125 212.452 77.1892 212.452 76.5927ZM218.397 73.5315C218.659 73.0919 219.004 72.7518 219.433 72.5111C219.873 72.2599 220.391 72.1344 220.987 72.1344V73.9867H220.532C219.831 73.9867 219.297 74.1647 218.931 74.5205C218.575 74.8763 218.397 75.4938 218.397 76.3729V80.9254H216.608V72.2756H218.397V73.5315ZM224.72 73.7356V78.5235C224.72 78.848 224.794 79.0835 224.94 79.23C225.097 79.366 225.359 79.434 225.725 79.434H226.824V80.9254H225.411C224.605 80.9254 223.988 80.737 223.559 80.3602C223.129 79.9835 222.915 79.3713 222.915 78.5235V73.7356H221.895V72.2756H222.915V70.125H224.72V72.2756H226.824V73.7356H224.72ZM229.384 71.1297C229.059 71.1297 228.787 71.0198 228.567 70.8C228.348 70.5802 228.238 70.3081 228.238 69.9837C228.238 69.6593 228.348 69.3872 228.567 69.1674C228.787 68.9476 229.059 68.8377 229.384 68.8377C229.698 68.8377 229.965 68.9476 230.184 69.1674C230.404 69.3872 230.514 69.6593 230.514 69.9837C230.514 70.3081 230.404 70.5802 230.184 70.8C229.965 71.0198 229.698 71.1297 229.384 71.1297ZM230.263 72.2756V80.9254H228.473V72.2756H230.263ZM236.977 72.1344C237.657 72.1344 238.264 72.2756 238.798 72.5582C239.342 72.8408 239.766 73.2594 240.069 73.8141C240.373 74.3687 240.524 75.0385 240.524 75.8234V80.9254H238.75V76.0903C238.75 75.3159 238.557 74.7246 238.17 74.3164C237.782 73.8978 237.254 73.6885 236.584 73.6885C235.914 73.6885 235.381 73.8978 234.983 74.3164C234.596 74.7246 234.402 75.3159 234.402 76.0903V80.9254H232.612V72.2756H234.402V73.2646C234.695 72.9088 235.067 72.6315 235.517 72.4326C235.977 72.2338 236.464 72.1344 236.977 72.1344ZM252.725 75.3211C253.311 75.4258 253.808 75.7345 254.216 76.2473C254.624 76.7601 254.828 77.3409 254.828 77.9898C254.828 78.5445 254.682 79.0468 254.389 79.4968C254.106 79.9364 253.693 80.287 253.149 80.5486C252.604 80.7998 251.971 80.9254 251.249 80.9254H246.885V70.0151H251.045C251.788 70.0151 252.426 70.1407 252.96 70.3918C253.494 70.643 253.897 70.9831 254.169 71.4122C254.441 71.8308 254.577 72.3018 254.577 72.8251C254.577 73.453 254.41 73.9763 254.075 74.3949C253.74 74.8135 253.29 75.1223 252.725 75.3211ZM248.675 74.599H250.888C251.474 74.599 251.929 74.4682 252.254 74.2065C252.589 73.9344 252.756 73.5472 252.756 73.0448C252.756 72.553 252.589 72.171 252.254 71.8989C251.929 71.6163 251.474 71.475 250.888 71.475H248.675V74.599ZM251.092 79.4654C251.699 79.4654 252.175 79.3189 252.521 79.0259C252.866 78.7329 253.039 78.3247 253.039 77.8014C253.039 77.2677 252.856 76.8438 252.489 76.5299C252.123 76.2159 251.636 76.0589 251.029 76.0589H248.675V79.4654H251.092ZM256.177 76.5613C256.177 75.6926 256.354 74.9234 256.71 74.2536C257.077 73.5838 257.568 73.0658 258.186 72.6995C258.814 72.3227 259.505 72.1344 260.258 72.1344C260.938 72.1344 261.53 72.2704 262.032 72.5425C262.545 72.8041 262.953 73.1338 263.256 73.5315V72.2756H265.062V80.9254H263.256V79.6381C262.953 80.0463 262.54 80.3864 262.016 80.6585C261.493 80.9306 260.896 81.0667 260.227 81.0667C259.484 81.0667 258.803 80.8783 258.186 80.5015C257.568 80.1143 257.077 79.5806 256.71 78.9003C256.354 78.2096 256.177 77.4299 256.177 76.5613ZM263.256 76.5927C263.256 75.9961 263.131 75.4781 262.88 75.0385C262.639 74.599 262.32 74.2641 261.922 74.0338C261.524 73.8036 261.095 73.6885 260.635 73.6885C260.174 73.6885 259.745 73.8036 259.348 74.0338C258.95 74.2536 258.625 74.5833 258.374 75.0228C258.134 75.4519 258.013 75.9647 258.013 76.5613C258.013 77.1578 258.134 77.6811 258.374 78.1311C258.625 78.5811 258.95 78.9265 259.348 79.1672C259.756 79.3974 260.185 79.5125 260.635 79.5125C261.095 79.5125 261.524 79.3974 261.922 79.1672C262.32 78.9369 262.639 78.602 262.88 78.1625C263.131 77.7125 263.256 77.1892 263.256 76.5927ZM270.552 81.0667C269.872 81.0667 269.26 80.9463 268.715 80.7056C268.182 80.4544 267.758 80.1195 267.444 79.7009C267.13 79.2718 266.962 78.7957 266.941 78.2724H268.794C268.825 78.6387 268.998 78.9474 269.312 79.1986C269.636 79.4393 270.039 79.5596 270.521 79.5596C271.023 79.5596 271.41 79.4654 271.682 79.2771C271.965 79.0782 272.106 78.827 272.106 78.5235C272.106 78.1991 271.949 77.9584 271.635 77.8014C271.332 77.6444 270.845 77.4718 270.175 77.2834C269.526 77.1055 268.998 76.9328 268.59 76.7653C268.182 76.5979 267.826 76.3415 267.522 75.9961C267.229 75.6508 267.083 75.1955 267.083 74.6304C267.083 74.1699 267.219 73.7513 267.491 73.3745C267.763 72.9873 268.15 72.6838 268.653 72.464C269.165 72.2442 269.751 72.1344 270.411 72.1344C271.394 72.1344 272.185 72.3855 272.781 72.8879C273.388 73.3797 273.713 74.0548 273.754 74.9129H271.965C271.933 74.5257 271.776 74.217 271.494 73.9867C271.211 73.7565 270.829 73.6414 270.348 73.6414C269.877 73.6414 269.516 73.7303 269.265 73.9083C269.014 74.0862 268.888 74.3216 268.888 74.6147C268.888 74.8449 268.972 75.0385 269.139 75.1955C269.307 75.3525 269.511 75.4781 269.751 75.5723C269.992 75.656 270.348 75.7659 270.819 75.9019C271.447 76.0694 271.96 76.2421 272.357 76.42C272.765 76.5874 273.116 76.8386 273.409 77.1735C273.702 77.5084 273.854 77.9532 273.864 78.5078C273.864 78.9997 273.728 79.4393 273.456 79.8265C273.184 80.2137 272.797 80.5172 272.295 80.737C271.803 80.9568 271.222 81.0667 270.552 81.0667ZM278.938 81.0667C278.257 81.0667 277.645 80.9463 277.101 80.7056C276.567 80.4544 276.143 80.1195 275.829 79.7009C275.515 79.2718 275.348 78.7957 275.327 78.2724H277.179C277.211 78.6387 277.384 78.9474 277.698 79.1986C278.022 79.4393 278.425 79.5596 278.906 79.5596C279.409 79.5596 279.796 79.4654 280.068 79.2771C280.351 79.0782 280.492 78.827 280.492 78.5235C280.492 78.1991 280.335 77.9584 280.021 77.8014C279.717 77.6444 279.231 77.4718 278.561 77.2834C277.912 77.1055 277.384 76.9328 276.975 76.7653C276.567 76.5979 276.211 76.3415 275.908 75.9961C275.615 75.6508 275.468 75.1955 275.468 74.6304C275.468 74.1699 275.604 73.7513 275.877 73.3745C276.149 72.9873 276.536 72.6838 277.038 72.464C277.551 72.2442 278.137 72.1344 278.796 72.1344C279.78 72.1344 280.57 72.3855 281.167 72.8879C281.774 73.3797 282.098 74.0548 282.14 74.9129H280.351C280.319 74.5257 280.162 74.217 279.88 73.9867C279.597 73.7565 279.215 73.6414 278.734 73.6414C278.263 73.6414 277.902 73.7303 277.65 73.9083C277.399 74.0862 277.274 74.3216 277.274 74.6147C277.274 74.8449 277.357 75.0385 277.525 75.1955C277.692 75.3525 277.896 75.4781 278.137 75.5723C278.378 75.656 278.734 75.7659 279.205 75.9019C279.832 76.0694 280.345 76.2421 280.743 76.42C281.151 76.5874 281.502 76.8386 281.795 77.1735C282.088 77.5084 282.24 77.9532 282.25 78.5078C282.25 78.9997 282.114 79.4393 281.842 79.8265C281.57 80.2137 281.183 80.5172 280.68 80.737C280.188 80.9568 279.607 81.0667 278.938 81.0667ZM292.111 76.3886C292.111 76.713 292.09 77.006 292.049 77.2677H285.44C285.492 77.9584 285.748 78.5131 286.209 78.9317C286.669 79.3503 287.234 79.5596 287.904 79.5596C288.867 79.5596 289.547 79.1567 289.945 78.3509H291.876C291.614 79.1462 291.138 79.8003 290.447 80.3132C289.767 80.8155 288.919 81.0667 287.904 81.0667C287.077 81.0667 286.334 80.8835 285.675 80.5172C285.026 80.1405 284.513 79.6172 284.137 78.9474C283.77 78.2671 283.587 77.4822 283.587 76.5927C283.587 75.7031 283.765 74.9234 284.121 74.2536C284.487 73.5734 284.995 73.0501 285.644 72.6838C286.303 72.3175 287.057 72.1344 287.904 72.1344C288.721 72.1344 289.448 72.3123 290.086 72.6681C290.725 73.0239 291.222 73.5263 291.578 74.1751C291.933 74.8135 292.111 75.5513 292.111 76.3886ZM290.243 75.8234C290.233 75.1641 289.997 74.6356 289.537 74.2379C289.076 73.8402 288.506 73.6414 287.826 73.6414C287.208 73.6414 286.68 73.8402 286.24 74.2379C285.801 74.6251 285.539 75.1537 285.455 75.8234H290.243ZM295.96 73.7356V78.5235C295.96 78.848 296.034 79.0835 296.18 79.23C296.337 79.366 296.599 79.434 296.965 79.434H298.064V80.9254H296.651C295.845 80.9254 295.228 80.737 294.799 80.3602C294.37 79.9835 294.155 79.3713 294.155 78.5235V73.7356H293.135V72.2756H294.155V70.125H295.96V72.2756H298.064V73.7356H295.96ZM301.801 73.7356V78.5235C301.801 78.848 301.875 79.0835 302.021 79.23C302.178 79.366 302.44 79.434 302.806 79.434H303.905V80.9254H302.492C301.686 80.9254 301.069 80.737 300.64 80.3602C300.21 79.9835 299.996 79.3713 299.996 78.5235V73.7356H298.976V72.2756H299.996V70.125H301.801V72.2756H303.905V73.7356H301.801ZM309.306 81.0667C308.49 81.0667 307.752 80.8835 307.093 80.5172C306.433 80.1405 305.915 79.6172 305.539 78.9474C305.162 78.2671 304.973 77.4822 304.973 76.5927C304.973 75.7136 305.167 74.9339 305.554 74.2536C305.941 73.5734 306.47 73.0501 307.14 72.6838C307.81 72.3175 308.558 72.1344 309.385 72.1344C310.211 72.1344 310.96 72.3175 311.629 72.6838C312.299 73.0501 312.828 73.5734 313.215 74.2536C313.602 74.9339 313.796 75.7136 313.796 76.5927C313.796 77.4718 313.597 78.2514 313.199 78.9317C312.802 79.612 312.257 80.1405 311.567 80.5172C310.886 80.8835 310.133 81.0667 309.306 81.0667ZM309.306 79.5125C309.767 79.5125 310.196 79.4027 310.593 79.1829C311.002 78.9631 311.331 78.6334 311.582 78.1939C311.834 77.7543 311.959 77.2206 311.959 76.5927C311.959 75.9647 311.839 75.4362 311.598 75.0071C311.357 74.5676 311.038 74.2379 310.64 74.0181C310.243 73.7984 309.814 73.6885 309.353 73.6885C308.893 73.6885 308.464 73.7984 308.066 74.0181C307.679 74.2379 307.37 74.5676 307.14 75.0071C306.91 75.4362 306.794 75.9647 306.794 76.5927C306.794 77.5241 307.03 78.2462 307.501 78.759C307.982 79.2614 308.584 79.5125 309.306 79.5125ZM315.848 70.0151H317.794L316.146 73.7513H314.89L315.848 70.0151ZM318.673 70.0151H320.62L318.971 73.7513H317.716L318.673 70.0151Z" fill="#D4C7D9"/>
</svg>
